{
copyright = "Copyright (c) 2015, Cadson Demak (info@cadsondemak.com)";
customParameters = (
{
name = vendorID;
value = CDK;
},
{
name = description;
value = "Copyright (c) 2015, Cadson Demak (info@cadsondemak.com)";
},
{
name = license;

glyphs = (
{
glyphname = A;
lastChange = "2015-10-28 18:15:24 +0000";
layers = (
{
layerId = "E876E4BA-4024-4F05-97F6-A7AFE1BCFA82";
name = Bold;
paths = (
{
closed = 1;
nodes = (
"172 0 LINE",
"258 144 LINE",
"516 144 LINE",
"542 0 LINE",
"718 0 LINE",
"587 699 LINE",
"413 699 LINE",
"-15 0 LINE"
);
},
{
closed = 1;
nodes = (
"466 515 LINE",
"501 280 LINE",
"330 280 LINE"
);
}
);
width = 783;
}
);
leftKerningGroup = A;
note = A;
rightKerningGroup = A;
unicode = 0041;
},
{
glyphname = Aacute;
lastChange = "2015-10-28 18:15:24 +0000";
layers = (
{
layerId = "E876E4BA-4024-4F05-97F6-A7AFE1BCFA82";
name = Bold;
paths = (
{
closed = 1;
nodes = (
"172 0 LINE",
"258 144 LINE",
"516 144 LINE",
"542 0 LINE",
"718 0 LINE",
"587 699 LINE",
"413 699 LINE",
"-15 0 LINE"
);
},
{
closed = 1;
nodes = (
"466 515 LINE",
"501 280 LINE",
"330 280 LINE"
);
},
{
closed = 1;
nodes = (
"575 742 LINE",
"704 920 LINE",
"519 920 LINE",
"412 742 LINE"
);
}
);
width = 783;
}
);
leftKerningGroup = A;
note = Aacute;
rightKerningGroup = A;
unicode = 00C1;
},
{
glyphname = Abreve;
lastChange = "2015-10-28 18:15:24 +0000";
layers = (
{
layerId = "E876E4BA-4024-4F05-97F6-A7AFE1BCFA82";
name = Bold;
paths = (
{
closed = 1;
nodes = (
"172 0 LINE",
"258 144 LINE",
"516 144 LINE",
"542 0 LINE",
"718 0 LINE",
"587 699 LINE",
"413 699 LINE",
"-15 0 LINE"
);
},
{
closed = 1;
nodes = (
"466 515 LINE",
"501 280 LINE",
"330 280 LINE"
);
},
{
closed = 1;
nodes = (
"606 742 OFFCURVE",
"686 810 OFFCURVE",
"709 915 CURVE",
"573 915 LINE",
"564 874 OFFCURVE",
"540 853 OFFCURVE",
"507 853 CURVE SMOOTH",
"473 853 OFFCURVE",
"460 874 OFFCURVE",
"469 915 CURVE",
"344 915 LINE",
"321 810 OFFCURVE",
"372 742 OFFCURVE",
"489 742 CURVE SMOOTH"
);
}
);
width = 783;
}
);
leftKerningGroup = A;
note = Abreve;
rightKerningGroup = A;
unicode = 0102;
},
{
glyphname = Abreveacute;
lastChange = "2015-10-28 18:15:24 +0000";
layers = (
{
layerId = "E876E4BA-4024-4F05-97F6-A7AFE1BCFA82";
name = Bold;
paths = (
{
closed = 1;
nodes = (
"172 0 LINE",
"258 144 LINE",
"516 144 LINE",
"542 0 LINE",
"718 0 LINE",
"587 699 LINE",
"413 699 LINE",
"-15 0 LINE"
);
},
{
closed = 1;
nodes = (
"466 515 LINE",
"501 280 LINE",
"330 280 LINE"
);
},
{
closed = 1;
nodes = (
"614 742 OFFCURVE",
"694 798 OFFCURVE",
"714 892 CURVE",
"599 892 LINE",
"591 854 OFFCURVE",
"568 838 OFFCURVE",
"530 838 CURVE SMOOTH",
"492 838 OFFCURVE",
"476 854 OFFCURVE",
"484 892 CURVE",
"369 892 LINE",
"349 798 OFFCURVE",
"406 742 OFFCURVE",
"510 742 CURVE SMOOTH"
);
},
{
closed = 1;
nodes = (
"609 914 LINE",
"705 1041 LINE",
"562 1041 LINE",
"485 914 LINE"
);
}
);
width = 783;
}
);
leftKerningGroup = A;
note = Abreveacute;
rightKerningGroup = A;
unicode = 1EAE;
},
{
glyphname = Abrevedotbelow;
lastChange = "2015-10-28 18:15:24 +0000";
layers = (
{
layerId = "E876E4BA-4024-4F05-97F6-A7AFE1BCFA82";
name = Bold;
paths = (
{
closed = 1;
nodes = (
"172 0 LINE",
"258 144 LINE",
"516 144 LINE",
"542 0 LINE",
"718 0 LINE",
"587 699 LINE",
"413 699 LINE",
"-15 0 LINE"
);
},
{
closed = 1;
nodes = (
"353 -200 OFFCURVE",
"393 -166 OFFCURVE",
"402 -123 CURVE SMOOTH",
"411 -80 OFFCURVE",
"385 -46 OFFCURVE",
"344 -46 CURVE SMOOTH",
"302 -46 OFFCURVE",
"258 -80 OFFCURVE",
"249 -123 CURVE SMOOTH",
"240 -166 OFFCURVE",
"269 -200 OFFCURVE",
"311 -200 CURVE SMOOTH"
);
},
{
closed = 1;
nodes = (
"466 515 LINE",
"501 280 LINE",
"330 280 LINE"
);
},
{
closed = 1;
nodes = (
"606 742 OFFCURVE",
"686 810 OFFCURVE",
"709 915 CURVE",
"573 915 LINE",
"564 874 OFFCURVE",
"540 853 OFFCURVE",
"507 853 CURVE SMOOTH",
"473 853 OFFCURVE",
"460 874 OFFCURVE",
"469 915 CURVE",
"344 915 LINE",
"321 810 OFFCURVE",
"372 742 OFFCURVE",
"489 742 CURVE SMOOTH"
);
}
);
width = 783;
}
);
leftKerningGroup = A;
note = Abrevedotbelow;
rightKerningGroup = A;
unicode = 1EB6;
},
{
glyphname = Abrevegrave;
lastChange = "2015-10-28 18:15:23 +0000";
layers = (
{
layerId = "E876E4BA-4024-4F05-97F6-A7AFE1BCFA82";
name = Bold;
paths = (
{
closed = 1;
nodes = (
"172 0 LINE",
"258 144 LINE",
"516 144 LINE",
"542 0 LINE",
"718 0 LINE",
"587 699 LINE",
"413 699 LINE",
"-15 0 LINE"
);
},
{
closed = 1;
nodes = (
"466 515 LINE",
"501 280 LINE",
"330 280 LINE"
);
},
{
closed = 1;
nodes = (
"614 742 OFFCURVE",
"694 798 OFFCURVE",
"714 892 CURVE",
"600 892 LINE",
"592 854 OFFCURVE",
"568 838 OFFCURVE",
"530 838 CURVE SMOOTH",
"492 838 OFFCURVE",
"477 854 OFFCURVE",
"485 892 CURVE",
"369 892 LINE",
"349 798 OFFCURVE",
"406 742 OFFCURVE",
"510 742 CURVE SMOOTH"
);
},
{
closed = 1;
nodes = (
"607 914 LINE",
"584 1041 LINE",
"440 1041 LINE",
"483 914 LINE"
);
}
);
width = 783;
}
);
leftKerningGroup = A;
note = Abrevegrave;
rightKerningGroup = A;
unicode = 1EB0;
},
{
glyphname = Abrevehookabove;
lastChange = "2015-10-28 18:15:24 +0000";
layers = (
{
layerId = "E876E4BA-4024-4F05-97F6-A7AFE1BCFA82";
name = Bold;
paths = (
{
closed = 1;
nodes = (
"172 0 LINE",
"258 144 LINE",
"516 144 LINE",
"542 0 LINE",
"718 0 LINE",
"587 699 LINE",
"413 699 LINE",
"-15 0 LINE"
);
},
{
closed = 1;
nodes = (
"466 515 LINE",
"501 280 LINE",
"330 280 LINE"
);
},
{
closed = 1;
nodes = (
"614 742 OFFCURVE",
"694 798 OFFCURVE",
"714 892 CURVE",
"600 892 LINE",
"592 854 OFFCURVE",
"568 838 OFFCURVE",
"530 838 CURVE SMOOTH",
"492 838 OFFCURVE",
"477 854 OFFCURVE",
"485 892 CURVE",
"369 892 LINE",
"349 798 OFFCURVE",
"406 742 OFFCURVE",
"510 742 CURVE SMOOTH"
);
},
{
closed = 1;
nodes = (
"602 902 LINE",
"606 921 LINE",
"649 930 OFFCURVE",
"673 953 OFFCURVE",
"681 990 CURVE SMOOTH",
"690 1034 OFFCURVE",
"661 1063 OFFCURVE",
"588 1063 CURVE SMOOTH",
"561 1063 OFFCURVE",
"523 1058 OFFCURVE",
"500 1051 CURVE",
"488 992 LINE",
"496 996 OFFCURVE",
"513 999 OFFCURVE",
"525 999 CURVE SMOOTH",
"552 999 OFFCURVE",
"564 993 OFFCURVE",
"561 976 CURVE",
"556 956 OFFCURVE",
"536 950 OFFCURVE",
"504 950 CURVE",
"494 902 LINE"
);
}
);
width = 783;
}
);
leftKerningGroup = A;
note = Abrevehookabove;
rightKerningGroup = A;
unicode = 1EB2;
},
{
glyphname = Abrevetilde;
lastChange = "2015-10-28 18:15:23 +0000";
layers = (
{
layerId = "E876E4BA-4024-4F05-97F6-A7AFE1BCFA82";
name = Bold;
paths = (
{
closed = 1;
nodes = (
"172 0 LINE",
"258 144 LINE",
"516 144 LINE",
"542 0 LINE",
"718 0 LINE",
"587 699 LINE",
"413 699 LINE",
"-15 0 LINE"
);
},
{
closed = 1;
nodes = (
"466 515 LINE",
"501 280 LINE",
"330 280 LINE"
);
},
{
closed = 1;
nodes = (
"614 742 OFFCURVE",
"694 798 OFFCURVE",
"714 892 CURVE",
"600 892 LINE",
"592 854 OFFCURVE",
"568 838 OFFCURVE",
"530 838 CURVE SMOOTH",
"492 838 OFFCURVE",
"477 854 OFFCURVE",
"485 892 CURVE",
"369 892 LINE",
"349 798 OFFCURVE",
"406 742 OFFCURVE",
"510 742 CURVE SMOOTH"
);
},
{
closed = 1;
nodes = (
"663 922 OFFCURVE",
"693 932 OFFCURVE",
"717 955 CURVE",
"739 1057 LINE",
"709 1028 OFFCURVE",
"679 1016 OFFCURVE",
"648 1016 CURVE SMOOTH",
"597 1016 OFFCURVE",
"550 1058 OFFCURVE",
"497 1058 CURVE SMOOTH",
"461 1058 OFFCURVE",
"431 1048 OFFCURVE",
"407 1024 CURVE",
"385 923 LINE",
"415 952 OFFCURVE",
"445 964 OFFCURVE",
"477 964 CURVE SMOOTH",
"527 964 OFFCURVE",
"571 922 OFFCURVE",
"628 922 CURVE SMOOTH"
);
}
);
width = 783;
}
);
leftKerningGroup = A;
note = Abrevetilde;
rightKerningGroup = A;
unicode = 1EB4;
},
{
glyphname = Acaron;
lastChange = "2015-10-28 18:15:23 +0000";
layers = (
{
layerId = "E876E4BA-4024-4F05-97F6-A7AFE1BCFA82";
name = Bold;
paths = (
{
closed = 1;
nodes = (
"172 0 LINE",
"258 144 LINE",
"516 144 LINE",
"542 0 LINE",
"718 0 LINE",
"587 699 LINE",
"413 699 LINE",
"-15 0 LINE"
);
},
{
closed = 1;
nodes = (
"466 515 LINE",
"501 280 LINE",
"330 280 LINE"
);
},
{
closed = 1;
nodes = (
"568 742 LINE",
"762 923 LINE",
"583 923 LINE",
"505 838 LINE",
"463 923 LINE",
"294 923 LINE",
"411 742 LINE"
);
}
);
width = 783;
}
);
leftKerningGroup = A;
note = Acaron;
rightKerningGroup = A;
unicode = 01CD;
},
{
glyphname = Acircumflex;
lastChange = "2015-10-28 18:15:24 +0000";
layers = (
{
layerId = "E876E4BA-4024-4F05-97F6-A7AFE1BCFA82";
name = Bold;
paths = (
{
closed = 1;
nodes = (
"172 0 LINE",
"258 144 LINE",
"516 144 LINE",
"542 0 LINE",
"718 0 LINE",
"587 699 LINE",
"413 699 LINE",
"-15 0 LINE"
);
},
{
closed = 1;
nodes = (
"466 515 LINE",
"501 280 LINE",
"330 280 LINE"
);
},
{
closed = 1;
nodes = (
"435 742 LINE",
"513 827 LINE",
"555 742 LINE",
"724 742 LINE",
"606 923 LINE",
"449 923 LINE",
"256 742 LINE"
);
}
);
width = 783;
}
);
leftKerningGroup = A;
note = Acircumflex;
rightKerningGroup = A;
unicode = 00C2;
},
{
glyphname = Acircumflexacute;
lastChange = "2015-10-28 18:15:23 +0000";
layers = (
{
layerId = "E876E4BA-4024-4F05-97F6-A7AFE1BCFA82";
name = Bold;
paths = (
{
closed = 1;
nodes = (
"172 0 LINE",
"258 144 LINE",
"516 144 LINE",
"542 0 LINE",
"718 0 LINE",
"587 699 LINE",
"413 699 LINE",
"-15 0 LINE"
);
},
{
closed = 1;
nodes = (
"466 515 LINE",
"501 280 LINE",
"330 280 LINE"
);
},
{
closed = 1;
nodes = (
"457 742 LINE",
"530 809 LINE",
"573 742 LINE",
"728 742 LINE",
"611 899 LINE",
"487 899 LINE",
"301 742 LINE"
);
},
{
closed = 1;
nodes = (
"808 858 LINE",
"919 997 LINE",
"757 997 LINE",
"668 858 LINE"
);
}
);
width = 781;
}
);
leftKerningGroup = A;
note = Acircumflexacute;
rightKerningGroup = A;
unicode = 1EA4;
},
{
glyphname = Acircumflexdotbelow;
lastChange = "2015-10-28 18:15:24 +0000";
layers = (
{
layerId = "E876E4BA-4024-4F05-97F6-A7AFE1BCFA82";
name = Bold;
paths = (
{
closed = 1;
nodes = (
"172 0 LINE",
"258 144 LINE",
"516 144 LINE",
"542 0 LINE",
"718 0 LINE",
"587 699 LINE",
"413 699 LINE",
"-15 0 LINE"
);
},
{
closed = 1;
nodes = (
"353 -200 OFFCURVE",
"393 -166 OFFCURVE",
"402 -123 CURVE SMOOTH",
"411 -80 OFFCURVE",
"385 -46 OFFCURVE",
"344 -46 CURVE SMOOTH",
"302 -46 OFFCURVE",
"258 -80 OFFCURVE",
"249 -123 CURVE SMOOTH",
"240 -166 OFFCURVE",
"269 -200 OFFCURVE",
"311 -200 CURVE SMOOTH"
);
},
{
closed = 1;
nodes = (
"466 515 LINE",
"501 280 LINE",
"330 280 LINE"
);
},
{
closed = 1;
nodes = (
"435 742 LINE",
"513 827 LINE",
"555 742 LINE",
"724 742 LINE",
"606 923 LINE",
"449 923 LINE",
"256 742 LINE"
);
}
);
width = 783;
}
);
leftKerningGroup = A;
note = Acircumflexdotbelow;
rightKerningGroup = A;
unicode = 1EAC;
},
{
glyphname = Acircumflexgrave;
lastChange = "2015-10-28 18:15:24 +0000";
layers = (
{
layerId = "E876E4BA-4024-4F05-97F6-A7AFE1BCFA82";
name = Bold;
paths = (
{
closed = 1;
nodes = (
"165 0 LINE",
"251 144 LINE",
"509 144 LINE",
"535 0 LINE",
"711 0 LINE",
"580 699 LINE",
"406 699 LINE",
"-22 0 LINE"
);
},
{
closed = 1;
nodes = (
"459 515 LINE",
"494 280 LINE",
"323 280 LINE"
);
},
{
closed = 1;
nodes = (
"403 858 LINE",
"374 997 LINE",
"212 997 LINE",
"263 858 LINE"
);
},
{
closed = 1;
nodes = (
"449 742 LINE",
"522 809 LINE",
"565 742 LINE",
"720 742 LINE",
"602 899 LINE",
"479 899 LINE",
"293 742 LINE"
);
}
);
width = 776;
}
);
leftKerningGroup = A;
note = Acircumflexgrave;
rightKerningGroup = A;
unicode = 1EA6;
},
{
glyphname = Acircumflexhookabove;
lastChange = "2015-10-28 18:15:23 +0000";
layers = (
{
layerId = "E876E4BA-4024-4F05-97F6-A7AFE1BCFA82";
name = Bold;
paths = (
{
closed = 1;
nodes = (
"172 0 LINE",
"258 144 LINE",
"516 144 LINE",
"542 0 LINE",
"718 0 LINE",
"587 699 LINE",
"413 699 LINE",
"-15 0 LINE"
);
},
{
closed = 1;
nodes = (
"466 515 LINE",
"501 280 LINE",
"330 280 LINE"
);
},
{
closed = 1;
nodes = (
"449 742 LINE",
"522 809 LINE",
"565 742 LINE",
"720 742 LINE",
"603 899 LINE",
"479 899 LINE",
"293 742 LINE"
);
},
{
closed = 1;
nodes = (
"769 847 LINE",
"774 872 LINE",
"814 881 OFFCURVE",
"842 904 OFFCURVE",
"849 937 CURVE SMOOTH",
"858 981 OFFCURVE",
"827 1011 OFFCURVE",
"757 1011 CURVE SMOOTH",
"730 1011 OFFCURVE",
"690 1005 OFFCURVE",
"668 999 CURVE",
"656 940 LINE",
"665 944 OFFCURVE",
"682 947 OFFCURVE",
"694 947 CURVE SMOOTH",
"721 947 OFFCURVE",
"732 940 OFFCURVE",
"729 924 CURVE SMOOTH",
"725 904 OFFCURVE",
"705 898 OFFCURVE",
"672 898 CURVE",
"661 847 LINE"
);
}
);
width = 783;
}
);
leftKerningGroup = A;
note = Acircumflexhookabove;
rightKerningGroup = A;
unicode = 1EA8;
},
{
glyphname = Acircumflextilde;
lastChange = "2015-10-28 18:15:23 +0000";
layers = (
{
layerId = "E876E4BA-4024-4F05-97F6-A7AFE1BCFA82";
name = Bold;
paths = (
{
closed = 1;
nodes = (
"172 0 LINE",
"258 144 LINE",
"516 144 LINE",
"542 0 LINE",
"718 0 LINE",
"587 699 LINE",
"413 699 LINE",
"-15 0 LINE"
);
},
{
closed = 1;
nodes = (
"466 515 LINE",
"501 280 LINE",
"330 280 LINE"
);
},
{
closed = 1;
nodes = (
"451 742 LINE",
"524 809 LINE",
"567 742 LINE",
"722 742 LINE",
"605 899 LINE",
"481 899 LINE",
"295 742 LINE"
);
},
{
closed = 1;
nodes = (
"667 910 OFFCURVE",
"697 920 OFFCURVE",
"721 943 CURVE",
"743 1045 LINE",
"714 1016 OFFCURVE",
"683 1004 OFFCURVE",
"652 1004 CURVE SMOOTH",
"602 1004 OFFCURVE",
"554 1046 OFFCURVE",
"502 1046 CURVE SMOOTH",
"466 1046 OFFCURVE",
"436 1036 OFFCURVE",
"412 1012 CURVE",
"390 911 LINE",
"420 940 OFFCURVE",
"450 952 OFFCURVE",
"482 952 CURVE SMOOTH",
"531 952 OFFCURVE",
"576 910 OFFCURVE",
"632 910 CURVE SMOOTH"
);
}
);
width = 783;
}
);
leftKerningGroup = A;
note = Acircumflextilde;
rightKerningGroup = A;
unicode = 1EAA;
},
{
glyphname = Adieresis;
lastChange = "2015-10-28 18:15:24 +0000";
layers = (
{
layerId = "E876E4BA-4024-4F05-97F6-A7AFE1BCFA82";
name = Bold;
paths = (
{
closed = 1;
nodes = (
"172 0 LINE",
"258 144 LINE",
"516 144 LINE",
"542 0 LINE",
"718 0 LINE",
"587 699 LINE",
"413 699 LINE",
"-15 0 LINE"
);
},
{
closed = 1;
nodes = (
"466 515 LINE",
"501 280 LINE",
"330 280 LINE"
);
},
{
closed = 1;
nodes = (
"414 742 OFFCURVE",
"455 775 OFFCURVE",
"464 818 CURVE SMOOTH",
"473 861 OFFCURVE",
"446 896 OFFCURVE",
"404 896 CURVE SMOOTH",
"363 896 OFFCURVE",
"320 861 OFFCURVE",
"311 818 CURVE SMOOTH",
"302 775 OFFCURVE",
"331 742 OFFCURVE",
"372 742 CURVE SMOOTH"
);
},
{
closed = 1;
nodes = (
"649 742 OFFCURVE",
"691 775 OFFCURVE",
"700 818 CURVE SMOOTH",
"709 861 OFFCURVE",
"681 896 OFFCURVE",
"640 896 CURVE SMOOTH",
"598 896 OFFCURVE",
"555 861 OFFCURVE",
"546 818 CURVE SMOOTH",
"537 775 OFFCURVE",
"566 742 OFFCURVE",
"608 742 CURVE SMOOTH"
);
}
);
width = 783;
}
);
leftKerningGroup = A;
note = Adieresis;
rightKerningGroup = A;
unicode = 00C4;
},
{
glyphname = Adotbelow;
lastChange = "2015-10-28 18:15:24 +0000";
layers = (
{
layerId = "E876E4BA-4024-4F05-97F6-A7AFE1BCFA82";
name = Bold;
paths = (
{
closed = 1;
nodes = (
"172 0 LINE",
"258 144 LINE",
"516 144 LINE",
"542 0 LINE",
"718 0 LINE",
"587 699 LINE",
"413 699 LINE",
"-15 0 LINE"
);
},
{
closed = 1;
nodes = (
"353 -200 OFFCURVE",
"393 -166 OFFCURVE",
"402 -123 CURVE SMOOTH",
"411 -80 OFFCURVE",
"385 -46 OFFCURVE",
"344 -46 CURVE SMOOTH",
"302 -46 OFFCURVE",
"258 -80 OFFCURVE",
"249 -123 CURVE SMOOTH",
"240 -166 OFFCURVE",
"269 -200 OFFCURVE",
"311 -200 CURVE SMOOTH"
);
},
{
closed = 1;
nodes = (
"466 515 LINE",
"501 280 LINE",
"330 280 LINE"
);
}
);
width = 783;
}
);
leftKerningGroup = A;
note = Adotbelow;
rightKerningGroup = A;
unicode = 1EA0;
},
{
glyphname = Agrave;
lastChange = "2015-10-28 18:15:23 +0000";
layers = (
{
layerId = "E876E4BA-4024-4F05-97F6-A7AFE1BCFA82";
name = Bold;
paths = (
{
closed = 1;
nodes = (
"172 0 LINE",
"258 144 LINE",
"516 144 LINE",
"542 0 LINE",
"718 0 LINE",
"587 699 LINE",
"413 699 LINE",
"-15 0 LINE"
);
},
{
closed = 1;
nodes = (
"466 515 LINE",
"501 280 LINE",
"330 280 LINE"
);
},
{
closed = 1;
nodes = (
"574 742 LINE",
"543 920 LINE",
"358 920 LINE",
"411 742 LINE"
);
}
);
width = 783;
}
);
leftKerningGroup = A;
note = Agrave;
rightKerningGroup = A;
unicode = 00C0;
},
{
glyphname = Ahookabove;
lastChange = "2015-10-28 18:15:24 +0000";
layers = (
{
layerId = "E876E4BA-4024-4F05-97F6-A7AFE1BCFA82";
name = Bold;
paths = (
{
closed = 1;
nodes = (
"172 0 LINE",
"258 144 LINE",
"516 144 LINE",
"542 0 LINE",
"718 0 LINE",
"587 699 LINE",
"413 699 LINE",
"-15 0 LINE"
);
},
{
closed = 1;
nodes = (
"466 515 LINE",
"501 280 LINE",
"330 280 LINE"
);
},
{
closed = 1;
nodes = (
"569 742 LINE",
"574 767 LINE",
"633 781 OFFCURVE",
"674 821 OFFCURVE",
"684 869 CURVE SMOOTH",
"697 932 OFFCURVE",
"654 975 OFFCURVE",
"548 975 CURVE SMOOTH",
"508 975 OFFCURVE",
"456 968 OFFCURVE",
"425 959 CURVE",
"407 875 LINE",
"421 881 OFFCURVE",
"450 885 OFFCURVE",
"466 885 CURVE SMOOTH",
"508 885 OFFCURVE",
"523 873 OFFCURVE",
"518 852 CURVE",
"512 821 OFFCURVE",
"478 812 OFFCURVE",
"430 812 CURVE",
"415 742 LINE"
);
}
);
width = 783;
}
);
leftKerningGroup = A;
note = Ahookabove;
rightKerningGroup = A;
unicode = 1EA2;
},
{
glyphname = Amacron;
lastChange = "2015-10-28 18:15:24 +0000";
layers = (
{
layerId = "E876E4BA-4024-4F05-97F6-A7AFE1BCFA82";
name = Bold;
paths = (
{
closed = 1;
nodes = (
"172 0 LINE",
"258 144 LINE",
"516 144 LINE",
"542 0 LINE",
"718 0 LINE",
"587 699 LINE",
"413 699 LINE",
"-15 0 LINE"
);
},
{
closed = 1;
nodes = (
"466 515 LINE",
"501 280 LINE",
"330 280 LINE"
);
},
{
closed = 1;
nodes = (
"664 752 LINE",
"688 865 LINE",
"344 865 LINE",
"320 752 LINE"
);
}
);
width = 783;
}
);
leftKerningGroup = A;
note = Amacron;
rightKerningGroup = A;
unicode = 0100;
},
{
glyphname = Aogonek;
lastChange = "2015-10-28 18:15:24 +0000";
layers = (
{
layerId = "E876E4BA-4024-4F05-97F6-A7AFE1BCFA82";
name = Bold;
paths = (
{
closed = 1;
nodes = (
"611 -216 OFFCURVE",
"650 -210 OFFCURVE",
"678 -201 CURVE",
"698 -105 LINE",
"681 -113 OFFCURVE",
"664 -117 OFFCURVE",
"648 -117 CURVE SMOOTH",
"627 -117 OFFCURVE",
"616 -104 OFFCURVE",
"621 -84 CURVE",
"627 -55 OFFCURVE",
"657 -29 OFFCURVE",
"718 0 CURVE",
"587 699 LINE",
"413 699 LINE",
"-15 0 LINE",
"172 0 LINE",
"258 144 LINE",
"516 144 LINE",
"542 0 LINE",
"511 -25 OFFCURVE",
"473 -66 OFFCURVE",
"462 -119 CURVE SMOOTH",
"448 -187 OFFCURVE",
"500 -216 OFFCURVE",
"573 -216 CURVE SMOOTH"
);
},
{
closed = 1;
nodes = (
"466 515 LINE",
"501 280 LINE",
"330 280 LINE"
);
}
);
width = 783;
}
);
leftKerningGroup = A;
note = Aogonek;
rightKerningGroup = A;
unicode = 0104;
},
{
glyphname = Aring;
lastChange = "2015-10-28 18:15:24 +0000";
layers = (
{
layerId = "E876E4BA-4024-4F05-97F6-A7AFE1BCFA82";
name = Bold;
paths = (
{
closed = 1;
nodes = (
"172 0 LINE",
"258 144 LINE",
"516 144 LINE",
"542 0 LINE",
"718 0 LINE",
"592 673 LINE",
"624 698 OFFCURVE",
"649 734 OFFCURVE",
"658 774 CURVE SMOOTH",
"674 852 OFFCURVE",
"624 914 OFFCURVE",
"546 914 CURVE SMOOTH",
"468 914 OFFCURVE",
"391 852 OFFCURVE",
"375 774 CURVE SMOOTH",
"367 734 OFFCURVE",
"376 698 OFFCURVE",
"397 673 CURVE",
"-15 0 LINE"
);
},
{
closed = 1;
nodes = (
"466 515 LINE",
"501 280 LINE",
"330 280 LINE"
);
},
{
closed = 1;
nodes = (
"475 728 OFFCURVE",
"465 749 OFFCURVE",
"470 774 CURVE SMOOTH",
"475 800 OFFCURVE",
"501 820 OFFCURVE",
"526 820 CURVE SMOOTH",
"557 820 OFFCURVE",
"567 800 OFFCURVE",
"562 774 CURVE SMOOTH",
"557 749 OFFCURVE",
"532 728 OFFCURVE",
"506 728 CURVE SMOOTH"
);
}
);
width = 783;
}
);
leftKerningGroup = A;
note = Aring;
rightKerningGroup = A;
unicode = 00C5;
},
{
glyphname = Aringacute;
lastChange = "2015-10-28 18:15:24 +0000";
layers = (
{
layerId = "E876E4BA-4024-4F05-97F6-A7AFE1BCFA82";
name = Bold;
paths = (
{
closed = 1;
nodes = (
"172 0 LINE",
"258 144 LINE",
"516 144 LINE",
"542 0 LINE",
"718 0 LINE",
"592 673 LINE",
"624 698 OFFCURVE",
"649 734 OFFCURVE",
"658 774 CURVE SMOOTH",
"674 852 OFFCURVE",
"624 914 OFFCURVE",
"546 914 CURVE SMOOTH",
"468 914 OFFCURVE",
"391 852 OFFCURVE",
"375 774 CURVE SMOOTH",
"367 734 OFFCURVE",
"376 698 OFFCURVE",
"397 673 CURVE",
"-15 0 LINE"
);
},
{
closed = 1;
nodes = (
"466 515 LINE",
"501 280 LINE",
"330 280 LINE"
);
},
{
closed = 1;
nodes = (
"475 728 OFFCURVE",
"465 749 OFFCURVE",
"470 774 CURVE SMOOTH",
"475 800 OFFCURVE",
"501 820 OFFCURVE",
"526 820 CURVE SMOOTH",
"557 820 OFFCURVE",
"567 800 OFFCURVE",
"562 774 CURVE SMOOTH",
"557 749 OFFCURVE",
"532 728 OFFCURVE",
"506 728 CURVE SMOOTH"
);
},
{
closed = 1;
nodes = (
"624 929 LINE",
"753 1071 LINE",
"568 1071 LINE",
"461 929 LINE"
);
}
);
width = 783;
}
);
leftKerningGroup = A;
note = Aringacute;
rightKerningGroup = A;
unicode = 01FA;
},
{
glyphname = Atilde;
lastChange = "2015-10-28 18:15:24 +0000";
layers = (
{
layerId = "E876E4BA-4024-4F05-97F6-A7AFE1BCFA82";
name = Bold;
paths = (
{
closed = 1;
nodes = (
"172 0 LINE",
"258 144 LINE",
"516 144 LINE",
"542 0 LINE",
"718 0 LINE",
"587 699 LINE",
"413 699 LINE",
"-15 0 LINE"
);
},
{
closed = 1;
nodes = (
"466 515 LINE",
"501 280 LINE",
"330 280 LINE"
);
},
{
closed = 1;
nodes = (
"325 779 OFFCURVE",
"363 793 OFFCURVE",
"402 793 CURVE SMOOTH",
"466 793 OFFCURVE",
"516 743 OFFCURVE",
"589 743 CURVE SMOOTH",
"633 743 OFFCURVE",
"671 754 OFFCURVE",
"701 784 CURVE",
"728 912 LINE",
"691 876 OFFCURVE",
"654 862 OFFCURVE",
"614 862 CURVE SMOOTH",
"549 862 OFFCURVE",
"495 912 OFFCURVE",
"427 912 CURVE SMOOTH",
"384 912 OFFCURVE",
"345 900 OFFCURVE",
"314 870 CURVE",
"286 742 LINE"
);
}
);
width = 783;
}
);
leftKerningGroup = A;
note = Atilde;
rightKerningGroup = A;
unicode = 00C3;
},
{
glyphname = AE;
lastChange = "2015-10-28 18:15:23 +0000";
layers = (
{
layerId = "E876E4BA-4024-4F05-97F6-A7AFE1BCFA82";
name = Bold;
paths = (
{
closed = 1;
nodes = (
"175 0 LINE",
"269 145 LINE",
"414 145 LINE",
"384 0 LINE",
"852 0 LINE",
"883 149 LINE",
"593 149 LINE",
"621 280 LINE",
"826 280 LINE",
"856 419 LINE",
"651 419 LINE",
"678 550 LINE",
"968 550 LINE",
"1000 699 LINE",
"439 699 LINE",
"-15 0 LINE"
);
},
{
closed = 1;
nodes = (
"500 550 LINE",
"501 550 LINE",
"444 284 LINE",
"349 284 LINE"
);
}
);
width = 907;
}
);
leftKerningGroup = A;
note = AE;
rightKerningGroup = E;
unicode = 00C6;
},
{
glyphname = AEacute;
lastChange = "2015-10-28 18:15:24 +0000";
layers = (
{
layerId = "E876E4BA-4024-4F05-97F6-A7AFE1BCFA82";
name = Bold;
paths = (
{
closed = 1;
nodes = (
"175 0 LINE",
"269 145 LINE",
"414 145 LINE",
"384 0 LINE",
"852 0 LINE",
"883 149 LINE",
"593 149 LINE",
"621 280 LINE",
"826 280 LINE",
"856 419 LINE",
"651 419 LINE",
"678 550 LINE",
"968 550 LINE",
"1000 699 LINE",
"439 699 LINE",
"-15 0 LINE"
);
},
{
closed = 1;
nodes = (
"500 550 LINE",
"501 550 LINE",
"444 284 LINE",
"349 284 LINE"
);
},
{
closed = 1;
nodes = (
"719 742 LINE",
"848 920 LINE",
"663 920 LINE",
"556 742 LINE"
);
}
);
width = 917;
}
);
leftKerningGroup = A;
note = AEacute;
rightKerningGroup = E;
unicode = 01FC;
},
{
glyphname = B;
lastChange = "2015-10-28 18:15:24 +0000";
layers = (
{
layerId = "E876E4BA-4024-4F05-97F6-A7AFE1BCFA82";
name = Bold;
paths = (
{
closed = 1;
nodes = (
"376 0 LINE SMOOTH",
"513 0 OFFCURVE",
"615 77 OFFCURVE",
"643 209 CURVE SMOOTH",
"660 290 OFFCURVE",
"638 337 OFFCURVE",
"577 364 CURVE",
"632 394 OFFCURVE",
"672 447 OFFCURVE",
"684 506 CURVE SMOOTH",
"711 633 OFFCURVE",
"624 699 OFFCURVE",
"507 699 CURVE SMOOTH",
"153 699 LINE",
"5 0 LINE"
);
},
{
closed = 1;
nodes = (
"243 291 LINE",
"388 291 LINE SMOOTH",
"449 291 OFFCURVE",
"476 268 OFFCURVE",
"464 209 CURVE SMOOTH",
"451 149 OFFCURVE",
"416 132 OFFCURVE",
"359 132 CURVE SMOOTH",
"210 132 LINE"
);
},
{
closed = 1;
nodes = (
"302 567 LINE",
"437 567 LINE SMOOTH",
"488 567 OFFCURVE",
"515 553 OFFCURVE",
"503 495 CURVE SMOOTH",
"491 442 OFFCURVE",
"456 422 OFFCURVE",
"409 422 CURVE SMOOTH",
"271 422 LINE"
);
}
);
width = 664;
}
);
note = B;
unicode = 0042;
},
{
glyphname = C;
lastChange = "2015-10-28 18:15:24 +0000";
layers = (
{
layerId = "E876E4BA-4024-4F05-97F6-A7AFE1BCFA82";
name = Bold;
paths = (
{
closed = 1;
nodes = (
"462 -15 OFFCURVE",
"552 5 OFFCURVE",
"627 50 CURVE",
"663 217 LINE",
"586 167 OFFCURVE",
"508 146 OFFCURVE",
"413 146 CURVE SMOOTH",
"240 146 OFFCURVE",
"214 223 OFFCURVE",
"241 349 CURVE SMOOTH",
"267 474 OFFCURVE",
"361 551 OFFCURVE",
"499 551 CURVE SMOOTH",
"592 551 OFFCURVE",
"662 532 OFFCURVE",
"711 484 CURVE",
"747 652 LINE",
"689 695 OFFCURVE",
"616 714 OFFCURVE",
"517 714 CURVE SMOOTH",
"275 714 OFFCURVE",
"107 574 OFFCURVE",
"59 349 CURVE SMOOTH",
"11 124 OFFCURVE",
"163 -15 OFFCURVE",
"362 -15 CURVE SMOOTH"
);
}
);
width = 682;
}
);
leftKerningGroup = C;
note = C;
rightKerningGroup = C;
unicode = 0043;
},
{
glyphname = Cacute;
lastChange = "2015-10-28 18:15:24 +0000";
layers = (
{
layerId = "E876E4BA-4024-4F05-97F6-A7AFE1BCFA82";
name = Bold;
paths = (
{
closed = 1;
nodes = (
"462 -15 OFFCURVE",
"552 5 OFFCURVE",
"627 50 CURVE",
"663 217 LINE",
"586 167 OFFCURVE",
"508 146 OFFCURVE",
"413 146 CURVE SMOOTH",
"240 146 OFFCURVE",
"214 223 OFFCURVE",
"241 349 CURVE SMOOTH",
"267 474 OFFCURVE",
"361 551 OFFCURVE",
"499 551 CURVE SMOOTH",
"592 551 OFFCURVE",
"662 532 OFFCURVE",
"711 484 CURVE",
"747 652 LINE",
"689 695 OFFCURVE",
"616 714 OFFCURVE",
"517 714 CURVE SMOOTH",
"275 714 OFFCURVE",
"107 574 OFFCURVE",
"59 349 CURVE SMOOTH",
"11 124 OFFCURVE",
"163 -15 OFFCURVE",
"362 -15 CURVE SMOOTH"
);
},
{
closed = 1;
nodes = (
"583 742 LINE",
"712 920 LINE",
"527 920 LINE",
"420 742 LINE"
);
}
);
width = 682;
}
);
leftKerningGroup = C;
note = Cacute;
rightKerningGroup = C;
unicode = 0106;
},
{
glyphname = Ccaron;
lastChange = "2015-10-28 18:15:23 +0000";
layers = (
{
layerId = "E876E4BA-4024-4F05-97F6-A7AFE1BCFA82";
name = Bold;
paths = (
{
closed = 1;
nodes = (
"462 -15 OFFCURVE",
"552 5 OFFCURVE",
"627 50 CURVE",
"663 217 LINE",
"586 167 OFFCURVE",
"508 146 OFFCURVE",
"413 146 CURVE SMOOTH",
"240 146 OFFCURVE",
"214 223 OFFCURVE",
"241 349 CURVE SMOOTH",
"267 474 OFFCURVE",
"361 551 OFFCURVE",
"499 551 CURVE SMOOTH",
"592 551 OFFCURVE",
"662 532 OFFCURVE",
"711 484 CURVE",
"747 652 LINE",
"689 695 OFFCURVE",
"616 714 OFFCURVE",
"517 714 CURVE SMOOTH",
"275 714 OFFCURVE",
"107 574 OFFCURVE",
"59 349 CURVE SMOOTH",
"11 124 OFFCURVE",
"163 -15 OFFCURVE",
"362 -15 CURVE SMOOTH"
);
},
{
closed = 1;
nodes = (
"579 742 LINE",
"773 923 LINE",
"594 923 LINE",
"516 838 LINE",
"474 923 LINE",
"305 923 LINE",
"422 742 LINE"
);
}
);
width = 669;
}
);
leftKerningGroup = C;
note = Ccaron;
rightKerningGroup = C;
unicode = 010C;
},
{
glyphname = Ccedilla;
lastChange = "2015-10-28 18:15:23 +0000";
layers = (
{
layerId = "E876E4BA-4024-4F05-97F6-A7AFE1BCFA82";
name = Bold;
paths = (
{
closed = 1;
nodes = (
"415 -248 OFFCURVE",
"488 -215 OFFCURVE",
"502 -141 CURVE SMOOTH",
"511 -92 OFFCURVE",
"483 -56 OFFCURVE",
"433 -46 CURVE",
"456 -8 LINE",
"519 0 OFFCURVE",
"576 19 OFFCURVE",
"627 50 CURVE",
"663 217 LINE",
"586 167 OFFCURVE",
"508 146 OFFCURVE",
"413 146 CURVE SMOOTH",
"240 146 OFFCURVE",
"214 223 OFFCURVE",
"241 349 CURVE SMOOTH",
"267 474 OFFCURVE",
"361 551 OFFCURVE",
"499 551 CURVE SMOOTH",
"592 551 OFFCURVE",
"662 532 OFFCURVE",
"711 484 CURVE",
"747 652 LINE",
"689 695 OFFCURVE",
"616 714 OFFCURVE",
"517 714 CURVE SMOOTH",
"275 714 OFFCURVE",
"107 574 OFFCURVE",
"59 349 CURVE SMOOTH",
"16 148 OFFCURVE",
"133 15 OFFCURVE",
"300 -10 CURVE",
"254 -89 LINE",
"329 -89 OFFCURVE",
"348 -105 OFFCURVE",
"343 -129 CURVE SMOOTH",
"339 -150 OFFCURVE",
"319 -163 OFFCURVE",
"286 -163 CURVE SMOOTH",
"263 -163 OFFCURVE",
"241 -157 OFFCURVE",
"228 -149 CURVE",
"210 -234 LINE",
"229 -242 OFFCURVE",
"274 -248 OFFCURVE",
"320 -248 CURVE SMOOTH"
);
}
);
width = 682;
}
);
leftKerningGroup = C;
note = Ccedilla;
rightKerningGroup = C;
unicode = 00C7;
},
{
glyphname = Ccircumflex;
lastChange = "2015-10-28 18:15:24 +0000";
layers = (
{
layerId = "E876E4BA-4024-4F05-97F6-A7AFE1BCFA82";
name = Bold;
paths = (
{
closed = 1;
nodes = (
"462 -15 OFFCURVE",
"552 5 OFFCURVE",
"627 50 CURVE",
"663 217 LINE",
"586 167 OFFCURVE",
"508 146 OFFCURVE",
"413 146 CURVE SMOOTH",
"240 146 OFFCURVE",
"214 223 OFFCURVE",
"241 349 CURVE SMOOTH",
"267 474 OFFCURVE",
"361 551 OFFCURVE",
"499 551 CURVE SMOOTH",
"592 551 OFFCURVE",
"662 532 OFFCURVE",
"711 484 CURVE",
"747 652 LINE",
"689 695 OFFCURVE",
"616 714 OFFCURVE",
"517 714 CURVE SMOOTH",
"275 714 OFFCURVE",
"107 574 OFFCURVE",
"59 349 CURVE SMOOTH",
"11 124 OFFCURVE",
"163 -15 OFFCURVE",
"362 -15 CURVE SMOOTH"
);
},
{
closed = 1;
nodes = (
"434 742 LINE",
"512 827 LINE",
"554 742 LINE",
"723 742 LINE",
"605 923 LINE",
"448 923 LINE",
"255 742 LINE"
);
}
);
width = 682;
}
);
leftKerningGroup = C;
note = Ccircumflex;
rightKerningGroup = C;
unicode = 0108;
},
{
glyphname = Cdotaccent;
lastChange = "2015-10-28 18:15:24 +0000";
layers = (
{
layerId = "E876E4BA-4024-4F05-97F6-A7AFE1BCFA82";
name = Bold;
paths = (
{
closed = 1;
nodes = (
"462 -15 OFFCURVE",
"552 5 OFFCURVE",
"627 50 CURVE",
"663 217 LINE",
"586 167 OFFCURVE",
"508 146 OFFCURVE",
"413 146 CURVE SMOOTH",
"240 146 OFFCURVE",
"214 223 OFFCURVE",
"241 349 CURVE SMOOTH",
"267 474 OFFCURVE",
"361 551 OFFCURVE",
"499 551 CURVE SMOOTH",
"592 551 OFFCURVE",
"662 532 OFFCURVE",
"711 484 CURVE",
"747 652 LINE",
"689 695 OFFCURVE",
"616 714 OFFCURVE",
"517 714 CURVE SMOOTH",
"275 714 OFFCURVE",
"107 574 OFFCURVE",
"59 349 CURVE SMOOTH",
"11 124 OFFCURVE",
"163 -15 OFFCURVE",
"362 -15 CURVE SMOOTH"
);
},
{
closed = 1;
nodes = (
"552 752 OFFCURVE",
"593 785 OFFCURVE",
"602 828 CURVE SMOOTH",
"611 871 OFFCURVE",
"584 906 OFFCURVE",
"542 906 CURVE SMOOTH",
"500 906 OFFCURVE",
"457 871 OFFCURVE",
"448 828 CURVE SMOOTH",
"439 785 OFFCURVE",
"468 752 OFFCURVE",
"510 752 CURVE SMOOTH"
);
}
);
width = 682;
}
);
leftKerningGroup = C;
note = Cdotaccent;
rightKerningGroup = C;
unicode = 010A;
},
{
glyphname = D;
lastChange = "2015-10-28 18:15:23 +0000";
layers = (
{
layerId = "E876E4BA-4024-4F05-97F6-A7AFE1BCFA82";
name = Bold;
paths = (
{
closed = 1;
nodes = (
"268 0 LINE SMOOTH",
"503 0 OFFCURVE",
"664 115 OFFCURVE",
"711 353 CURVE SMOOTH",
"751 557 OFFCURVE",
"616 699 OFFCURVE",
"404 699 CURVE SMOOTH",
"153 699 LINE",
"5 0 LINE"
);
},
{
closed = 1;
nodes = (
"298 550 LINE",
"388 550 LINE SMOOTH",
"532 550 OFFCURVE",
"552 464 OFFCURVE",
"529 353 CURVE SMOOTH",
"502 230 OFFCURVE",
"421 149 OFFCURVE",
"297 149 CURVE SMOOTH",
"213 149 LINE"
);
}
);
width = 701;
}
);
note = D;
rightKerningGroup = D;
unicode = 0044;
},
{
glyphname = Eth;
lastChange = "2015-10-28 18:15:24 +0000";
layers = (
{
layerId = "E876E4BA-4024-4F05-97F6-A7AFE1BCFA82";
name = Bold;
paths = (
{
closed = 1;
nodes = (
"309 0 LINE SMOOTH",
"544 0 OFFCURVE",
"705 115 OFFCURVE",
"752 353 CURVE SMOOTH",
"792 557 OFFCURVE",
"657 699 OFFCURVE",
"445 699 CURVE SMOOTH",
"194 699 LINE",
"134 415 LINE",
"83 415 LINE",
"55 283 LINE",
"106 283 LINE",
"46 0 LINE"
);
},
{
closed = 1;
nodes = (
"282 283 LINE",
"426 283 LINE",
"454 415 LINE",
"310 415 LINE",
"339 550 LINE",
"429 550 LINE SMOOTH",
"573 550 OFFCURVE",
"593 464 OFFCURVE",
"570 353 CURVE SMOOTH",
"543 230 OFFCURVE",
"462 149 OFFCURVE",
"338 149 CURVE SMOOTH",
"254 149 LINE"
);
}
);
width = 742;
}
);
note = Eth;
rightKerningGroup = D;
unicode = 00D0;
},
{
glyphname = Dcaron;
lastChange = "2015-10-28 18:15:24 +0000";
layers = (
{
layerId = "E876E4BA-4024-4F05-97F6-A7AFE1BCFA82";
name = Bold;
paths = (
{
closed = 1;
nodes = (
"268 0 LINE SMOOTH",
"503 0 OFFCURVE",
"664 115 OFFCURVE",
"711 353 CURVE SMOOTH",
"751 557 OFFCURVE",
"616 699 OFFCURVE",
"404 699 CURVE SMOOTH",
"153 699 LINE",
"5 0 LINE"
);
},
{
closed = 1;
nodes = (
"298 550 LINE",
"388 550 LINE SMOOTH",
"532 550 OFFCURVE",
"552 464 OFFCURVE",
"529 353 CURVE SMOOTH",
"502 230 OFFCURVE",
"421 149 OFFCURVE",
"297 149 CURVE SMOOTH",
"213 149 LINE"
);
},
{
closed = 1;
nodes = (
"500 742 LINE",
"694 923 LINE",
"515 923 LINE",
"437 838 LINE",
"395 923 LINE",
"226 923 LINE",
"343 742 LINE"
);
}
);
width = 701;
}
);
note = Dcaron;
rightKerningGroup = D;
unicode = 010E;
},
{
glyphname = Dcroat;
lastChange = "2015-10-28 18:15:24 +0000";
layers = (
{
layerId = "E876E4BA-4024-4F05-97F6-A7AFE1BCFA82";
name = Bold;
paths = (
{
closed = 1;
nodes = (
"309 0 LINE SMOOTH",
"544 0 OFFCURVE",
"705 115 OFFCURVE",
"752 353 CURVE SMOOTH",
"792 557 OFFCURVE",
"657 699 OFFCURVE",
"445 699 CURVE SMOOTH",
"194 699 LINE",
"134 415 LINE",
"83 415 LINE",
"55 283 LINE",
"106 283 LINE",
"46 0 LINE"
);
},
{
closed = 1;
nodes = (
"282 283 LINE",
"426 283 LINE",
"454 415 LINE",
"310 415 LINE",
"339 550 LINE",
"429 550 LINE SMOOTH",
"573 550 OFFCURVE",
"593 464 OFFCURVE",
"570 353 CURVE SMOOTH",
"543 230 OFFCURVE",
"462 149 OFFCURVE",
"338 149 CURVE SMOOTH",
"254 149 LINE"
);
}
);
width = 742;
}
);
note = Dcroat;
rightKerningGroup = D;
unicode = 0110;
},
{
glyphname = Ddotbelow;
lastChange = "2015-10-28 18:15:24 +0000";
layers = (
{
layerId = "E876E4BA-4024-4F05-97F6-A7AFE1BCFA82";
name = Bold;
paths = (
{
closed = 1;
nodes = (
"268 0 LINE SMOOTH",
"503 0 OFFCURVE",
"664 115 OFFCURVE",
"711 353 CURVE SMOOTH",
"751 557 OFFCURVE",
"616 699 OFFCURVE",
"404 699 CURVE SMOOTH",
"153 699 LINE",
"5 0 LINE"
);
},
{
closed = 1;
nodes = (
"268 -200 OFFCURVE",
"308 -166 OFFCURVE",
"317 -123 CURVE SMOOTH",
"326 -80 OFFCURVE",
"300 -46 OFFCURVE",
"259 -46 CURVE SMOOTH",
"217 -46 OFFCURVE",
"173 -80 OFFCURVE",
"164 -123 CURVE SMOOTH",
"155 -166 OFFCURVE",
"184 -200 OFFCURVE",
"226 -200 CURVE SMOOTH"
);
},
{
closed = 1;
nodes = (
"298 550 LINE",
"388 550 LINE SMOOTH",
"532 550 OFFCURVE",
"552 464 OFFCURVE",
"529 353 CURVE SMOOTH",
"502 230 OFFCURVE",
"421 149 OFFCURVE",
"297 149 CURVE SMOOTH",
"213 149 LINE"
);
}
);
width = 701;
}
);
note = Ddotbelow;
rightKerningGroup = D;
unicode = 1E0C;
},
{
glyphname = Dlinebelow;
lastChange = "2015-10-28 18:15:24 +0000";
layers = (
{
layerId = "E876E4BA-4024-4F05-97F6-A7AFE1BCFA82";
name = Bold;
paths = (
{
closed = 1;
nodes = (
"268 0 LINE SMOOTH",
"503 0 OFFCURVE",
"664 115 OFFCURVE",
"711 353 CURVE SMOOTH",
"751 557 OFFCURVE",
"616 699 OFFCURVE",
"404 699 CURVE SMOOTH",
"153 699 LINE",
"5 0 LINE"
);
},
{
closed = 1;
nodes = (
"409 -172 LINE",
"433 -59 LINE",
"89 -59 LINE",
"65 -172 LINE"
);
},
{
closed = 1;
nodes = (
"298 550 LINE",
"388 550 LINE SMOOTH",
"532 550 OFFCURVE",
"552 464 OFFCURVE",
"529 353 CURVE SMOOTH",
"502 230 OFFCURVE",
"421 149 OFFCURVE",
"297 149 CURVE SMOOTH",
"213 149 LINE"
);
}
);
width = 701;
}
);
note = Dlinebelow;
rightKerningGroup = D;
unicode = 1E0E;
},
{
glyphname = E;
lastChange = "2015-10-28 18:15:24 +0000";
layers = (
{
layerId = "E876E4BA-4024-4F05-97F6-A7AFE1BCFA82";
name = Bold;
paths = (
{
closed = 1;
nodes = (
"501 0 LINE",
"532 149 LINE",
"213 149 LINE",
"241 280 LINE",
"474 280 LINE",
"504 419 LINE",
"271 419 LINE",
"298 550 LINE",
"617 550 LINE",
"649 699 LINE",
"153 699 LINE",
"5 0 LINE"
);
}
);
width = 556;
}
);
leftKerningGroup = E;
note = E;
rightKerningGroup = E;
unicode = 0045;
},
{
glyphname = Eacute;
lastChange = "2015-10-28 18:15:24 +0000";
layers = (
{
layerId = "E876E4BA-4024-4F05-97F6-A7AFE1BCFA82";
name = Bold;
paths = (
{
closed = 1;
nodes = (
"501 0 LINE",
"532 149 LINE",
"213 149 LINE",
"241 280 LINE",
"474 280 LINE",
"504 419 LINE",
"271 419 LINE",
"298 550 LINE",
"617 550 LINE",
"649 699 LINE",
"153 699 LINE",
"5 0 LINE"
);
},
{
closed = 1;
nodes = (
"464 734 LINE",
"593 912 LINE",
"408 912 LINE",
"301 734 LINE"
);
}
);
width = 556;
}
);
leftKerningGroup = E;
note = Eacute;
rightKerningGroup = E;
unicode = 00C9;
},
{
glyphname = Ebreve;
lastChange = "2015-10-28 18:15:24 +0000";
layers = (
{
layerId = "E876E4BA-4024-4F05-97F6-A7AFE1BCFA82";
name = Bold;
paths = (
{
closed = 1;
nodes = (
"501 0 LINE",
"532 149 LINE",
"213 149 LINE",
"241 280 LINE",
"474 280 LINE",
"504 419 LINE",
"271 419 LINE",
"298 550 LINE",
"617 550 LINE",
"649 699 LINE",
"153 699 LINE",
"5 0 LINE"
);
},
{
closed = 1;
nodes = (
"522 742 OFFCURVE",
"602 810 OFFCURVE",
"625 915 CURVE",
"489 915 LINE",
"480 874 OFFCURVE",
"456 853 OFFCURVE",
"423 853 CURVE SMOOTH",
"389 853 OFFCURVE",
"376 874 OFFCURVE",
"385 915 CURVE",
"260 915 LINE",
"237 810 OFFCURVE",
"288 742 OFFCURVE",
"405 742 CURVE SMOOTH"
);
}
);
width = 566;
}
);
leftKerningGroup = E;
note = Ebreve;
rightKerningGroup = E;
unicode = 0114;
},
{
glyphname = Ecaron;
lastChange = "2015-10-28 18:15:24 +0000";
layers = (
{
layerId = "E876E4BA-4024-4F05-97F6-A7AFE1BCFA82";
name = Bold;
paths = (
{
closed = 1;
nodes = (
"501 0 LINE",
"532 149 LINE",
"213 149 LINE",
"241 280 LINE",
"474 280 LINE",
"504 419 LINE",
"271 419 LINE",
"298 550 LINE",
"617 550 LINE",
"649 699 LINE",
"153 699 LINE",
"5 0 LINE"
);
},
{
closed = 1;
nodes = (
"481 742 LINE",
"675 923 LINE",
"496 923 LINE",
"418 838 LINE",
"376 923 LINE",
"207 923 LINE",
"324 742 LINE"
);
}
);
width = 566;
}
);
leftKerningGroup = E;
note = Ecaron;
rightKerningGroup = E;
unicode = 011A;
},
{
glyphname = Ecircumflex;
lastChange = "2015-10-28 18:15:24 +0000";
layers = (
{
layerId = "E876E4BA-4024-4F05-97F6-A7AFE1BCFA82";
name = Bold;
paths = (
{
closed = 1;
nodes = (
"501 0 LINE",
"532 149 LINE",
"213 149 LINE",
"241 280 LINE",
"474 280 LINE",
"504 419 LINE",
"271 419 LINE",
"298 550 LINE",
"617 550 LINE",
"649 699 LINE",
"153 699 LINE",
"5 0 LINE"
);
},
{
closed = 1;
nodes = (
"334 742 LINE",
"412 827 LINE",
"454 742 LINE",
"623 742 LINE",
"505 923 LINE",
"348 923 LINE",
"155 742 LINE"
);
}
);
width = 551;
}
);
leftKerningGroup = E;
note = Ecircumflex;
rightKerningGroup = E;
unicode = 00CA;
},
{
glyphname = Ecircumflexacute;
lastChange = "2015-10-28 18:15:24 +0000";
layers = (
{
layerId = "E876E4BA-4024-4F05-97F6-A7AFE1BCFA82";
name = Bold;
paths = (
{
closed = 1;
nodes = (
"501 0 LINE",
"532 149 LINE",
"213 149 LINE",
"241 280 LINE",
"474 280 LINE",
"504 419 LINE",
"271 419 LINE",
"298 550 LINE",
"617 550 LINE",
"649 699 LINE",
"153 699 LINE",
"5 0 LINE"
);
},
{
closed = 1;
nodes = (
"356 742 LINE",
"429 809 LINE",
"472 742 LINE",
"627 742 LINE",
"510 899 LINE",
"386 899 LINE",
"200 742 LINE"
);
},
{
closed = 1;
nodes = (
"707 858 LINE",
"818 997 LINE",
"656 997 LINE",
"567 858 LINE"
);
}
);
width = 513;
}
);
leftKerningGroup = E;
note = Ecircumflexacute;
rightKerningGroup = E;
unicode = 1EBE;
},
{
glyphname = Ecircumflexdotbelow;
lastChange = "2015-10-28 18:15:24 +0000";
layers = (
{
layerId = "E876E4BA-4024-4F05-97F6-A7AFE1BCFA82";
name = Bold;
paths = (
{
closed = 1;
nodes = (
"501 0 LINE",
"532 149 LINE",
"213 149 LINE",
"241 280 LINE",
"474 280 LINE",
"504 419 LINE",
"271 419 LINE",
"298 550 LINE",
"617 550 LINE",
"649 699 LINE",
"153 699 LINE",
"5 0 LINE"
);
},
{
closed = 1;
nodes = (
"266 -200 OFFCURVE",
"306 -166 OFFCURVE",
"315 -123 CURVE SMOOTH",
"324 -80 OFFCURVE",
"298 -46 OFFCURVE",
"257 -46 CURVE SMOOTH",
"215 -46 OFFCURVE",
"171 -80 OFFCURVE",
"162 -123 CURVE SMOOTH",
"153 -166 OFFCURVE",
"182 -200 OFFCURVE",
"224 -200 CURVE SMOOTH"
);
},
{
closed = 1;
nodes = (
"347 742 LINE",
"425 827 LINE",
"467 742 LINE",
"636 742 LINE",
"518 923 LINE",
"361 923 LINE",
"168 742 LINE"
);
}
);
width = 557;
}
);
leftKerningGroup = E;
note = Ecircumflexdotbelow;
rightKerningGroup = E;
unicode = 1EC6;
},
{
glyphname = Ecircumflexgrave;
lastChange = "2015-10-28 18:15:24 +0000";
layers = (
{
layerId = "E876E4BA-4024-4F05-97F6-A7AFE1BCFA82";
name = Bold;
paths = (
{
closed = 1;
nodes = (
"445 0 LINE",
"476 149 LINE",
"157 149 LINE",
"185 280 LINE",
"418 280 LINE",
"448 419 LINE",
"215 419 LINE",
"242 550 LINE",
"561 550 LINE",
"593 699 LINE",
"97 699 LINE",
"-51 0 LINE"
);
},
{
closed = 1;
nodes = (
"265 858 LINE",
"236 997 LINE",
"74 997 LINE",
"125 858 LINE"
);
},
{
closed = 1;
nodes = (
"311 742 LINE",
"384 809 LINE",
"427 742 LINE",
"582 742 LINE",
"464 899 LINE",
"341 899 LINE",
"155 742 LINE"
);
}
);
width = 500;
}
);
leftKerningGroup = E;
note = Ecircumflexgrave;
rightKerningGroup = E;
unicode = 1EC0;
},
{
glyphname = Ecircumflexhookabove;
lastChange = "2015-10-28 18:15:23 +0000";
layers = (
{
layerId = "E876E4BA-4024-4F05-97F6-A7AFE1BCFA82";
name = Bold;
paths = (
{
closed = 1;
nodes = (
"501 0 LINE",
"532 149 LINE",
"213 149 LINE",
"241 280 LINE",
"474 280 LINE",
"504 419 LINE",
"271 419 LINE",
"298 550 LINE",
"617 550 LINE",
"649 699 LINE",
"153 699 LINE",
"5 0 LINE"
);
},
{
closed = 1;
nodes = (
"357 742 LINE",
"430 809 LINE",
"473 742 LINE",
"628 742 LINE",
"511 899 LINE",
"387 899 LINE",
"201 742 LINE"
);
},
{
closed = 1;
nodes = (
"677 847 LINE",
"682 872 LINE",
"722 881 OFFCURVE",
"750 904 OFFCURVE",
"757 937 CURVE SMOOTH",
"766 981 OFFCURVE",
"735 1011 OFFCURVE",
"665 1011 CURVE SMOOTH",
"638 1011 OFFCURVE",
"598 1005 OFFCURVE",
"576 999 CURVE",
"564 940 LINE",
"573 944 OFFCURVE",
"590 947 OFFCURVE",
"602 947 CURVE SMOOTH",
"629 947 OFFCURVE",
"640 940 OFFCURVE",
"637 924 CURVE SMOOTH",
"633 904 OFFCURVE",
"613 898 OFFCURVE",
"580 898 CURVE",
"569 847 LINE"
);
}
);
width = 563;
}
);
leftKerningGroup = E;
note = Ecircumflexhookabove;
rightKerningGroup = E;
unicode = 1EC2;
},
{
glyphname = Ecircumflextilde;
lastChange = "2015-10-28 18:15:23 +0000";
layers = (
{
layerId = "E876E4BA-4024-4F05-97F6-A7AFE1BCFA82";
name = Bold;
paths = (
{
closed = 1;
nodes = (
"501 0 LINE",
"532 149 LINE",
"213 149 LINE",
"241 280 LINE",
"474 280 LINE",
"504 419 LINE",
"271 419 LINE",
"298 550 LINE",
"617 550 LINE",
"649 699 LINE",
"153 699 LINE",
"5 0 LINE"
);
},
{
closed = 1;
nodes = (
"362 742 LINE",
"435 809 LINE",
"478 742 LINE",
"633 742 LINE",
"516 899 LINE",
"392 899 LINE",
"206 742 LINE"
);
},
{
closed = 1;
nodes = (
"578 910 OFFCURVE",
"608 920 OFFCURVE",
"632 943 CURVE",
"654 1045 LINE",
"625 1016 OFFCURVE",
"594 1004 OFFCURVE",
"563 1004 CURVE SMOOTH",
"513 1004 OFFCURVE",
"465 1046 OFFCURVE",
"413 1046 CURVE SMOOTH",
"377 1046 OFFCURVE",
"347 1036 OFFCURVE",
"323 1012 CURVE",
"301 911 LINE",
"331 940 OFFCURVE",
"361 952 OFFCURVE",
"393 952 CURVE SMOOTH",
"442 952 OFFCURVE",
"487 910 OFFCURVE",
"543 910 CURVE SMOOTH"
);
}
);
width = 556;
}
);
leftKerningGroup = E;
note = Ecircumflextilde;
rightKerningGroup = E;
unicode = 1EC4;
},
{
glyphname = Edieresis;
lastChange = "2015-10-28 18:15:24 +0000";
layers = (
{
layerId = "E876E4BA-4024-4F05-97F6-A7AFE1BCFA82";
name = Bold;
paths = (
{
closed = 1;
nodes = (
"501 0 LINE",
"532 149 LINE",
"213 149 LINE",
"241 280 LINE",
"474 280 LINE",
"504 419 LINE",
"271 419 LINE",
"298 550 LINE",
"617 550 LINE",
"649 699 LINE",
"153 699 LINE",
"5 0 LINE"
);
},
{
closed = 1;
nodes = (
"321 752 OFFCURVE",
"362 785 OFFCURVE",
"371 828 CURVE SMOOTH",
"380 871 OFFCURVE",
"353 906 OFFCURVE",
"311 906 CURVE SMOOTH",
"270 906 OFFCURVE",
"227 871 OFFCURVE",
"218 828 CURVE SMOOTH",
"209 785 OFFCURVE",
"238 752 OFFCURVE",
"279 752 CURVE SMOOTH"
);
},
{
closed = 1;
nodes = (
"556 752 OFFCURVE",
"598 785 OFFCURVE",
"607 828 CURVE SMOOTH",
"616 871 OFFCURVE",
"588 906 OFFCURVE",
"547 906 CURVE SMOOTH",
"505 906 OFFCURVE",
"462 871 OFFCURVE",
"453 828 CURVE SMOOTH",
"444 785 OFFCURVE",
"473 752 OFFCURVE",
"515 752 CURVE SMOOTH"
);
}
);
width = 566;
}
);
leftKerningGroup = E;
note = Edieresis;
rightKerningGroup = E;
unicode = 00CB;
},
{
glyphname = Edotaccent;
lastChange = "2015-10-28 18:15:24 +0000";
layers = (
{
layerId = "E876E4BA-4024-4F05-97F6-A7AFE1BCFA82";
name = Bold;
paths = (
{
closed = 1;
nodes = (
"501 0 LINE",
"532 149 LINE",
"213 149 LINE",
"241 280 LINE",
"474 280 LINE",
"504 419 LINE",
"271 419 LINE",
"298 550 LINE",
"617 550 LINE",
"649 699 LINE",
"153 699 LINE",
"5 0 LINE"
);
},
{
closed = 1;
nodes = (
"448 752 OFFCURVE",
"489 785 OFFCURVE",
"498 828 CURVE SMOOTH",
"507 871 OFFCURVE",
"480 906 OFFCURVE",
"438 906 CURVE SMOOTH",
"396 906 OFFCURVE",
"353 871 OFFCURVE",
"344 828 CURVE SMOOTH",
"335 785 OFFCURVE",
"364 752 OFFCURVE",
"406 752 CURVE SMOOTH"
);
}
);
width = 566;
}
);
leftKerningGroup = E;
note = Edotaccent;
rightKerningGroup = E;
unicode = 0116;
},
{
glyphname = Edotbelow;
lastChange = "2015-10-28 18:15:24 +0000";
layers = (
{
layerId = "E876E4BA-4024-4F05-97F6-A7AFE1BCFA82";
name = Bold;
paths = (
{
closed = 1;
nodes = (
"501 0 LINE",
"532 149 LINE",
"213 149 LINE",
"241 280 LINE",
"474 280 LINE",
"504 419 LINE",
"271 419 LINE",
"298 550 LINE",
"617 550 LINE",
"649 699 LINE",
"153 699 LINE",
"5 0 LINE"
);
},
{
closed = 1;
nodes = (
"256 -200 OFFCURVE",
"296 -166 OFFCURVE",
"305 -123 CURVE SMOOTH",
"314 -80 OFFCURVE",
"288 -46 OFFCURVE",
"247 -46 CURVE SMOOTH",
"205 -46 OFFCURVE",
"161 -80 OFFCURVE",
"152 -123 CURVE SMOOTH",
"143 -166 OFFCURVE",
"172 -200 OFFCURVE",
"214 -200 CURVE SMOOTH"
);
}
);
width = 566;
}
);
leftKerningGroup = E;
note = Edotbelow;
rightKerningGroup = E;
unicode = 1EB8;
},
{
glyphname = Egrave;
lastChange = "2015-10-28 18:15:24 +0000";
layers = (
{
layerId = "E876E4BA-4024-4F05-97F6-A7AFE1BCFA82";
name = Bold;
paths = (
{
closed = 1;
nodes = (
"501 0 LINE",
"532 149 LINE",
"213 149 LINE",
"241 280 LINE",
"474 280 LINE",
"504 419 LINE",
"271 419 LINE",
"298 550 LINE",
"617 550 LINE",
"649 699 LINE",
"153 699 LINE",
"5 0 LINE"
);
},
{
closed = 1;
nodes = (
"483 742 LINE",
"452 920 LINE",
"267 920 LINE",
"320 742 LINE"
);
}
);
width = 566;
}
);
leftKerningGroup = E;
note = Egrave;
rightKerningGroup = E;
unicode = 00C8;
},
{
glyphname = Ehookabove;
lastChange = "2015-10-28 18:15:23 +0000";
layers = (
{
layerId = "E876E4BA-4024-4F05-97F6-A7AFE1BCFA82";
name = Bold;
paths = (
{
closed = 1;
nodes = (
"501 0 LINE",
"532 149 LINE",
"213 149 LINE",
"241 280 LINE",
"474 280 LINE",
"504 419 LINE",
"271 419 LINE",
"298 550 LINE",
"617 550 LINE",
"649 699 LINE",
"153 699 LINE",
"5 0 LINE"
);
},
{
closed = 1;
nodes = (
"466 742 LINE",
"471 767 LINE",
"530 781 OFFCURVE",
"571 821 OFFCURVE",
"581 869 CURVE SMOOTH",
"594 932 OFFCURVE",
"551 975 OFFCURVE",
"445 975 CURVE SMOOTH",
"405 975 OFFCURVE",
"353 968 OFFCURVE",
"322 959 CURVE",
"304 875 LINE",
"318 881 OFFCURVE",
"347 885 OFFCURVE",
"363 885 CURVE SMOOTH",
"405 885 OFFCURVE",
"420 873 OFFCURVE",
"415 852 CURVE",
"409 821 OFFCURVE",
"375 812 OFFCURVE",
"327 812 CURVE",
"312 742 LINE"
);
}
);
width = 566;
}
);
leftKerningGroup = E;
note = Ehookabove;
rightKerningGroup = E;
unicode = 1EBA;
},
{
glyphname = Emacron;
lastChange = "2015-10-28 18:15:24 +0000";
layers = (
{
layerId = "E876E4BA-4024-4F05-97F6-A7AFE1BCFA82";
name = Bold;
paths = (
{
closed = 1;
nodes = (
"501 0 LINE",
"532 149 LINE",
"213 149 LINE",
"241 280 LINE",
"474 280 LINE",
"504 419 LINE",
"271 419 LINE",
"298 550 LINE",
"617 550 LINE",
"649 699 LINE",
"153 699 LINE",
"5 0 LINE"
);
},
{
closed = 1;
nodes = (
"582 752 LINE",
"606 865 LINE",
"262 865 LINE",
"238 752 LINE"
);
}
);
width = 566;
}
);
leftKerningGroup = E;
note = Emacron;
rightKerningGroup = E;
unicode = 0112;
},
{
glyphname = Eogonek;
lastChange = "2015-10-28 18:15:24 +0000";
layers = (
{
layerId = "E876E4BA-4024-4F05-97F6-A7AFE1BCFA82";
name = Bold;
paths = (
{
closed = 1;
nodes = (
"501 0 LINE",
"532 149 LINE",
"213 149 LINE",
"241 280 LINE",
"474 280 LINE",
"504 419 LINE",
"271 419 LINE",
"298 550 LINE",
"617 550 LINE",
"649 699 LINE",
"153 699 LINE",
"5 0 LINE"
);
},
{
closed = 1;
nodes = (
"400 -216 OFFCURVE",
"439 -210 OFFCURVE",
"467 -201 CURVE",
"487 -105 LINE",
"470 -113 OFFCURVE",
"453 -117 OFFCURVE",
"437 -117 CURVE SMOOTH",
"416 -117 OFFCURVE",
"405 -104 OFFCURVE",
"410 -84 CURVE",
"416 -55 OFFCURVE",
"446 -29 OFFCURVE",
"507 0 CURVE",
"347 0 LINE",
"300 -25 OFFCURVE",
"262 -66 OFFCURVE",
"251 -119 CURVE SMOOTH",
"237 -187 OFFCURVE",
"289 -216 OFFCURVE",
"362 -216 CURVE SMOOTH"
);
}
);
width = 575;
}
);
leftKerningGroup = E;
note = Eogonek;
rightKerningGroup = E;
unicode = 0118;
},
{
glyphname = Etilde;
lastChange = "2015-10-28 18:15:24 +0000";
layers = (
{
layerId = "E876E4BA-4024-4F05-97F6-A7AFE1BCFA82";
name = Bold;
paths = (
{
closed = 1;
nodes = (
"501 0 LINE",
"532 149 LINE",
"213 149 LINE",
"241 280 LINE",
"474 280 LINE",
"504 419 LINE",
"271 419 LINE",
"298 550 LINE",
"617 550 LINE",
"649 699 LINE",
"153 699 LINE",
"5 0 LINE"
);
},
{
closed = 1;
nodes = (
"242 779 OFFCURVE",
"280 793 OFFCURVE",
"319 793 CURVE SMOOTH",
"383 793 OFFCURVE",
"433 743 OFFCURVE",
"506 743 CURVE SMOOTH",
"550 743 OFFCURVE",
"588 754 OFFCURVE",
"618 784 CURVE",
"645 912 LINE",
"608 876 OFFCURVE",
"571 862 OFFCURVE",
"531 862 CURVE SMOOTH",
"466 862 OFFCURVE",
"412 912 OFFCURVE",
"344 912 CURVE SMOOTH",
"301 912 OFFCURVE",
"262 900 OFFCURVE",
"231 870 CURVE",
"203 742 LINE"
);
}
);
width = 566;
}
);
leftKerningGroup = E;
note = Etilde;
rightKerningGroup = E;
unicode = 1EBC;
},
{
glyphname = F;
lastChange = "2015-10-28 18:15:24 +0000";
layers = (
{
layerId = "E876E4BA-4024-4F05-97F6-A7AFE1BCFA82";
name = Bold;
paths = (
{
closed = 1;
nodes = (
"182 0 LINE",
"241 280 LINE",
"474 280 LINE",
"504 419 LINE",
"271 419 LINE",
"298 550 LINE",
"617 550 LINE",
"649 699 LINE",
"153 699 LINE",
"5 0 LINE"
);
}
);
width = 546;
}
);
note = F;
unicode = 0046;
},
{
glyphname = G;
lastChange = "2015-10-28 18:15:24 +0000";
layers = (
{
layerId = "E876E4BA-4024-4F05-97F6-A7AFE1BCFA82";
name = Bold;
paths = (
{
closed = 1;
nodes = (
"472 -15 OFFCURVE",
"562 8 OFFCURVE",
"640 50 CURVE",
"714 398 LINE",
"439 398 LINE",
"413 274 LINE",
"520 274 LINE",
"496 162 LINE",
"469 150 OFFCURVE",
"440 144 OFFCURVE",
"403 144 CURVE SMOOTH",
"254 144 OFFCURVE",
"214 223 OFFCURVE",
"241 349 CURVE SMOOTH",
"267 474 OFFCURVE",
"359 551 OFFCURVE",
"499 551 CURVE SMOOTH",
"592 551 OFFCURVE",
"662 533 OFFCURVE",
"712 485 CURVE",
"747 653 LINE",
"689 696 OFFCURVE",
"618 714 OFFCURVE",
"517 714 CURVE SMOOTH",
"287 714 OFFCURVE",
"107 574 OFFCURVE",
"59 349 CURVE SMOOTH",
"11 124 OFFCURVE",
"153 -15 OFFCURVE",
"362 -15 CURVE SMOOTH"
);
}
);
width = 695;
}
);
leftKerningGroup = C;
note = G;
unicode = 0047;
},
{
glyphname = Gbreve;
lastChange = "2015-10-28 18:15:24 +0000";
layers = (
{
layerId = "E876E4BA-4024-4F05-97F6-A7AFE1BCFA82";
name = Bold;
paths = (
{
closed = 1;
nodes = (
"472 -15 OFFCURVE",
"562 8 OFFCURVE",
"640 50 CURVE",
"714 398 LINE",
"439 398 LINE",
"413 274 LINE",
"520 274 LINE",
"496 162 LINE",
"469 150 OFFCURVE",
"440 144 OFFCURVE",
"403 144 CURVE SMOOTH",
"254 144 OFFCURVE",
"214 223 OFFCURVE",
"241 349 CURVE SMOOTH",
"267 474 OFFCURVE",
"359 551 OFFCURVE",
"499 551 CURVE SMOOTH",
"592 551 OFFCURVE",
"662 533 OFFCURVE",
"712 485 CURVE",
"747 653 LINE",
"689 696 OFFCURVE",
"618 714 OFFCURVE",
"517 714 CURVE SMOOTH",
"287 714 OFFCURVE",
"107 574 OFFCURVE",
"59 349 CURVE SMOOTH",
"11 124 OFFCURVE",
"153 -15 OFFCURVE",
"362 -15 CURVE SMOOTH"
);
},
{
closed = 1;
nodes = (
"628 742 OFFCURVE",
"708 810 OFFCURVE",
"731 915 CURVE",
"595 915 LINE",
"586 874 OFFCURVE",
"562 853 OFFCURVE",
"529 853 CURVE SMOOTH",
"495 853 OFFCURVE",
"482 874 OFFCURVE",
"491 915 CURVE",
"366 915 LINE",
"343 810 OFFCURVE",
"394 742 OFFCURVE",
"511 742 CURVE SMOOTH"
);
}
);
width = 695;
}
);
leftKerningGroup = C;
note = Gbreve;
unicode = 011E;
},
{
glyphname = Gcaron;
lastChange = "2015-10-28 18:15:24 +0000";
layers = (
{
layerId = "E876E4BA-4024-4F05-97F6-A7AFE1BCFA82";
name = Bold;
paths = (
{
closed = 1;
nodes = (
"472 -15 OFFCURVE",
"562 8 OFFCURVE",
"640 50 CURVE",
"714 398 LINE",
"439 398 LINE",
"413 274 LINE",
"520 274 LINE",
"496 162 LINE",
"469 150 OFFCURVE",
"440 144 OFFCURVE",
"403 144 CURVE SMOOTH",
"254 144 OFFCURVE",
"214 223 OFFCURVE",
"241 349 CURVE SMOOTH",
"267 474 OFFCURVE",
"359 551 OFFCURVE",
"499 551 CURVE SMOOTH",
"592 551 OFFCURVE",
"662 533 OFFCURVE",
"712 485 CURVE",
"747 653 LINE",
"689 696 OFFCURVE",
"618 714 OFFCURVE",
"517 714 CURVE SMOOTH",
"287 714 OFFCURVE",
"107 574 OFFCURVE",
"59 349 CURVE SMOOTH",
"11 124 OFFCURVE",
"153 -15 OFFCURVE",
"362 -15 CURVE SMOOTH"
);
},
{
closed = 1;
nodes = (
"545 742 LINE",
"739 923 LINE",
"560 923 LINE",
"482 838 LINE",
"440 923 LINE",
"271 923 LINE",
"388 742 LINE"
);
}
);
width = 695;
}
);
leftKerningGroup = C;
note = Gcaron;
unicode = 01E6;
},
{
glyphname = Gcircumflex;
lastChange = "2015-10-28 18:15:23 +0000";
layers = (
{
layerId = "E876E4BA-4024-4F05-97F6-A7AFE1BCFA82";
name = Bold;
paths = (
{
closed = 1;
nodes = (
"472 -15 OFFCURVE",
"562 8 OFFCURVE",
"640 50 CURVE",
"714 398 LINE",
"439 398 LINE",
"413 274 LINE",
"520 274 LINE",
"496 162 LINE",
"469 150 OFFCURVE",
"440 144 OFFCURVE",
"403 144 CURVE SMOOTH",
"254 144 OFFCURVE",
"214 223 OFFCURVE",
"241 349 CURVE SMOOTH",
"267 474 OFFCURVE",
"359 551 OFFCURVE",
"499 551 CURVE SMOOTH",
"592 551 OFFCURVE",
"662 533 OFFCURVE",
"712 485 CURVE",
"747 653 LINE",
"689 696 OFFCURVE",
"618 714 OFFCURVE",
"517 714 CURVE SMOOTH",
"287 714 OFFCURVE",
"107 574 OFFCURVE",
"59 349 CURVE SMOOTH",
"11 124 OFFCURVE",
"153 -15 OFFCURVE",
"362 -15 CURVE SMOOTH"
);
},
{
closed = 1;
nodes = (
"439 742 LINE",
"517 827 LINE",
"559 742 LINE",
"728 742 LINE",
"610 923 LINE",
"453 923 LINE",
"260 742 LINE"
);
}
);
width = 695;
}
);
leftKerningGroup = C;
note = Gcircumflex;
unicode = 011C;
},
{
glyphname = Gcommaaccent;
lastChange = "2015-10-28 18:15:24 +0000";
layers = (
{
layerId = "E876E4BA-4024-4F05-97F6-A7AFE1BCFA82";
name = Bold;
paths = (
{
closed = 1;
nodes = (
"472 -15 OFFCURVE",
"562 8 OFFCURVE",
"640 50 CURVE",
"714 398 LINE",
"439 398 LINE",
"413 274 LINE",
"520 274 LINE",
"496 162 LINE",
"469 150 OFFCURVE",
"440 144 OFFCURVE",
"403 144 CURVE SMOOTH",
"254 144 OFFCURVE",
"214 223 OFFCURVE",
"241 349 CURVE SMOOTH",
"267 474 OFFCURVE",
"359 551 OFFCURVE",
"499 551 CURVE SMOOTH",
"592 551 OFFCURVE",
"662 533 OFFCURVE",
"712 485 CURVE",
"747 653 LINE",
"689 696 OFFCURVE",
"618 714 OFFCURVE",
"517 714 CURVE SMOOTH",
"287 714 OFFCURVE",
"107 574 OFFCURVE",
"59 349 CURVE SMOOTH",
"11 124 OFFCURVE",
"153 -15 OFFCURVE",
"362 -15 CURVE SMOOTH"
);
},
{
closed = 1;
nodes = (
"312 -260 LINE",
"462 -49 LINE",
"280 -49 LINE",
"153 -260 LINE"
);
}
);
width = 695;
}
);
leftKerningGroup = C;
note = Gcommaaccent;
unicode = 0122;
},
{
glyphname = Gdotaccent;
lastChange = "2015-10-28 18:15:24 +0000";
layers = (
{
layerId = "E876E4BA-4024-4F05-97F6-A7AFE1BCFA82";
name = Bold;
paths = (
{
closed = 1;
nodes = (
"472 -15 OFFCURVE",
"562 8 OFFCURVE",
"640 50 CURVE",
"714 398 LINE",
"439 398 LINE",
"413 274 LINE",
"520 274 LINE",
"496 162 LINE",
"469 150 OFFCURVE",
"440 144 OFFCURVE",
"403 144 CURVE SMOOTH",
"254 144 OFFCURVE",
"214 223 OFFCURVE",
"241 349 CURVE SMOOTH",
"267 474 OFFCURVE",
"359 551 OFFCURVE",
"499 551 CURVE SMOOTH",
"592 551 OFFCURVE",
"662 533 OFFCURVE",
"712 485 CURVE",
"747 653 LINE",
"689 696 OFFCURVE",
"618 714 OFFCURVE",
"517 714 CURVE SMOOTH",
"287 714 OFFCURVE",
"107 574 OFFCURVE",
"59 349 CURVE SMOOTH",
"11 124 OFFCURVE",
"153 -15 OFFCURVE",
"362 -15 CURVE SMOOTH"
);
},
{
closed = 1;
nodes = (
"544 752 OFFCURVE",
"585 785 OFFCURVE",
"594 828 CURVE SMOOTH",
"603 871 OFFCURVE",
"576 906 OFFCURVE",
"534 906 CURVE SMOOTH",
"492 906 OFFCURVE",
"449 871 OFFCURVE",
"440 828 CURVE SMOOTH",
"431 785 OFFCURVE",
"460 752 OFFCURVE",
"502 752 CURVE SMOOTH"
);
}
);
width = 695;
}
);
leftKerningGroup = C;
note = Gdotaccent;
unicode = 0120;
},
{
glyphname = Gmacron;
lastChange = "2015-10-28 18:15:24 +0000";
layers = (
{
layerId = "E876E4BA-4024-4F05-97F6-A7AFE1BCFA82";
name = Bold;
paths = (
{
closed = 1;
nodes = (
"472 -15 OFFCURVE",
"562 8 OFFCURVE",
"640 50 CURVE",
"714 398 LINE",
"439 398 LINE",
"413 274 LINE",
"520 274 LINE",
"496 162 LINE",
"469 150 OFFCURVE",
"440 144 OFFCURVE",
"403 144 CURVE SMOOTH",
"254 144 OFFCURVE",
"214 223 OFFCURVE",
"241 349 CURVE SMOOTH",
"267 474 OFFCURVE",
"359 551 OFFCURVE",
"499 551 CURVE SMOOTH",
"592 551 OFFCURVE",
"662 533 OFFCURVE",
"712 485 CURVE",
"747 653 LINE",
"689 696 OFFCURVE",
"618 714 OFFCURVE",
"517 714 CURVE SMOOTH",
"287 714 OFFCURVE",
"107 574 OFFCURVE",
"59 349 CURVE SMOOTH",
"11 124 OFFCURVE",
"153 -15 OFFCURVE",
"362 -15 CURVE SMOOTH"
);
},
{
closed = 1;
nodes = (
"684 752 LINE",
"708 865 LINE",
"364 865 LINE",
"340 752 LINE"
);
}
);
width = 695;
}
);
leftKerningGroup = C;
note = Gmacron;
unicode = 1E20;
},
{
glyphname = H;
lastChange = "2015-10-28 18:15:24 +0000";
layers = (
{
layerId = "E876E4BA-4024-4F05-97F6-A7AFE1BCFA82";
name = Bold;
paths = (
{
closed = 1;
nodes = (
"182 0 LINE",
"241 282 LINE",
"515 282 LINE",
"456 0 LINE",
"633 0 LINE",
"781 699 LINE",
"604 699 LINE",
"547 429 LINE",
"273 429 LINE",
"330 699 LINE",
"153 699 LINE",
"5 0 LINE"
);
}
);
width = 718;
}
);
note = H;
unicode = 0048;
},
{
glyphname = Hbar;
lastChange = "2015-10-28 18:15:23 +0000";
layers = (
{
layerId = "E876E4BA-4024-4F05-97F6-A7AFE1BCFA82";
name = Bold;
paths = (
{
closed = 1;
nodes = (
"223 0 LINE",
"280 270 LINE",
"538 270 LINE",
"481 0 LINE",
"666 0 LINE",
"772 500 LINE",
"818 500 LINE",
"846 634 LINE",
"800 634 LINE",
"814 699 LINE",
"629 699 LINE",
"615 634 LINE",
"357 634 LINE",
"371 699 LINE",
"186 699 LINE",
"172 634 LINE",
"129 634 LINE",
"101 500 LINE",
"144 500 LINE",
"38 0 LINE"
);
},
{
closed = 1;
nodes = (
"328 500 LINE",
"586 500 LINE",
"574 441 LINE",
"316 441 LINE"
);
}
);
width = 787;
}
);
note = Hbar;
unicode = 0126;
},
{
glyphname = Hbrevebelow;
lastChange = "2015-10-28 18:15:24 +0000";
layers = (
{
layerId = "E876E4BA-4024-4F05-97F6-A7AFE1BCFA82";
name = Bold;
paths = (
{
closed = 1;
nodes = (
"182 0 LINE",
"241 282 LINE",
"515 282 LINE",
"456 0 LINE",
"633 0 LINE",
"781 699 LINE",
"604 699 LINE",
"547 429 LINE",
"273 429 LINE",
"330 699 LINE",
"153 699 LINE",
"5 0 LINE"
);
},
{
closed = 1;
nodes = (
"387 -227 OFFCURVE",
"468 -159 OFFCURVE",
"490 -54 CURVE",
"354 -54 LINE",
"345 -95 OFFCURVE",
"322 -116 OFFCURVE",
"290 -116 CURVE SMOOTH",
"256 -116 OFFCURVE",
"242 -95 OFFCURVE",
"251 -54 CURVE",
"125 -54 LINE",
"103 -159 OFFCURVE",
"154 -227 OFFCURVE",
"271 -227 CURVE SMOOTH"
);
}
);
width = 718;
}
);
note = Hbrevebelow;
unicode = 1E2A;
},
{
glyphname = Hcircumflex;
lastChange = "2015-10-28 18:15:24 +0000";
layers = (
{
layerId = "E876E4BA-4024-4F05-97F6-A7AFE1BCFA82";
name = Bold;
paths = (
{
closed = 1;
nodes = (
"182 0 LINE",
"241 282 LINE",
"515 282 LINE",
"456 0 LINE",
"633 0 LINE",
"781 699 LINE",
"604 699 LINE",
"547 429 LINE",
"273 429 LINE",
"330 699 LINE",
"153 699 LINE",
"5 0 LINE"
);
},
{
closed = 1;
nodes = (
"402 742 LINE",
"480 827 LINE",
"522 742 LINE",
"691 742 LINE",
"573 923 LINE",
"416 923 LINE",
"223 742 LINE"
);
}
);
width = 718;
}
);
note = Hcircumflex;
unicode = 0124;
},
{
glyphname = Hdotbelow;
lastChange = "2015-10-28 18:15:24 +0000";
layers = (
{
layerId = "E876E4BA-4024-4F05-97F6-A7AFE1BCFA82";
name = Bold;
paths = (
{
closed = 1;
nodes = (
"182 0 LINE",
"241 282 LINE",
"515 282 LINE",
"456 0 LINE",
"633 0 LINE",
"781 699 LINE",
"604 699 LINE",
"547 429 LINE",
"273 429 LINE",
"330 699 LINE",
"153 699 LINE",
"5 0 LINE"
);
},
{
closed = 1;
nodes = (
"320 -200 OFFCURVE",
"360 -166 OFFCURVE",
"369 -123 CURVE SMOOTH",
"378 -80 OFFCURVE",
"352 -46 OFFCURVE",
"311 -46 CURVE SMOOTH",
"269 -46 OFFCURVE",
"225 -80 OFFCURVE",
"216 -123 CURVE SMOOTH",
"207 -166 OFFCURVE",
"236 -200 OFFCURVE",
"278 -200 CURVE SMOOTH"
);
}
);
width = 718;
}
);
note = Hdotbelow;
unicode = 1E24;
},
{
glyphname = I;
lastChange = "2015-10-28 18:15:24 +0000";
layers = (
{
layerId = "E876E4BA-4024-4F05-97F6-A7AFE1BCFA82";
name = Bold;
paths = (
{
closed = 1;
nodes = (
"182 0 LINE",
"330 699 LINE",
"153 699 LINE",
"5 0 LINE"
);
}
);
width = 267;
}
);
note = I;
unicode = 0049;
},
{
glyphname = IJ;
lastChange = "2015-10-28 18:15:23 +0000";
layers = (
{
layerId = "E876E4BA-4024-4F05-97F6-A7AFE1BCFA82";
name = Bold;
paths = (
{
closed = 1;
nodes = (
"509 -15 OFFCURVE",
"592 65 OFFCURVE",
"623 209 CURVE SMOOTH",
"727 699 LINE",
"550 699 LINE",
"450 229 LINE SMOOTH",
"438 172 OFFCURVE",
"417 149 OFFCURVE",
"353 149 CURVE SMOOTH",
"323 149 OFFCURVE",
"289 154 OFFCURVE",
"270 164 CURVE",
"237 8 LINE",
"258 -5 OFFCURVE",
"320 -15 OFFCURVE",
"363 -15 CURVE SMOOTH"
);
},
{
closed = 1;
nodes = (
"182 0 LINE",
"330 699 LINE",
"153 699 LINE",
"5 0 LINE"
);
}
);
width = 659;
}
);
note = IJ;
rightKerningGroup = J;
unicode = 0132;
},
{
glyphname = Iacute;
lastChange = "2015-10-28 18:15:24 +0000";
layers = (
{
layerId = "E876E4BA-4024-4F05-97F6-A7AFE1BCFA82";
name = Bold;
paths = (
{
closed = 1;
nodes = (
"182 0 LINE",
"330 699 LINE",
"153 699 LINE",
"5 0 LINE"
);
},
{
closed = 1;
nodes = (
"310 742 LINE",
"439 920 LINE",
"254 920 LINE",
"147 742 LINE"
);
}
);
width = 267;
}
);
note = Iacute;
unicode = 00CD;
},
{
glyphname = Ibreve;
lastChange = "2015-10-28 18:15:23 +0000";
layers = (
{
layerId = "E876E4BA-4024-4F05-97F6-A7AFE1BCFA82";
name = Bold;
paths = (
{
closed = 1;
nodes = (
"182 0 LINE",
"330 699 LINE",
"153 699 LINE",
"5 0 LINE"
);
},
{
closed = 1;
nodes = (
"347 742 OFFCURVE",
"427 810 OFFCURVE",
"450 915 CURVE",
"314 915 LINE",
"305 874 OFFCURVE",
"281 853 OFFCURVE",
"248 853 CURVE SMOOTH",
"214 853 OFFCURVE",
"201 874 OFFCURVE",
"210 915 CURVE",
"85 915 LINE",
"62 810 OFFCURVE",
"113 742 OFFCURVE",
"230 742 CURVE SMOOTH"
);
}
);
width = 267;
}
);
note = Ibreve;
unicode = 012C;
},
{
glyphname = Icaron;
lastChange = "2015-10-28 18:15:24 +0000";
layers = (
{
layerId = "E876E4BA-4024-4F05-97F6-A7AFE1BCFA82";
name = Bold;
paths = (
{
closed = 1;
nodes = (
"182 0 LINE",
"330 699 LINE",
"153 699 LINE",
"5 0 LINE"
);
},
{
closed = 1;
nodes = (
"308 742 LINE",
"502 923 LINE",
"323 923 LINE",
"245 838 LINE",
"203 923 LINE",
"34 923 LINE",
"151 742 LINE"
);
}
);
width = 267;
}
);
note = Icaron;
unicode = 01CF;
},
{
glyphname = Icircumflex;
lastChange = "2015-10-28 18:15:23 +0000";
layers = (
{
layerId = "E876E4BA-4024-4F05-97F6-A7AFE1BCFA82";
name = Bold;
paths = (
{
closed = 1;
nodes = (
"182 0 LINE",
"330 699 LINE",
"153 699 LINE",
"5 0 LINE"
);
},
{
closed = 1;
nodes = (
"176 742 LINE",
"254 827 LINE",
"296 742 LINE",
"465 742 LINE",
"347 923 LINE",
"190 923 LINE",
"-3 742 LINE"
);
}
);
width = 267;
}
);
note = Icircumflex;
unicode = 00CE;
},
{
glyphname = Idieresis;
lastChange = "2015-10-28 18:15:24 +0000";
layers = (
{
layerId = "E876E4BA-4024-4F05-97F6-A7AFE1BCFA82";
name = Bold;
paths = (
{
closed = 1;
nodes = (
"182 0 LINE",
"330 699 LINE",
"153 699 LINE",
"5 0 LINE"
);
},
{
closed = 1;
nodes = (
"157 752 OFFCURVE",
"198 785 OFFCURVE",
"207 828 CURVE SMOOTH",
"216 871 OFFCURVE",
"189 906 OFFCURVE",
"147 906 CURVE SMOOTH",
"106 906 OFFCURVE",
"63 871 OFFCURVE",
"54 828 CURVE SMOOTH",
"45 785 OFFCURVE",
"74 752 OFFCURVE",
"115 752 CURVE SMOOTH"
);
},
{
closed = 1;
nodes = (
"392 752 OFFCURVE",
"434 785 OFFCURVE",
"443 828 CURVE SMOOTH",
"452 871 OFFCURVE",
"424 906 OFFCURVE",
"383 906 CURVE SMOOTH",
"341 906 OFFCURVE",
"298 871 OFFCURVE",
"289 828 CURVE SMOOTH",
"280 785 OFFCURVE",
"309 752 OFFCURVE",
"351 752 CURVE SMOOTH"
);
}
);
width = 267;
}
);
note = Idieresis;
unicode = 00CF;
},
{
glyphname = Idotaccent;
lastChange = "2015-10-28 18:15:24 +0000";
layers = (
{
layerId = "E876E4BA-4024-4F05-97F6-A7AFE1BCFA82";
name = Bold;
paths = (
{
closed = 1;
nodes = (
"182 0 LINE",
"330 699 LINE",
"153 699 LINE",
"5 0 LINE"
);
},
{
closed = 1;
nodes = (
"275 752 OFFCURVE",
"316 785 OFFCURVE",
"325 828 CURVE SMOOTH",
"334 871 OFFCURVE",
"307 906 OFFCURVE",
"265 906 CURVE SMOOTH",
"223 906 OFFCURVE",
"180 871 OFFCURVE",
"171 828 CURVE SMOOTH",
"162 785 OFFCURVE",
"191 752 OFFCURVE",
"233 752 CURVE SMOOTH"
);
}
);
width = 267;
}
);
note = Idotaccent;
unicode = 0130;
},
{
glyphname = Idotbelow;
lastChange = "2015-10-28 18:15:23 +0000";
layers = (
{
layerId = "E876E4BA-4024-4F05-97F6-A7AFE1BCFA82";
name = Bold;
paths = (
{
closed = 1;
nodes = (
"182 0 LINE",
"330 699 LINE",
"153 699 LINE",
"5 0 LINE"
);
},
{
closed = 1;
nodes = (
"94 -200 OFFCURVE",
"134 -166 OFFCURVE",
"143 -123 CURVE SMOOTH",
"152 -80 OFFCURVE",
"126 -46 OFFCURVE",
"85 -46 CURVE SMOOTH",
"43 -46 OFFCURVE",
"-1 -80 OFFCURVE",
"-10 -123 CURVE SMOOTH",
"-19 -166 OFFCURVE",
"10 -200 OFFCURVE",
"52 -200 CURVE SMOOTH"
);
}
);
width = 267;
}
);
note = Idotbelow;
unicode = 1ECA;
},
{
glyphname = Igrave;
lastChange = "2015-10-28 18:15:24 +0000";
layers = (
{
layerId = "E876E4BA-4024-4F05-97F6-A7AFE1BCFA82";
name = Bold;
paths = (
{
closed = 1;
nodes = (
"182 0 LINE",
"330 699 LINE",
"153 699 LINE",
"5 0 LINE"
);
},
{
closed = 1;
nodes = (
"316 742 LINE",
"285 920 LINE",
"100 920 LINE",
"153 742 LINE"
);
}
);
width = 267;
}
);
note = Igrave;
unicode = 00CC;
},
{
glyphname = Ihookabove;
lastChange = "2015-10-28 18:15:23 +0000";
layers = (
{
layerId = "E876E4BA-4024-4F05-97F6-A7AFE1BCFA82";
name = Bold;
paths = (
{
closed = 1;
nodes = (
"182 0 LINE",
"330 699 LINE",
"153 699 LINE",
"5 0 LINE"
);
},
{
closed = 1;
nodes = (
"308 742 LINE",
"313 767 LINE",
"372 781 OFFCURVE",
"413 821 OFFCURVE",
"423 869 CURVE SMOOTH",
"436 932 OFFCURVE",
"393 975 OFFCURVE",
"287 975 CURVE SMOOTH",
"247 975 OFFCURVE",
"195 968 OFFCURVE",
"164 959 CURVE",
"146 875 LINE",
"160 881 OFFCURVE",
"189 885 OFFCURVE",
"205 885 CURVE SMOOTH",
"247 885 OFFCURVE",
"262 873 OFFCURVE",
"257 852 CURVE",
"251 821 OFFCURVE",
"217 812 OFFCURVE",
"169 812 CURVE",
"154 742 LINE"
);
}
);
width = 267;
}
);
note = Ihookabove;
unicode = 1EC8;
},
{
glyphname = Imacron;
lastChange = "2015-10-28 18:15:24 +0000";
layers = (
{
layerId = "E876E4BA-4024-4F05-97F6-A7AFE1BCFA82";
name = Bold;
paths = (
{
closed = 1;
nodes = (
"182 0 LINE",
"330 699 LINE",
"153 699 LINE",
"5 0 LINE"
);
},
{
closed = 1;
nodes = (
"433 752 LINE",
"457 865 LINE",
"98 865 LINE",
"74 752 LINE"
);
}
);
width = 267;
}
);
note = Imacron;
unicode = 012A;
},
{
glyphname = Iogonek;
lastChange = "2015-10-28 18:15:24 +0000";
layers = (
{
layerId = "E876E4BA-4024-4F05-97F6-A7AFE1BCFA82";
name = Bold;
paths = (
{
closed = 1;
nodes = (
"182 0 LINE",
"330 699 LINE",
"153 699 LINE",
"5 0 LINE"
);
},
{
closed = 1;
nodes = (
"69 -216 OFFCURVE",
"108 -210 OFFCURVE",
"136 -201 CURVE",
"156 -105 LINE",
"139 -113 OFFCURVE",
"122 -117 OFFCURVE",
"106 -117 CURVE SMOOTH",
"85 -117 OFFCURVE",
"74 -104 OFFCURVE",
"79 -84 CURVE",
"85 -55 OFFCURVE",
"115 -29 OFFCURVE",
"176 0 CURVE",
"16 0 LINE",
"-31 -25 OFFCURVE",
"-69 -66 OFFCURVE",
"-80 -119 CURVE SMOOTH",
"-94 -187 OFFCURVE",
"-42 -216 OFFCURVE",
"31 -216 CURVE SMOOTH"
);
}
);
width = 267;
}
);
note = Iogonek;
unicode = 012E;
},
{
glyphname = Itilde;
lastChange = "2015-10-28 18:15:24 +0000";
layers = (
{
layerId = "E876E4BA-4024-4F05-97F6-A7AFE1BCFA82";
name = Bold;
paths = (
{
closed = 1;
nodes = (
"182 0 LINE",
"330 699 LINE",
"153 699 LINE",
"5 0 LINE"
);
},
{
closed = 1;
nodes = (
"67 779 OFFCURVE",
"105 793 OFFCURVE",
"144 793 CURVE SMOOTH",
"208 793 OFFCURVE",
"258 743 OFFCURVE",
"331 743 CURVE SMOOTH",
"375 743 OFFCURVE",
"413 754 OFFCURVE",
"443 784 CURVE",
"470 912 LINE",
"433 876 OFFCURVE",
"396 862 OFFCURVE",
"356 862 CURVE SMOOTH",
"291 862 OFFCURVE",
"237 912 OFFCURVE",
"169 912 CURVE SMOOTH",
"126 912 OFFCURVE",
"87 900 OFFCURVE",
"56 870 CURVE",
"28 742 LINE"
);
}
);
width = 267;
}
);
note = Itilde;
unicode = 0128;
},
{
glyphname = J;
lastChange = "2015-10-28 18:15:24 +0000";
layers = (
{
layerId = "E876E4BA-4024-4F05-97F6-A7AFE1BCFA82";
name = Bold;
paths = (
{
closed = 1;
nodes = (
"238 -15 OFFCURVE",
"321 65 OFFCURVE",
"352 209 CURVE SMOOTH",
"456 699 LINE",
"279 699 LINE",
"179 229 LINE SMOOTH",
"167 172 OFFCURVE",
"146 149 OFFCURVE",
"82 149 CURVE SMOOTH",
"52 149 OFFCURVE",
"18 154 OFFCURVE",
"-1 164 CURVE",
"-34 8 LINE",
"-13 -5 OFFCURVE",
"49 -15 OFFCURVE",
"92 -15 CURVE SMOOTH"
);
}
);
width = 388;
}
);
note = J;
rightKerningGroup = J;
unicode = 004A;
},
{
glyphname = Jcircumflex;
lastChange = "2015-10-28 18:15:24 +0000";
layers = (
{
layerId = "E876E4BA-4024-4F05-97F6-A7AFE1BCFA82";
name = Bold;
paths = (
{
closed = 1;
nodes = (
"238 -15 OFFCURVE",
"321 65 OFFCURVE",
"352 209 CURVE SMOOTH",
"456 699 LINE",
"279 699 LINE",
"179 229 LINE SMOOTH",
"167 172 OFFCURVE",
"146 149 OFFCURVE",
"82 149 CURVE SMOOTH",
"52 149 OFFCURVE",
"18 154 OFFCURVE",
"-1 164 CURVE",
"-34 8 LINE",
"-13 -5 OFFCURVE",
"49 -15 OFFCURVE",
"92 -15 CURVE SMOOTH"
);
},
{
closed = 1;
nodes = (
"298 742 LINE",
"376 827 LINE",
"418 742 LINE",
"587 742 LINE",
"469 923 LINE",
"312 923 LINE",
"119 742 LINE"
);
}
);
width = 388;
}
);
note = Jcircumflex;
rightKerningGroup = J;
unicode = 0134;
},
{
glyphname = K;
lastChange = "2015-10-28 18:15:24 +0000";
layers = (
{
layerId = "E876E4BA-4024-4F05-97F6-A7AFE1BCFA82";
name = Bold;
paths = (
{
closed = 1;
nodes = (
"182 0 LINE",
"247 309 LINE",
"442 0 LINE",
"647 0 LINE",
"426 354 LINE",
"781 699 LINE",
"566 699 LINE",
"268 409 LINE",
"330 699 LINE",
"153 699 LINE",
"5 0 LINE"
);
}
);
width = 717;
}
);
leftKerningGroup = K;
note = K;
rightKerningGroup = K;
unicode = 004B;
},
{
glyphname = Kcommaaccent;
lastChange = "2015-10-28 18:15:24 +0000";
layers = (
{
layerId = "E876E4BA-4024-4F05-97F6-A7AFE1BCFA82";
name = Bold;
paths = (
{
closed = 1;
nodes = (
"182 0 LINE",
"247 309 LINE",
"442 0 LINE",
"647 0 LINE",
"426 354 LINE",
"781 699 LINE",
"566 699 LINE",
"268 409 LINE",
"330 699 LINE",
"153 699 LINE",
"5 0 LINE"
);
},
{
closed = 1;
nodes = (
"240 -260 LINE",
"390 -49 LINE",
"208 -49 LINE",
"81 -260 LINE"
);
}
);
width = 717;
}
);
leftKerningGroup = K;
note = Kcommaaccent;
rightKerningGroup = K;
unicode = 0136;
},
{
glyphname = L;
lastChange = "2015-10-28 18:15:24 +0000";
layers = (
{
layerId = "E876E4BA-4024-4F05-97F6-A7AFE1BCFA82";
name = Bold;
paths = (
{
closed = 1;
nodes = (
"486 0 LINE",
"517 149 LINE",
"213 149 LINE",
"330 699 LINE",
"153 699 LINE",
"5 0 LINE"
);
}
);
width = 531;
}
);
note = L;
rightKerningGroup = L;
unicode = 004C;
},
{
glyphname = Lacute;
lastChange = "2015-10-28 18:15:24 +0000";
layers = (
{
layerId = "E876E4BA-4024-4F05-97F6-A7AFE1BCFA82";
name = Bold;
paths = (
{
closed = 1;
nodes = (
"486 0 LINE",
"517 149 LINE",
"213 149 LINE",
"330 699 LINE",
"153 699 LINE",
"5 0 LINE"
);
},
{
closed = 1;
nodes = (
"318 742 LINE",
"447 920 LINE",
"262 920 LINE",
"155 742 LINE"
);
}
);
width = 531;
}
);
note = Lacute;
rightKerningGroup = L;
unicode = 0139;
},
{
glyphname = Lcaron;
lastChange = "2015-10-28 18:15:24 +0000";
layers = (
{
layerId = "E876E4BA-4024-4F05-97F6-A7AFE1BCFA82";
name = Bold;
paths = (
{
closed = 1;
nodes = (
"486 0 LINE",
"517 149 LINE",
"213 149 LINE",
"330 699 LINE",
"153 699 LINE",
"5 0 LINE"
);
},
{
closed = 1;
nodes = (
"530 503 LINE",
"680 714 LINE",
"498 714 LINE",
"371 503 LINE"
);
}
);
width = 523;
}
);
note = Lcaron;
rightKerningGroup = L;
unicode = 013D;
},
{
glyphname = Lcommaaccent;
lastChange = "2015-10-28 18:15:23 +0000";
layers = (
{
layerId = "E876E4BA-4024-4F05-97F6-A7AFE1BCFA82";
name = Bold;
paths = (
{
closed = 1;
nodes = (
"486 0 LINE",
"517 149 LINE",
"213 149 LINE",
"330 699 LINE",
"153 699 LINE",
"5 0 LINE"
);
},
{
closed = 1;
nodes = (
"197 -260 LINE",
"347 -49 LINE",
"165 -49 LINE",
"38 -260 LINE"
);
}
);
width = 531;
}
);
note = Lcommaaccent;
rightKerningGroup = L;
unicode = 013B;
},
{
glyphname = Ldot;
lastChange = "2015-10-28 18:15:24 +0000";
layers = (
{
layerId = "E876E4BA-4024-4F05-97F6-A7AFE1BCFA82";
name = Bold;
paths = (
{
closed = 1;
nodes = (
"486 0 LINE",
"517 149 LINE",
"213 149 LINE",
"330 699 LINE",
"153 699 LINE",
"5 0 LINE"
);
},
{
closed = 1;
nodes = (
"465 318 OFFCURVE",
"506 351 OFFCURVE",
"515 394 CURVE SMOOTH",
"524 437 OFFCURVE",
"497 472 OFFCURVE",
"455 472 CURVE SMOOTH",
"413 472 OFFCURVE",
"370 437 OFFCURVE",
"361 394 CURVE SMOOTH",
"352 351 OFFCURVE",
"381 318 OFFCURVE",
"423 318 CURVE SMOOTH"
);
}
);
width = 531;
}
);
note = Ldot;
rightKerningGroup = L;
unicode = 013F;
},
{
glyphname = Ldotbelow;
lastChange = "2015-10-28 18:15:23 +0000";
layers = (
{
layerId = "E876E4BA-4024-4F05-97F6-A7AFE1BCFA82";
name = Bold;
paths = (
{
closed = 1;
nodes = (
"486 0 LINE",
"517 149 LINE",
"213 149 LINE",
"330 699 LINE",
"153 699 LINE",
"5 0 LINE"
);
},
{
closed = 1;
nodes = (
"238 -200 OFFCURVE",
"278 -166 OFFCURVE",
"287 -123 CURVE SMOOTH",
"296 -80 OFFCURVE",
"270 -46 OFFCURVE",
"229 -46 CURVE SMOOTH",
"187 -46 OFFCURVE",
"143 -80 OFFCURVE",
"134 -123 CURVE SMOOTH",
"125 -166 OFFCURVE",
"154 -200 OFFCURVE",
"196 -200 CURVE SMOOTH"
);
}
);
width = 531;
}
);
note = Ldotbelow;
rightKerningGroup = L;
unicode = 1E36;
},
{
glyphname = Ldotbelowmacron;
lastChange = "2015-10-28 18:15:24 +0000";
layers = (
{
layerId = "E876E4BA-4024-4F05-97F6-A7AFE1BCFA82";
name = Bold;
paths = (
{
closed = 1;
nodes = (
"468 0 LINE",
"499 149 LINE",
"195 149 LINE",
"312 699 LINE",
"135 699 LINE",
"-13 0 LINE"
);
},
{
closed = 1;
nodes = (
"231 -200 OFFCURVE",
"271 -166 OFFCURVE",
"280 -123 CURVE SMOOTH",
"289 -80 OFFCURVE",
"263 -46 OFFCURVE",
"222 -46 CURVE SMOOTH",
"180 -46 OFFCURVE",
"136 -80 OFFCURVE",
"127 -123 CURVE SMOOTH",
"118 -166 OFFCURVE",
"147 -200 OFFCURVE",
"189 -200 CURVE SMOOTH"
);
},
{
closed = 1;
nodes = (
"449 752 LINE",
"473 865 LINE",
"129 865 LINE",
"105 752 LINE"
);
}
);
width = 513;
}
);
note = Ldotbelowmacron;
rightKerningGroup = L;
unicode = 1E38;
},
{
glyphname = Llinebelow;
lastChange = "2015-10-28 18:15:24 +0000";
layers = (
{
layerId = "E876E4BA-4024-4F05-97F6-A7AFE1BCFA82";
name = Bold;
paths = (
{
closed = 1;
nodes = (
"486 0 LINE",
"517 149 LINE",
"213 149 LINE",
"330 699 LINE",
"153 699 LINE",
"5 0 LINE"
);
},
{
closed = 1;
nodes = (
"380 -172 LINE",
"404 -59 LINE",
"60 -59 LINE",
"36 -172 LINE"
);
}
);
width = 531;
}
);
note = Llinebelow;
rightKerningGroup = L;
unicode = 1E3A;
},
{
glyphname = Lslash;
lastChange = "2015-10-28 18:15:24 +0000";
layers = (
{
layerId = "E876E4BA-4024-4F05-97F6-A7AFE1BCFA82";
name = Bold;
paths = (
{
closed = 1;
nodes = (
"502 0 LINE",
"534 155 LINE",
"239 155 LINE",
"278 339 LINE",
"425 399 LINE",
"461 568 LINE",
"314 508 LINE",
"355 699 LINE",
"170 699 LINE",
"112 425 LINE",
"28 391 LINE",
"-8 222 LINE",
"76 256 LINE",
"22 0 LINE"
);
}
);
width = 547;
}
);
note = Lslash;
rightKerningGroup = L;
unicode = 0141;
},
{
glyphname = M;
lastChange = "2015-10-28 18:15:24 +0000";
layers = (
{
layerId = "E876E4BA-4024-4F05-97F6-A7AFE1BCFA82";
name = Bold;
paths = (
{
closed = 1;
nodes = (
"171 0 LINE",
"245 351 LINE",
"337 0 LINE",
"417 0 LINE",
"658 351 LINE",
"584 0 LINE",
"749 0 LINE",
"897 699 LINE",
"723 699 LINE",
"428 266 LINE",
"318 699 LINE",
"153 699 LINE",
"5 0 LINE"
);
}
);
width = 834;
}
);
note = M;
unicode = 004D;
},
{
glyphname = Mdotbelow;
lastChange = "2015-10-28 18:15:23 +0000";
layers = (
{
layerId = "E876E4BA-4024-4F05-97F6-A7AFE1BCFA82";
name = Bold;
paths = (
{
closed = 1;
nodes = (
"171 0 LINE",
"245 351 LINE",
"337 0 LINE",
"417 0 LINE",
"658 351 LINE",
"584 0 LINE",
"749 0 LINE",
"897 699 LINE",
"723 699 LINE",
"428 266 LINE",
"318 699 LINE",
"153 699 LINE",
"5 0 LINE"
);
},
{
closed = 1;
nodes = (
"378 -200 OFFCURVE",
"418 -166 OFFCURVE",
"427 -123 CURVE SMOOTH",
"436 -80 OFFCURVE",
"410 -46 OFFCURVE",
"369 -46 CURVE SMOOTH",
"327 -46 OFFCURVE",
"283 -80 OFFCURVE",
"274 -123 CURVE SMOOTH",
"265 -166 OFFCURVE",
"294 -200 OFFCURVE",
"336 -200 CURVE SMOOTH"
);
}
);
width = 834;
}
);
note = Mdotbelow;
unicode = 1E42;
},
{
glyphname = N;
lastChange = "2015-10-28 18:15:23 +0000";
layers = (
{
layerId = "E876E4BA-4024-4F05-97F6-A7AFE1BCFA82";
name = Bold;
paths = (
{
closed = 1;
nodes = (
"187 0 LINE",
"275 417 LINE",
"445 0 LINE",
"614 0 LINE",
"762 699 LINE",
"590 699 LINE",
"502 283 LINE",
"333 699 LINE",
"153 699 LINE",
"5 0 LINE"
);
}
);
width = 699;
}
);
note = N;
unicode = 004E;
},
{
glyphname = Nacute;
lastChange = "2015-10-28 18:15:24 +0000";
layers = (
{
layerId = "E876E4BA-4024-4F05-97F6-A7AFE1BCFA82";
name = Bold;
paths = (
{
closed = 1;
nodes = (
"187 0 LINE",
"275 417 LINE",
"445 0 LINE",
"614 0 LINE",
"762 699 LINE",
"590 699 LINE",
"502 283 LINE",
"333 699 LINE",
"153 699 LINE",
"5 0 LINE"
);
},
{
closed = 1;
nodes = (
"525 742 LINE",
"654 920 LINE",
"469 920 LINE",
"362 742 LINE"
);
}
);
width = 699;
}
);
note = Nacute;
unicode = 0143;
},
{
glyphname = Ncaron;
lastChange = "2015-10-28 18:15:24 +0000";
layers = (
{
layerId = "E876E4BA-4024-4F05-97F6-A7AFE1BCFA82";
name = Bold;
paths = (
{
closed = 1;
nodes = (
"187 0 LINE",
"275 417 LINE",
"445 0 LINE",
"614 0 LINE",
"762 699 LINE",
"590 699 LINE",
"502 283 LINE",
"333 699 LINE",
"153 699 LINE",
"5 0 LINE"
);
},
{
closed = 1;
nodes = (
"530 742 LINE",
"724 923 LINE",
"545 923 LINE",
"467 838 LINE",
"425 923 LINE",
"256 923 LINE",
"373 742 LINE"
);
}
);
width = 699;
}
);
note = Ncaron;
unicode = 0147;
},
{
glyphname = Ncommaaccent;
lastChange = "2015-10-28 18:15:23 +0000";
layers = (
{
layerId = "E876E4BA-4024-4F05-97F6-A7AFE1BCFA82";
name = Bold;
paths = (
{
closed = 1;
nodes = (
"187 0 LINE",
"275 417 LINE",
"445 0 LINE",
"614 0 LINE",
"762 699 LINE",
"590 699 LINE",
"502 283 LINE",
"333 699 LINE",
"153 699 LINE",
"5 0 LINE"
);
},
{
closed = 1;
nodes = (
"252 -260 LINE",
"402 -49 LINE",
"220 -49 LINE",
"93 -260 LINE"
);
}
);
width = 699;
}
);
note = Ncommaaccent;
unicode = 0145;
},
{
glyphname = Ndotaccent;
lastChange = "2015-10-28 18:15:23 +0000";
layers = (
{
layerId = "E876E4BA-4024-4F05-97F6-A7AFE1BCFA82";
name = Bold;
paths = (
{
closed = 1;
nodes = (
"187 0 LINE",
"275 417 LINE",
"445 0 LINE",
"614 0 LINE",
"762 699 LINE",
"590 699 LINE",
"502 283 LINE",
"333 699 LINE",
"153 699 LINE",
"5 0 LINE"
);
},
{
closed = 1;
nodes = (
"505 752 OFFCURVE",
"546 785 OFFCURVE",
"555 828 CURVE SMOOTH",
"564 871 OFFCURVE",
"537 906 OFFCURVE",
"495 906 CURVE SMOOTH",
"453 906 OFFCURVE",
"410 871 OFFCURVE",
"401 828 CURVE SMOOTH",
"392 785 OFFCURVE",
"421 752 OFFCURVE",
"463 752 CURVE SMOOTH"
);
}
);
width = 699;
}
);
note = Ndotaccent;
unicode = 1E44;
},
{
glyphname = Ndotbelow;
lastChange = "2015-10-28 18:15:24 +0000";
layers = (
{
layerId = "E876E4BA-4024-4F05-97F6-A7AFE1BCFA82";
name = Bold;
paths = (
{
closed = 1;
nodes = (
"187 0 LINE",
"275 417 LINE",
"445 0 LINE",
"614 0 LINE",
"762 699 LINE",
"590 699 LINE",
"502 283 LINE",
"333 699 LINE",
"153 699 LINE",
"5 0 LINE"
);
},
{
closed = 1;
nodes = (
"323 -200 OFFCURVE",
"363 -166 OFFCURVE",
"372 -123 CURVE SMOOTH",
"381 -80 OFFCURVE",
"355 -46 OFFCURVE",
"314 -46 CURVE SMOOTH",
"272 -46 OFFCURVE",
"228 -80 OFFCURVE",
"219 -123 CURVE SMOOTH",
"210 -166 OFFCURVE",
"239 -200 OFFCURVE",
"281 -200 CURVE SMOOTH"
);
}
);
width = 699;
}
);
note = Ndotbelow;
unicode = 1E46;
},
{
glyphname = Eng;
lastChange = "2015-10-28 18:15:23 +0000";
layers = (
{
layerId = "E876E4BA-4024-4F05-97F6-A7AFE1BCFA82";
name = Bold;
paths = (
{
closed = 1;
nodes = (
"482 -231 OFFCURVE",
"578 -170 OFFCURVE",
"606 -36 CURVE SMOOTH",
"762 699 LINE",
"590 699 LINE",
"502 283 LINE",
"333 699 LINE",
"153 699 LINE",
"5 0 LINE",
"187 0 LINE",
"275 417 LINE",
"442 6 LINE",
"438 -15 LINE SMOOTH",
"427 -66 OFFCURVE",
"393 -88 OFFCURVE",
"348 -88 CURVE SMOOTH",
"320 -88 OFFCURVE",
"300 -83 OFFCURVE",
"283 -74 CURVE",
"253 -214 LINE",
"275 -225 OFFCURVE",
"305 -231 OFFCURVE",
"345 -231 CURVE SMOOTH"
);
}
);
width = 711;
}
);
note = Eng;
unicode = 014A;
},
{
glyphname = Nlinebelow;
lastChange = "2015-10-28 18:15:23 +0000";
layers = (
{
layerId = "E876E4BA-4024-4F05-97F6-A7AFE1BCFA82";
name = Bold;
paths = (
{
closed = 1;
nodes = (
"187 0 LINE",
"275 417 LINE",
"445 0 LINE",
"614 0 LINE",
"762 699 LINE",
"590 699 LINE",
"502 283 LINE",
"333 699 LINE",
"153 699 LINE",
"5 0 LINE"
);
},
{
closed = 1;
nodes = (
"461 -172 LINE",
"485 -59 LINE",
"141 -59 LINE",
"117 -172 LINE"
);
}
);
width = 699;
}
);
note = Nlinebelow;
unicode = 1E48;
},
{
glyphname = Ntilde;
lastChange = "2015-10-28 18:15:24 +0000";
layers = (
{
layerId = "E876E4BA-4024-4F05-97F6-A7AFE1BCFA82";
name = Bold;
paths = (
{
closed = 1;
nodes = (
"187 0 LINE",
"275 417 LINE",
"445 0 LINE",
"614 0 LINE",
"762 699 LINE",
"590 699 LINE",
"502 283 LINE",
"333 699 LINE",
"153 699 LINE",
"5 0 LINE"
);
},
{
closed = 1;
nodes = (
"291 779 OFFCURVE",
"329 793 OFFCURVE",
"368 793 CURVE SMOOTH",
"432 793 OFFCURVE",
"482 743 OFFCURVE",
"555 743 CURVE SMOOTH",
"599 743 OFFCURVE",
"637 754 OFFCURVE",
"667 784 CURVE",
"694 912 LINE",
"657 876 OFFCURVE",
"620 862 OFFCURVE",
"580 862 CURVE SMOOTH",
"515 862 OFFCURVE",
"461 912 OFFCURVE",
"393 912 CURVE SMOOTH",
"350 912 OFFCURVE",
"311 900 OFFCURVE",
"280 870 CURVE",
"252 742 LINE"
);
}
);
width = 699;
}
);
note = Ntilde;
unicode = 00D1;
},
{
glyphname = O;
lastChange = "2015-10-28 18:15:24 +0000";
layers = (
{
layerId = "E876E4BA-4024-4F05-97F6-A7AFE1BCFA82";
name = Bold;
paths = (
{
closed = 1;
nodes = (
"568 -15 OFFCURVE",
"762 131 OFFCURVE",
"809 349 CURVE SMOOTH",
"855 568 OFFCURVE",
"723 714 OFFCURVE",
"512 714 CURVE SMOOTH",
"300 714 OFFCURVE",
"105 568 OFFCURVE",
"59 349 CURVE SMOOTH",
"12 131 OFFCURVE",
"145 -15 OFFCURVE",
"357 -15 CURVE SMOOTH"
);
},
{
closed = 1;
nodes = (
"267 151 OFFCURVE",
"214 225 OFFCURVE",
"241 349 CURVE SMOOTH",
"267 471 OFFCURVE",
"368 547 OFFCURVE",
"477 547 CURVE SMOOTH",
"601 547 OFFCURVE",
"654 471 OFFCURVE",
"628 349 CURVE SMOOTH",
"601 225 OFFCURVE",
"499 151 OFFCURVE",
"393 151 CURVE SMOOTH"
);
}
);
width = 800;
}
);
leftKerningGroup = O;
note = O;
rightKerningGroup = O;
unicode = 004F;
},
{
glyphname = Oacute;
lastChange = "2015-10-28 18:15:24 +0000";
layers = (
{
layerId = "E876E4BA-4024-4F05-97F6-A7AFE1BCFA82";
name = Bold;
paths = (
{
closed = 1;
nodes = (
"568 -15 OFFCURVE",
"762 131 OFFCURVE",
"809 349 CURVE SMOOTH",
"855 568 OFFCURVE",
"723 714 OFFCURVE",
"512 714 CURVE SMOOTH",
"300 714 OFFCURVE",
"105 568 OFFCURVE",
"59 349 CURVE SMOOTH",
"12 131 OFFCURVE",
"145 -15 OFFCURVE",
"357 -15 CURVE SMOOTH"
);
},
{
closed = 1;
nodes = (
"267 151 OFFCURVE",
"214 225 OFFCURVE",
"241 349 CURVE SMOOTH",
"267 471 OFFCURVE",
"368 547 OFFCURVE",
"477 547 CURVE SMOOTH",
"601 547 OFFCURVE",
"654 471 OFFCURVE",
"628 349 CURVE SMOOTH",
"601 225 OFFCURVE",
"499 151 OFFCURVE",
"393 151 CURVE SMOOTH"
);
},
{
closed = 1;
nodes = (
"578 742 LINE",
"707 920 LINE",
"522 920 LINE",
"415 742 LINE"
);
}
);
width = 800;
}
);
leftKerningGroup = O;
note = Oacute;
rightKerningGroup = O;
unicode = 00D3;
},
{
glyphname = Obreve;
lastChange = "2015-10-28 18:15:24 +0000";
layers = (
{
layerId = "E876E4BA-4024-4F05-97F6-A7AFE1BCFA82";
name = Bold;
paths = (
{
closed = 1;
nodes = (
"568 -15 OFFCURVE",
"762 131 OFFCURVE",
"809 349 CURVE SMOOTH",
"855 568 OFFCURVE",
"723 714 OFFCURVE",
"512 714 CURVE SMOOTH",
"300 714 OFFCURVE",
"105 568 OFFCURVE",
"59 349 CURVE SMOOTH",
"12 131 OFFCURVE",
"145 -15 OFFCURVE",
"357 -15 CURVE SMOOTH"
);
},
{
closed = 1;
nodes = (
"267 151 OFFCURVE",
"214 225 OFFCURVE",
"241 349 CURVE SMOOTH",
"267 471 OFFCURVE",
"368 547 OFFCURVE",
"477 547 CURVE SMOOTH",
"601 547 OFFCURVE",
"654 471 OFFCURVE",
"628 349 CURVE SMOOTH",
"601 225 OFFCURVE",
"499 151 OFFCURVE",
"393 151 CURVE SMOOTH"
);
},
{
closed = 1;
nodes = (
"614 742 OFFCURVE",
"694 810 OFFCURVE",
"717 915 CURVE",
"581 915 LINE",
"572 874 OFFCURVE",
"548 853 OFFCURVE",
"515 853 CURVE SMOOTH",
"481 853 OFFCURVE",
"468 874 OFFCURVE",
"477 915 CURVE",
"352 915 LINE",
"329 810 OFFCURVE",
"380 742 OFFCURVE",
"497 742 CURVE SMOOTH"
);
}
);
width = 800;
}
);
leftKerningGroup = O;
note = Obreve;
rightKerningGroup = O;
unicode = 014E;
},
{
glyphname = Ocaron;
lastChange = "2015-10-28 18:15:24 +0000";
layers = (
{
layerId = "E876E4BA-4024-4F05-97F6-A7AFE1BCFA82";
name = Bold;
paths = (
{
closed = 1;
nodes = (
"568 -15 OFFCURVE",
"762 131 OFFCURVE",
"809 349 CURVE SMOOTH",
"855 568 OFFCURVE",
"723 714 OFFCURVE",
"512 714 CURVE SMOOTH",
"300 714 OFFCURVE",
"105 568 OFFCURVE",
"59 349 CURVE SMOOTH",
"12 131 OFFCURVE",
"145 -15 OFFCURVE",
"357 -15 CURVE SMOOTH"
);
},
{
closed = 1;
nodes = (
"267 151 OFFCURVE",
"214 225 OFFCURVE",
"241 349 CURVE SMOOTH",
"267 471 OFFCURVE",
"368 547 OFFCURVE",
"477 547 CURVE SMOOTH",
"601 547 OFFCURVE",
"654 471 OFFCURVE",
"628 349 CURVE SMOOTH",
"601 225 OFFCURVE",
"499 151 OFFCURVE",
"393 151 CURVE SMOOTH"
);
},
{
closed = 1;
nodes = (
"576 742 LINE",
"770 923 LINE",
"591 923 LINE",
"513 838 LINE",
"471 923 LINE",
"302 923 LINE",
"419 742 LINE"
);
}
);
width = 800;
}
);
leftKerningGroup = O;
note = Ocaron;
rightKerningGroup = O;
unicode = 01D1;
},
{
glyphname = Ocircumflex;
lastChange = "2015-10-28 18:15:24 +0000";
layers = (
{
layerId = "E876E4BA-4024-4F05-97F6-A7AFE1BCFA82";
name = Bold;
paths = (
{
closed = 1;
nodes = (
"568 -15 OFFCURVE",
"762 131 OFFCURVE",
"809 349 CURVE SMOOTH",
"855 568 OFFCURVE",
"723 714 OFFCURVE",
"512 714 CURVE SMOOTH",
"300 714 OFFCURVE",
"105 568 OFFCURVE",
"59 349 CURVE SMOOTH",
"12 131 OFFCURVE",
"145 -15 OFFCURVE",
"357 -15 CURVE SMOOTH"
);
},
{
closed = 1;
nodes = (
"267 151 OFFCURVE",
"214 225 OFFCURVE",
"241 349 CURVE SMOOTH",
"267 471 OFFCURVE",
"368 547 OFFCURVE",
"477 547 CURVE SMOOTH",
"601 547 OFFCURVE",
"654 471 OFFCURVE",
"628 349 CURVE SMOOTH",
"601 225 OFFCURVE",
"499 151 OFFCURVE",
"393 151 CURVE SMOOTH"
);
},
{
closed = 1;
nodes = (
"443 742 LINE",
"521 827 LINE",
"563 742 LINE",
"732 742 LINE",
"614 923 LINE",
"457 923 LINE",
"264 742 LINE"
);
}
);
width = 800;
}
);
leftKerningGroup = O;
note = Ocircumflex;
rightKerningGroup = O;
unicode = 00D4;
},
{
glyphname = Ocircumflexacute;
lastChange = "2015-10-28 18:15:24 +0000";
layers = (
{
layerId = "E876E4BA-4024-4F05-97F6-A7AFE1BCFA82";
name = Bold;
paths = (
{
closed = 1;
nodes = (
"568 -15 OFFCURVE",
"762 131 OFFCURVE",
"809 349 CURVE SMOOTH",
"855 568 OFFCURVE",
"723 714 OFFCURVE",
"512 714 CURVE SMOOTH",
"300 714 OFFCURVE",
"105 568 OFFCURVE",
"59 349 CURVE SMOOTH",
"12 131 OFFCURVE",
"145 -15 OFFCURVE",
"357 -15 CURVE SMOOTH"
);
},
{
closed = 1;
nodes = (
"267 151 OFFCURVE",
"214 225 OFFCURVE",
"241 349 CURVE SMOOTH",
"267 471 OFFCURVE",
"368 547 OFFCURVE",
"477 547 CURVE SMOOTH",
"601 547 OFFCURVE",
"654 471 OFFCURVE",
"628 349 CURVE SMOOTH",
"601 225 OFFCURVE",
"499 151 OFFCURVE",
"393 151 CURVE SMOOTH"
);
},
{
closed = 1;
nodes = (
"464 742 LINE",
"537 809 LINE",
"580 742 LINE",
"735 742 LINE",
"618 899 LINE",
"494 899 LINE",
"308 742 LINE"
);
},
{
closed = 1;
nodes = (
"815 858 LINE",
"926 997 LINE",
"764 997 LINE",
"675 858 LINE"
);
}
);
width = 778;
}
);
leftKerningGroup = O;
note = Ocircumflexacute;
rightKerningGroup = O;
unicode = 1ED0;
},
{
glyphname = Ocircumflexdotbelow;
lastChange = "2015-10-28 18:15:24 +0000";
layers = (
{
layerId = "E876E4BA-4024-4F05-97F6-A7AFE1BCFA82";
name = Bold;
paths = (
{
closed = 1;
nodes = (
"568 -15 OFFCURVE",
"762 131 OFFCURVE",
"809 349 CURVE SMOOTH",
"855 568 OFFCURVE",
"723 714 OFFCURVE",
"512 714 CURVE SMOOTH",
"300 714 OFFCURVE",
"105 568 OFFCURVE",
"59 349 CURVE SMOOTH",
"12 131 OFFCURVE",
"145 -15 OFFCURVE",
"357 -15 CURVE SMOOTH"
);
},
{
closed = 1;
nodes = (
"363 -200 OFFCURVE",
"403 -166 OFFCURVE",
"412 -123 CURVE SMOOTH",
"421 -80 OFFCURVE",
"395 -46 OFFCURVE",
"354 -46 CURVE SMOOTH",
"312 -46 OFFCURVE",
"268 -80 OFFCURVE",
"259 -123 CURVE SMOOTH",
"250 -166 OFFCURVE",
"279 -200 OFFCURVE",
"321 -200 CURVE SMOOTH"
);
},
{
closed = 1;
nodes = (
"267 151 OFFCURVE",
"214 225 OFFCURVE",
"241 349 CURVE SMOOTH",
"267 471 OFFCURVE",
"368 547 OFFCURVE",
"477 547 CURVE SMOOTH",
"601 547 OFFCURVE",
"654 471 OFFCURVE",
"628 349 CURVE SMOOTH",
"601 225 OFFCURVE",
"499 151 OFFCURVE",
"393 151 CURVE SMOOTH"
);
},
{
closed = 1;
nodes = (
"443 742 LINE",
"521 827 LINE",
"563 742 LINE",
"732 742 LINE",
"614 923 LINE",
"457 923 LINE",
"264 742 LINE"
);
}
);
width = 800;
}
);
leftKerningGroup = O;
note = Ocircumflexdotbelow;
rightKerningGroup = O;
unicode = 1ED8;
},
{
glyphname = Ocircumflexgrave;
lastChange = "2015-10-28 18:15:23 +0000";
layers = (
{
layerId = "E876E4BA-4024-4F05-97F6-A7AFE1BCFA82";
name = Bold;
paths = (
{
closed = 1;
nodes = (
"546 -15 OFFCURVE",
"740 131 OFFCURVE",
"787 349 CURVE SMOOTH",
"833 568 OFFCURVE",
"701 714 OFFCURVE",
"490 714 CURVE SMOOTH",
"278 714 OFFCURVE",
"83 568 OFFCURVE",
"37 349 CURVE SMOOTH",
"-10 131 OFFCURVE",
"123 -15 OFFCURVE",
"335 -15 CURVE SMOOTH"
);
},
{
closed = 1;
nodes = (
"245 151 OFFCURVE",
"192 225 OFFCURVE",
"219 349 CURVE SMOOTH",
"245 471 OFFCURVE",
"346 547 OFFCURVE",
"455 547 CURVE SMOOTH",
"579 547 OFFCURVE",
"632 471 OFFCURVE",
"606 349 CURVE SMOOTH",
"579 225 OFFCURVE",
"477 151 OFFCURVE",
"371 151 CURVE SMOOTH"
);
},
{
closed = 1;
nodes = (
"394 858 LINE",
"365 997 LINE",
"203 997 LINE",
"254 858 LINE"
);
},
{
closed = 1;
nodes = (
"440 742 LINE",
"513 809 LINE",
"556 742 LINE",
"711 742 LINE",
"593 899 LINE",
"470 899 LINE",
"284 742 LINE"
);
}
);
width = 778;
}
);
leftKerningGroup = O;
note = Ocircumflexgrave;
rightKerningGroup = O;
unicode = 1ED2;
},
{
glyphname = Ocircumflexhookabove;
lastChange = "2015-10-28 18:15:23 +0000";
layers = (
{
layerId = "E876E4BA-4024-4F05-97F6-A7AFE1BCFA82";
name = Bold;
paths = (
{
closed = 1;
nodes = (
"568 -15 OFFCURVE",
"762 131 OFFCURVE",
"809 349 CURVE SMOOTH",
"855 568 OFFCURVE",
"723 714 OFFCURVE",
"512 714 CURVE SMOOTH",
"300 714 OFFCURVE",
"105 568 OFFCURVE",
"59 349 CURVE SMOOTH",
"12 131 OFFCURVE",
"145 -15 OFFCURVE",
"357 -15 CURVE SMOOTH"
);
},
{
closed = 1;
nodes = (
"267 151 OFFCURVE",
"214 225 OFFCURVE",
"241 349 CURVE SMOOTH",
"267 471 OFFCURVE",
"368 547 OFFCURVE",
"477 547 CURVE SMOOTH",
"601 547 OFFCURVE",
"654 471 OFFCURVE",
"628 349 CURVE SMOOTH",
"601 225 OFFCURVE",
"499 151 OFFCURVE",
"393 151 CURVE SMOOTH"
);
},
{
closed = 1;
nodes = (
"461 742 LINE",
"534 809 LINE",
"577 742 LINE",
"732 742 LINE",
"615 899 LINE",
"491 899 LINE",
"305 742 LINE"
);
},
{
closed = 1;
nodes = (
"781 847 LINE",
"786 872 LINE",
"826 881 OFFCURVE",
"854 904 OFFCURVE",
"861 937 CURVE SMOOTH",
"870 981 OFFCURVE",
"839 1011 OFFCURVE",
"769 1011 CURVE SMOOTH",
"742 1011 OFFCURVE",
"702 1005 OFFCURVE",
"680 999 CURVE",
"668 940 LINE",
"677 944 OFFCURVE",
"694 947 OFFCURVE",
"706 947 CURVE SMOOTH",
"733 947 OFFCURVE",
"744 940 OFFCURVE",
"741 924 CURVE SMOOTH",
"737 904 OFFCURVE",
"717 898 OFFCURVE",
"684 898 CURVE",
"673 847 LINE"
);
}
);
width = 800;
}
);
leftKerningGroup = O;
note = Ocircumflexhookabove;
rightKerningGroup = O;
unicode = 1ED4;
},
{
glyphname = Ocircumflextilde;
lastChange = "2015-10-28 18:15:24 +0000";
layers = (
{
layerId = "E876E4BA-4024-4F05-97F6-A7AFE1BCFA82";
name = Bold;
paths = (
{
closed = 1;
nodes = (
"568 -15 OFFCURVE",
"762 131 OFFCURVE",
"809 349 CURVE SMOOTH",
"855 568 OFFCURVE",
"723 714 OFFCURVE",
"512 714 CURVE SMOOTH",
"300 714 OFFCURVE",
"105 568 OFFCURVE",
"59 349 CURVE SMOOTH",
"12 131 OFFCURVE",
"145 -15 OFFCURVE",
"357 -15 CURVE SMOOTH"
);
},
{
closed = 1;
nodes = (
"267 151 OFFCURVE",
"214 225 OFFCURVE",
"241 349 CURVE SMOOTH",
"267 471 OFFCURVE",
"368 547 OFFCURVE",
"477 547 CURVE SMOOTH",
"601 547 OFFCURVE",
"654 471 OFFCURVE",
"628 349 CURVE SMOOTH",
"601 225 OFFCURVE",
"499 151 OFFCURVE",
"393 151 CURVE SMOOTH"
);
},
{
closed = 1;
nodes = (
"622 742 OFFCURVE",
"702 798 OFFCURVE",
"722 892 CURVE",
"608 892 LINE",
"600 854 OFFCURVE",
"576 838 OFFCURVE",
"538 838 CURVE SMOOTH",
"500 838 OFFCURVE",
"485 854 OFFCURVE",
"493 892 CURVE",
"377 892 LINE",
"357 798 OFFCURVE",
"414 742 OFFCURVE",
"518 742 CURVE SMOOTH"
);
},
{
closed = 1;
nodes = (
"671 922 OFFCURVE",
"701 932 OFFCURVE",
"725 955 CURVE",
"747 1057 LINE",
"717 1028 OFFCURVE",
"687 1016 OFFCURVE",
"656 1016 CURVE SMOOTH",
"605 1016 OFFCURVE",
"558 1058 OFFCURVE",
"505 1058 CURVE SMOOTH",
"469 1058 OFFCURVE",
"439 1048 OFFCURVE",
"415 1024 CURVE",
"393 923 LINE",
"423 952 OFFCURVE",
"453 964 OFFCURVE",
"485 964 CURVE SMOOTH",
"535 964 OFFCURVE",
"579 922 OFFCURVE",
"636 922 CURVE SMOOTH"
);
}
);
width = 800;
}
);
leftKerningGroup = O;
note = Ocircumflextilde;
rightKerningGroup = O;
unicode = 1ED6;
},
{
glyphname = Odieresis;
lastChange = "2015-10-28 18:15:24 +0000";
layers = (
{
layerId = "E876E4BA-4024-4F05-97F6-A7AFE1BCFA82";
name = Bold;
paths = (
{
closed = 1;
nodes = (
"568 -15 OFFCURVE",
"762 131 OFFCURVE",
"809 349 CURVE SMOOTH",
"855 568 OFFCURVE",
"723 714 OFFCURVE",
"512 714 CURVE SMOOTH",
"300 714 OFFCURVE",
"105 568 OFFCURVE",
"59 349 CURVE SMOOTH",
"12 131 OFFCURVE",
"145 -15 OFFCURVE",
"357 -15 CURVE SMOOTH"
);
},
{
closed = 1;
nodes = (
"267 151 OFFCURVE",
"214 225 OFFCURVE",
"241 349 CURVE SMOOTH",
"267 471 OFFCURVE",
"368 547 OFFCURVE",
"477 547 CURVE SMOOTH",
"601 547 OFFCURVE",
"654 471 OFFCURVE",
"628 349 CURVE SMOOTH",
"601 225 OFFCURVE",
"499 151 OFFCURVE",
"393 151 CURVE SMOOTH"
);
},
{
closed = 1;
nodes = (
"423 747 OFFCURVE",
"464 780 OFFCURVE",
"473 823 CURVE SMOOTH",
"482 866 OFFCURVE",
"455 901 OFFCURVE",
"413 901 CURVE SMOOTH",
"372 901 OFFCURVE",
"329 866 OFFCURVE",
"320 823 CURVE SMOOTH",
"311 780 OFFCURVE",
"340 747 OFFCURVE",
"381 747 CURVE SMOOTH"
);
},
{
closed = 1;
nodes = (
"658 747 OFFCURVE",
"700 780 OFFCURVE",
"709 823 CURVE SMOOTH",
"718 866 OFFCURVE",
"690 901 OFFCURVE",
"649 901 CURVE SMOOTH",
"607 901 OFFCURVE",
"564 866 OFFCURVE",
"555 823 CURVE SMOOTH",
"546 780 OFFCURVE",
"575 747 OFFCURVE",
"617 747 CURVE SMOOTH"
);
}
);
width = 800;
}
);
leftKerningGroup = O;
note = Odieresis;
rightKerningGroup = O;
unicode = 00D6;
},
{
glyphname = Odotbelow;
lastChange = "2015-10-28 18:15:24 +0000";
layers = (
{
layerId = "E876E4BA-4024-4F05-97F6-A7AFE1BCFA82";
name = Bold;
paths = (
{
closed = 1;
nodes = (
"568 -15 OFFCURVE",
"762 131 OFFCURVE",
"809 349 CURVE SMOOTH",
"855 568 OFFCURVE",
"723 714 OFFCURVE",
"512 714 CURVE SMOOTH",
"300 714 OFFCURVE",
"105 568 OFFCURVE",
"59 349 CURVE SMOOTH",
"12 131 OFFCURVE",
"145 -15 OFFCURVE",
"357 -15 CURVE SMOOTH"
);
},
{
closed = 1;
nodes = (
"361 -200 OFFCURVE",
"401 -166 OFFCURVE",
"410 -123 CURVE SMOOTH",
"419 -80 OFFCURVE",
"393 -46 OFFCURVE",
"352 -46 CURVE SMOOTH",
"310 -46 OFFCURVE",
"266 -80 OFFCURVE",
"257 -123 CURVE SMOOTH",
"248 -166 OFFCURVE",
"277 -200 OFFCURVE",
"319 -200 CURVE SMOOTH"
);
},
{
closed = 1;
nodes = (
"267 151 OFFCURVE",
"214 225 OFFCURVE",
"241 349 CURVE SMOOTH",
"267 471 OFFCURVE",
"368 547 OFFCURVE",
"477 547 CURVE SMOOTH",
"601 547 OFFCURVE",
"654 471 OFFCURVE",
"628 349 CURVE SMOOTH",
"601 225 OFFCURVE",
"499 151 OFFCURVE",
"393 151 CURVE SMOOTH"
);
}
);
width = 800;
}
);
leftKerningGroup = O;
note = Odotbelow;
rightKerningGroup = O;
unicode = 1ECC;
},
{
glyphname = Ograve;
lastChange = "2015-10-28 18:15:24 +0000";
layers = (
{
layerId = "E876E4BA-4024-4F05-97F6-A7AFE1BCFA82";
name = Bold;
paths = (
{
closed = 1;
nodes = (
"568 -15 OFFCURVE",
"762 131 OFFCURVE",
"809 349 CURVE SMOOTH",
"855 568 OFFCURVE",
"723 714 OFFCURVE",
"512 714 CURVE SMOOTH",
"300 714 OFFCURVE",
"105 568 OFFCURVE",
"59 349 CURVE SMOOTH",
"12 131 OFFCURVE",
"145 -15 OFFCURVE",
"357 -15 CURVE SMOOTH"
);
},
{
closed = 1;
nodes = (
"267 151 OFFCURVE",
"214 225 OFFCURVE",
"241 349 CURVE SMOOTH",
"267 471 OFFCURVE",
"368 547 OFFCURVE",
"477 547 CURVE SMOOTH",
"601 547 OFFCURVE",
"654 471 OFFCURVE",
"628 349 CURVE SMOOTH",
"601 225 OFFCURVE",
"499 151 OFFCURVE",
"393 151 CURVE SMOOTH"
);
},
{
closed = 1;
nodes = (
"601 742 LINE",
"570 920 LINE",
"385 920 LINE",
"438 742 LINE"
);
}
);
width = 800;
}
);
leftKerningGroup = O;
note = Ograve;
rightKerningGroup = O;
unicode = 00D2;
},
{
glyphname = Ohookabove;
lastChange = "2015-10-28 18:15:24 +0000";
layers = (
{
layerId = "E876E4BA-4024-4F05-97F6-A7AFE1BCFA82";
name = Bold;
paths = (
{
closed = 1;
nodes = (
"568 -15 OFFCURVE",
"762 131 OFFCURVE",
"809 349 CURVE SMOOTH",
"855 568 OFFCURVE",
"723 714 OFFCURVE",
"512 714 CURVE SMOOTH",
"300 714 OFFCURVE",
"105 568 OFFCURVE",
"59 349 CURVE SMOOTH",
"12 131 OFFCURVE",
"145 -15 OFFCURVE",
"357 -15 CURVE SMOOTH"
);
},
{
closed = 1;
nodes = (
"267 151 OFFCURVE",
"214 225 OFFCURVE",
"241 349 CURVE SMOOTH",
"267 471 OFFCURVE",
"368 547 OFFCURVE",
"477 547 CURVE SMOOTH",
"601 547 OFFCURVE",
"654 471 OFFCURVE",
"628 349 CURVE SMOOTH",
"601 225 OFFCURVE",
"499 151 OFFCURVE",
"393 151 CURVE SMOOTH"
);
},
{
closed = 1;
nodes = (
"574 742 LINE",
"579 767 LINE",
"638 781 OFFCURVE",
"679 821 OFFCURVE",
"689 869 CURVE SMOOTH",
"702 932 OFFCURVE",
"659 975 OFFCURVE",
"553 975 CURVE SMOOTH",
"513 975 OFFCURVE",
"461 968 OFFCURVE",
"430 959 CURVE",
"412 875 LINE",
"426 881 OFFCURVE",
"455 885 OFFCURVE",
"471 885 CURVE SMOOTH",
"513 885 OFFCURVE",
"528 873 OFFCURVE",
"523 852 CURVE",
"517 821 OFFCURVE",
"483 812 OFFCURVE",
"435 812 CURVE",
"420 742 LINE"
);
}
);
width = 800;
}
);
leftKerningGroup = O;
note = Ohookabove;
rightKerningGroup = O;
unicode = 1ECE;
},
{
glyphname = Ohorn;
lastChange = "2015-10-28 18:15:24 +0000";
layers = (
{
layerId = "E876E4BA-4024-4F05-97F6-A7AFE1BCFA82";
name = Bold;
paths = (
{
closed = 1;
nodes = (
"568 -15 OFFCURVE",
"762 131 OFFCURVE",
"809 349 CURVE SMOOTH",
"821 409 OFFCURVE",
"820 463 OFFCURVE",
"808 511 CURVE",
"910 531 OFFCURVE",
"979 607 OFFCURVE",
"1000 702 CURVE SMOOTH",
"1009 747 LINE",
"861 747 LINE",
"854 713 LINE SMOOTH",
"842 657 OFFCURVE",
"815 630 OFFCURVE",
"743 629 CURVE",
"689 683 OFFCURVE",
"609 714 OFFCURVE",
"512 714 CURVE SMOOTH",
"300 714 OFFCURVE",
"105 568 OFFCURVE",
"59 349 CURVE SMOOTH",
"12 131 OFFCURVE",
"145 -15 OFFCURVE",
"357 -15 CURVE SMOOTH"
);
},
{
closed = 1;
nodes = (
"267 151 OFFCURVE",
"214 225 OFFCURVE",
"241 349 CURVE SMOOTH",
"267 471 OFFCURVE",
"368 547 OFFCURVE",
"477 547 CURVE SMOOTH",
"601 547 OFFCURVE",
"654 471 OFFCURVE",
"628 349 CURVE SMOOTH",
"601 225 OFFCURVE",
"499 151 OFFCURVE",
"393 151 CURVE SMOOTH"
);
}
);
width = 896;
}
);
leftKerningGroup = O;
note = Ohorn;
rightKerningGroup = O;
unicode = 01A0;
},
{
glyphname = Ohornacute;
lastChange = "2015-10-28 18:15:24 +0000";
layers = (
{
layerId = "E876E4BA-4024-4F05-97F6-A7AFE1BCFA82";
name = Bold;
paths = (
{
closed = 1;
nodes = (
"568 -15 OFFCURVE",
"762 131 OFFCURVE",
"809 349 CURVE SMOOTH",
"821 409 OFFCURVE",
"820 463 OFFCURVE",
"808 511 CURVE",
"910 531 OFFCURVE",
"979 607 OFFCURVE",
"1000 702 CURVE SMOOTH",
"1009 747 LINE",
"861 747 LINE",
"854 713 LINE SMOOTH",
"842 657 OFFCURVE",
"815 630 OFFCURVE",
"743 629 CURVE",
"689 683 OFFCURVE",
"609 714 OFFCURVE",
"512 714 CURVE SMOOTH",
"300 714 OFFCURVE",
"105 568 OFFCURVE",
"59 349 CURVE SMOOTH",
"12 131 OFFCURVE",
"145 -15 OFFCURVE",
"357 -15 CURVE SMOOTH"
);
},
{
closed = 1;
nodes = (
"267 151 OFFCURVE",
"214 225 OFFCURVE",
"241 349 CURVE SMOOTH",
"267 471 OFFCURVE",
"368 547 OFFCURVE",
"477 547 CURVE SMOOTH",
"601 547 OFFCURVE",
"654 471 OFFCURVE",
"628 349 CURVE SMOOTH",
"601 225 OFFCURVE",
"499 151 OFFCURVE",
"393 151 CURVE SMOOTH"
);
},
{
closed = 1;
nodes = (
"592 742 LINE",
"721 920 LINE",
"536 920 LINE",
"429 742 LINE"
);
}
);
width = 896;
}
);
leftKerningGroup = O;
note = Ohornacute;
rightKerningGroup = O;
unicode = 1EDA;
},
{
glyphname = Ohorndotbelow;
lastChange = "2015-10-28 18:15:23 +0000";
layers = (
{
layerId = "E876E4BA-4024-4F05-97F6-A7AFE1BCFA82";
name = Bold;
paths = (
{
closed = 1;
nodes = (
"568 -15 OFFCURVE",
"762 131 OFFCURVE",
"809 349 CURVE SMOOTH",
"821 409 OFFCURVE",
"820 463 OFFCURVE",
"808 511 CURVE",
"910 531 OFFCURVE",
"979 607 OFFCURVE",
"1000 702 CURVE SMOOTH",
"1009 747 LINE",
"861 747 LINE",
"854 713 LINE SMOOTH",
"842 657 OFFCURVE",
"815 630 OFFCURVE",
"743 629 CURVE",
"689 683 OFFCURVE",
"609 714 OFFCURVE",
"512 714 CURVE SMOOTH",
"300 714 OFFCURVE",
"105 568 OFFCURVE",
"59 349 CURVE SMOOTH",
"12 131 OFFCURVE",
"145 -15 OFFCURVE",
"357 -15 CURVE SMOOTH"
);
},
{
closed = 1;
nodes = (
"373 -200 OFFCURVE",
"413 -166 OFFCURVE",
"422 -123 CURVE SMOOTH",
"431 -80 OFFCURVE",
"405 -46 OFFCURVE",
"364 -46 CURVE SMOOTH",
"322 -46 OFFCURVE",
"278 -80 OFFCURVE",
"269 -123 CURVE SMOOTH",
"260 -166 OFFCURVE",
"289 -200 OFFCURVE",
"331 -200 CURVE SMOOTH"
);
},
{
closed = 1;
nodes = (
"267 151 OFFCURVE",
"214 225 OFFCURVE",
"241 349 CURVE SMOOTH",
"267 471 OFFCURVE",
"368 547 OFFCURVE",
"477 547 CURVE SMOOTH",
"601 547 OFFCURVE",
"654 471 OFFCURVE",
"628 349 CURVE SMOOTH",
"601 225 OFFCURVE",
"499 151 OFFCURVE",
"393 151 CURVE SMOOTH"
);
}
);
width = 896;
}
);
leftKerningGroup = O;
note = Ohorndotbelow;
rightKerningGroup = O;
unicode = 1EE2;
},
{
glyphname = Ohorngrave;
lastChange = "2015-10-28 18:15:24 +0000";
layers = (
{
layerId = "E876E4BA-4024-4F05-97F6-A7AFE1BCFA82";
name = Bold;
paths = (
{
closed = 1;
nodes = (
"568 -15 OFFCURVE",
"762 131 OFFCURVE",
"809 349 CURVE SMOOTH",
"821 409 OFFCURVE",
"820 463 OFFCURVE",
"808 511 CURVE",
"910 531 OFFCURVE",
"979 607 OFFCURVE",
"1000 702 CURVE SMOOTH",
"1009 747 LINE",
"861 747 LINE",
"854 713 LINE SMOOTH",
"842 657 OFFCURVE",
"815 630 OFFCURVE",
"743 629 CURVE",
"689 683 OFFCURVE",
"609 714 OFFCURVE",
"512 714 CURVE SMOOTH",
"300 714 OFFCURVE",
"105 568 OFFCURVE",
"59 349 CURVE SMOOTH",
"12 131 OFFCURVE",
"145 -15 OFFCURVE",
"357 -15 CURVE SMOOTH"
);
},
{
closed = 1;
nodes = (
"267 151 OFFCURVE",
"214 225 OFFCURVE",
"241 349 CURVE SMOOTH",
"267 471 OFFCURVE",
"368 547 OFFCURVE",
"477 547 CURVE SMOOTH",
"601 547 OFFCURVE",
"654 471 OFFCURVE",
"628 349 CURVE SMOOTH",
"601 225 OFFCURVE",
"499 151 OFFCURVE",
"393 151 CURVE SMOOTH"
);
},
{
closed = 1;
nodes = (
"586 742 LINE",
"555 920 LINE",
"370 920 LINE",
"423 742 LINE"
);
}
);
width = 896;
}
);
leftKerningGroup = O;
note = Ohorngrave;
rightKerningGroup = O;
unicode = 1EDC;
},
{
glyphname = Ohornhookabove;
lastChange = "2015-10-28 18:15:24 +0000";
layers = (
{
layerId = "E876E4BA-4024-4F05-97F6-A7AFE1BCFA82";
name = Bold;
paths = (
{
closed = 1;
nodes = (
"568 -15 OFFCURVE",
"762 131 OFFCURVE",
"809 349 CURVE SMOOTH",
"821 409 OFFCURVE",
"820 463 OFFCURVE",
"808 511 CURVE",
"910 531 OFFCURVE",
"979 607 OFFCURVE",
"1000 702 CURVE SMOOTH",
"1009 747 LINE",
"861 747 LINE",
"854 713 LINE SMOOTH",
"842 657 OFFCURVE",
"815 630 OFFCURVE",
"743 629 CURVE",
"689 683 OFFCURVE",
"609 714 OFFCURVE",
"512 714 CURVE SMOOTH",
"300 714 OFFCURVE",
"105 568 OFFCURVE",
"59 349 CURVE SMOOTH",
"12 131 OFFCURVE",
"145 -15 OFFCURVE",
"357 -15 CURVE SMOOTH"
);
},
{
closed = 1;
nodes = (
"267 151 OFFCURVE",
"214 225 OFFCURVE",
"241 349 CURVE SMOOTH",
"267 471 OFFCURVE",
"368 547 OFFCURVE",
"477 547 CURVE SMOOTH",
"601 547 OFFCURVE",
"654 471 OFFCURVE",
"628 349 CURVE SMOOTH",
"601 225 OFFCURVE",
"499 151 OFFCURVE",
"393 151 CURVE SMOOTH"
);
},
{
closed = 1;
nodes = (
"584 742 LINE",
"589 767 LINE",
"648 781 OFFCURVE",
"689 821 OFFCURVE",
"699 869 CURVE SMOOTH",
"712 932 OFFCURVE",
"669 975 OFFCURVE",
"563 975 CURVE SMOOTH",
"523 975 OFFCURVE",
"471 968 OFFCURVE",
"440 959 CURVE",
"422 875 LINE",
"436 881 OFFCURVE",
"465 885 OFFCURVE",
"481 885 CURVE SMOOTH",
"523 885 OFFCURVE",
"538 873 OFFCURVE",
"533 852 CURVE",
"527 821 OFFCURVE",
"493 812 OFFCURVE",
"445 812 CURVE",
"430 742 LINE"
);
}
);
width = 896;
}
);
leftKerningGroup = O;
note = Ohornhookabove;
rightKerningGroup = O;
unicode = 1EDE;
},
{
glyphname = Ohorntilde;
lastChange = "2015-10-28 18:15:24 +0000";
layers = (
{
layerId = "E876E4BA-4024-4F05-97F6-A7AFE1BCFA82";
name = Bold;
paths = (
{
closed = 1;
nodes = (
"568 -15 OFFCURVE",
"762 131 OFFCURVE",
"809 349 CURVE SMOOTH",
"821 409 OFFCURVE",
"820 463 OFFCURVE",
"808 511 CURVE",
"910 531 OFFCURVE",
"979 607 OFFCURVE",
"1000 702 CURVE SMOOTH",
"1009 747 LINE",
"861 747 LINE",
"854 713 LINE SMOOTH",
"842 657 OFFCURVE",
"815 630 OFFCURVE",
"743 629 CURVE",
"689 683 OFFCURVE",
"609 714 OFFCURVE",
"512 714 CURVE SMOOTH",
"300 714 OFFCURVE",
"105 568 OFFCURVE",
"59 349 CURVE SMOOTH",
"12 131 OFFCURVE",
"145 -15 OFFCURVE",
"357 -15 CURVE SMOOTH"
);
},
{
closed = 1;
nodes = (
"267 151 OFFCURVE",
"214 225 OFFCURVE",
"241 349 CURVE SMOOTH",
"267 471 OFFCURVE",
"368 547 OFFCURVE",
"477 547 CURVE SMOOTH",
"601 547 OFFCURVE",
"654 471 OFFCURVE",
"628 349 CURVE SMOOTH",
"601 225 OFFCURVE",
"499 151 OFFCURVE",
"393 151 CURVE SMOOTH"
);
},
{
closed = 1;
nodes = (
"344 779 OFFCURVE",
"382 793 OFFCURVE",
"421 793 CURVE SMOOTH",
"485 793 OFFCURVE",
"535 743 OFFCURVE",
"608 743 CURVE SMOOTH",
"652 743 OFFCURVE",
"690 754 OFFCURVE",
"720 784 CURVE",
"747 912 LINE",
"710 876 OFFCURVE",
"673 862 OFFCURVE",
"633 862 CURVE SMOOTH",
"568 862 OFFCURVE",
"514 912 OFFCURVE",
"446 912 CURVE SMOOTH",
"403 912 OFFCURVE",
"364 900 OFFCURVE",
"333 870 CURVE",
"305 742 LINE"
);
}
);
width = 896;
}
);
leftKerningGroup = O;
note = Ohorntilde;
rightKerningGroup = O;
unicode = 1EE0;
},
{
glyphname = Ohungarumlaut;
lastChange = "2015-10-28 18:15:24 +0000";
layers = (
{
layerId = "E876E4BA-4024-4F05-97F6-A7AFE1BCFA82";
name = Bold;
paths = (
{
closed = 1;
nodes = (
"568 -15 OFFCURVE",
"762 131 OFFCURVE",
"809 349 CURVE SMOOTH",
"855 568 OFFCURVE",
"723 714 OFFCURVE",
"512 714 CURVE SMOOTH",
"300 714 OFFCURVE",
"105 568 OFFCURVE",
"59 349 CURVE SMOOTH",
"12 131 OFFCURVE",
"145 -15 OFFCURVE",
"357 -15 CURVE SMOOTH"
);
},
{
closed = 1;
nodes = (
"267 151 OFFCURVE",
"214 225 OFFCURVE",
"241 349 CURVE SMOOTH",
"267 471 OFFCURVE",
"368 547 OFFCURVE",
"477 547 CURVE SMOOTH",
"601 547 OFFCURVE",
"654 471 OFFCURVE",
"628 349 CURVE SMOOTH",
"601 225 OFFCURVE",
"499 151 OFFCURVE",
"393 151 CURVE SMOOTH"
);
},
{
closed = 1;
nodes = (
"435 742 LINE",
"563 919 LINE",
"394 919 LINE",
"288 742 LINE"
);
},
{
closed = 1;
nodes = (
"687 742 LINE",
"814 919 LINE",
"645 919 LINE",
"539 742 LINE"
);
}
);
width = 800;
}
);
leftKerningGroup = O;
note = Ohungarumlaut;
rightKerningGroup = O;
unicode = 0150;
},
{
glyphname = Omacron;
lastChange = "2015-10-28 18:15:24 +0000";
layers = (
{
layerId = "E876E4BA-4024-4F05-97F6-A7AFE1BCFA82";
name = Bold;
paths = (
{
closed = 1;
nodes = (
"568 -15 OFFCURVE",
"762 131 OFFCURVE",
"809 349 CURVE SMOOTH",
"855 568 OFFCURVE",
"723 714 OFFCURVE",
"512 714 CURVE SMOOTH",
"300 714 OFFCURVE",
"105 568 OFFCURVE",
"59 349 CURVE SMOOTH",
"12 131 OFFCURVE",
"145 -15 OFFCURVE",
"357 -15 CURVE SMOOTH"
);
},
{
closed = 1;
nodes = (
"267 151 OFFCURVE",
"214 225 OFFCURVE",
"241 349 CURVE SMOOTH",
"267 471 OFFCURVE",
"368 547 OFFCURVE",
"477 547 CURVE SMOOTH",
"601 547 OFFCURVE",
"654 471 OFFCURVE",
"628 349 CURVE SMOOTH",
"601 225 OFFCURVE",
"499 151 OFFCURVE",
"393 151 CURVE SMOOTH"
);
},
{
closed = 1;
nodes = (
"672 752 LINE",
"696 865 LINE",
"352 865 LINE",
"328 752 LINE"
);
}
);
width = 800;
}
);
leftKerningGroup = O;
note = Omacron;
rightKerningGroup = O;
unicode = 014C;
},
{
glyphname = Oslash;
lastChange = "2015-10-28 18:15:24 +0000";
layers = (
{
layerId = "E876E4BA-4024-4F05-97F6-A7AFE1BCFA82";
name = Bold;
paths = (
{
closed = 1;
nodes = (
"226 -86 LINE",
"274 -7 LINE",
"300 -12 OFFCURVE",
"328 -15 OFFCURVE",
"357 -15 CURVE SMOOTH",
"568 -15 OFFCURVE",
"762 131 OFFCURVE",
"809 349 CURVE SMOOTH",
"840 496 OFFCURVE",
"790 610 OFFCURVE",
"690 669 CURVE",
"761 784 LINE",
"639 784 LINE",
"591 706 LINE",
"566 711 OFFCURVE",
"540 714 OFFCURVE",
"512 714 CURVE SMOOTH",
"300 714 OFFCURVE",
"105 568 OFFCURVE",
"59 349 CURVE SMOOTH",
"27 203 OFFCURVE",
"76 90 OFFCURVE",
"175 30 CURVE",
"104 -86 LINE"
);
},
{
closed = 1;
nodes = (
"236 222 OFFCURVE",
"225 277 OFFCURVE",
"241 349 CURVE SMOOTH",
"267 471 OFFCURVE",
"368 547 OFFCURVE",
"477 547 CURVE SMOOTH",
"482 547 OFFCURVE",
"488 547 OFFCURVE",
"493 546 CURVE",
"273 189 LINE"
);
},
{
closed = 1;
nodes = (
"593 510 LINE",
"631 476 OFFCURVE",
"643 421 OFFCURVE",
"628 349 CURVE SMOOTH",
"601 225 OFFCURVE",
"499 151 OFFCURVE",
"393 151 CURVE SMOOTH",
"372 151 LINE"
);
}
);
width = 800;
}
);
leftKerningGroup = O;
note = Oslash;
rightKerningGroup = O;
unicode = 00D8;
},
{
glyphname = Oslashacute;
lastChange = "2015-10-28 18:15:24 +0000";
layers = (
{
layerId = "E876E4BA-4024-4F05-97F6-A7AFE1BCFA82";
name = Bold;
paths = (
{
closed = 1;
nodes = (
"231 -86 LINE",
"279 -8 LINE",
"303 -12 OFFCURVE",
"329 -15 OFFCURVE",
"357 -15 CURVE SMOOTH",
"568 -15 OFFCURVE",
"762 131 OFFCURVE",
"809 349 CURVE SMOOTH",
"839 494 OFFCURVE",
"791 607 OFFCURVE",
"694 667 CURVE",
"766 784 LINE",
"634 784 LINE",
"587 707 LINE",
"563 712 OFFCURVE",
"538 714 OFFCURVE",
"512 714 CURVE SMOOTH",
"300 714 OFFCURVE",
"105 568 OFFCURVE",
"59 349 CURVE SMOOTH",
"28 205 OFFCURVE",
"75 93 OFFCURVE",
"172 33 CURVE",
"99 -86 LINE"
);
},
{
closed = 1;
nodes = (
"245 235 OFFCURVE",
"233 285 OFFCURVE",
"247 349 CURVE SMOOTH",
"272 467 OFFCURVE",
"369 541 OFFCURVE",
"475 541 CURVE SMOOTH",
"484 541 LINE",
"276 202 LINE"
);
},
{
closed = 1;
nodes = (
"590 497 LINE",
"622 464 OFFCURVE",
"635 413 OFFCURVE",
"622 349 CURVE SMOOTH",
"596 229 OFFCURVE",
"497 157 OFFCURVE",
"394 157 CURVE SMOOTH",
"380 157 LINE"
);
},
{
closed = 1;
nodes = (
"569 742 LINE",
"697 919 LINE",
"512 919 LINE",
"406 742 LINE"
);
}
);
width = 800;
}
);
leftKerningGroup = O;
note = Oslashacute;
rightKerningGroup = O;
unicode = 01FE;
},
{
glyphname = Otilde;
lastChange = "2015-10-28 18:15:24 +0000";
layers = (
{
layerId = "E876E4BA-4024-4F05-97F6-A7AFE1BCFA82";
name = Bold;
paths = (
{
closed = 1;
nodes = (
"568 -15 OFFCURVE",
"762 131 OFFCURVE",
"809 349 CURVE SMOOTH",
"855 568 OFFCURVE",
"723 714 OFFCURVE",
"512 714 CURVE SMOOTH",
"300 714 OFFCURVE",
"105 568 OFFCURVE",
"59 349 CURVE SMOOTH",
"12 131 OFFCURVE",
"145 -15 OFFCURVE",
"357 -15 CURVE SMOOTH"
);
},
{
closed = 1;
nodes = (
"267 151 OFFCURVE",
"214 225 OFFCURVE",
"241 349 CURVE SMOOTH",
"267 471 OFFCURVE",
"368 547 OFFCURVE",
"477 547 CURVE SMOOTH",
"601 547 OFFCURVE",
"654 471 OFFCURVE",
"628 349 CURVE SMOOTH",
"601 225 OFFCURVE",
"499 151 OFFCURVE",
"393 151 CURVE SMOOTH"
);
},
{
closed = 1;
nodes = (
"333 779 OFFCURVE",
"371 793 OFFCURVE",
"410 793 CURVE SMOOTH",
"474 793 OFFCURVE",
"524 743 OFFCURVE",
"597 743 CURVE SMOOTH",
"641 743 OFFCURVE",
"679 754 OFFCURVE",
"709 784 CURVE",
"736 912 LINE",
"699 876 OFFCURVE",
"662 862 OFFCURVE",
"622 862 CURVE SMOOTH",
"557 862 OFFCURVE",
"503 912 OFFCURVE",
"435 912 CURVE SMOOTH",
"392 912 OFFCURVE",
"353 900 OFFCURVE",
"322 870 CURVE",
"294 742 LINE"
);
}
);
width = 800;
}
);
leftKerningGroup = O;
note = Otilde;
rightKerningGroup = O;
unicode = 00D5;
},
{
glyphname = OE;
lastChange = "2015-10-28 18:15:24 +0000";
layers = (
{
layerId = "E876E4BA-4024-4F05-97F6-A7AFE1BCFA82";
name = Bold;
paths = (
{
closed = 1;
nodes = (
"824 0 LINE",
"855 149 LINE",
"574 149 LINE",
"602 280 LINE",
"797 280 LINE",
"827 419 LINE",
"632 419 LINE",
"659 550 LINE",
"940 550 LINE",
"972 699 LINE",
"532 699 LINE SMOOTH",
"273 699 OFFCURVE",
"105 568 OFFCURVE",
"59 349 CURVE SMOOTH",
"12 131 OFFCURVE",
"167 0 OFFCURVE",
"384 0 CURVE SMOOTH"
);
},
{
closed = 1;
nodes = (
"254 149 OFFCURVE",
"214 224 OFFCURVE",
"241 349 CURVE SMOOTH",
"267 473 OFFCURVE",
"358 550 OFFCURVE",
"482 550 CURVE",
"397 149 LINE"
);
}
);
width = 889;
}
);
leftKerningGroup = O;
note = OE;
rightKerningGroup = E;
unicode = 0152;
},
{
glyphname = P;
lastChange = "2015-10-28 18:15:24 +0000";
layers = (
{
layerId = "E876E4BA-4024-4F05-97F6-A7AFE1BCFA82";
name = Bold;
paths = (
{
closed = 1;
nodes = (
"182 0 LINE",
"226 209 LINE",
"357 209 LINE SMOOTH",
"534 209 OFFCURVE",
"644 296 OFFCURVE",
"677 456 CURVE SMOOTH",
"709 610 OFFCURVE",
"607 699 OFFCURVE",
"461 699 CURVE SMOOTH",
"153 699 LINE",
"5 0 LINE"
);
},
{
closed = 1;
nodes = (
"298 550 LINE",
"401 550 LINE SMOOTH",
"465 550 OFFCURVE",
"512 533 OFFCURVE",
"495 456 CURVE SMOOTH",
"479 379 OFFCURVE",
"437 358 OFFCURVE",
"361 358 CURVE SMOOTH",
"258 358 LINE"
);
}
);
width = 636;
}
);
note = P;
unicode = 0050;
},
{
glyphname = Thorn;
lastChange = "2015-10-28 18:15:24 +0000";
layers = (
{
layerId = "E876E4BA-4024-4F05-97F6-A7AFE1BCFA82";
name = Bold;
paths = (
{
closed = 1;
nodes = (
"182 0 LINE",
"206 116 LINE",
"341 116 LINE SMOOTH",
"524 116 OFFCURVE",
"621 192 OFFCURVE",
"655 352 CURVE SMOOTH",
"687 503 OFFCURVE",
"589 588 OFFCURVE",
"441 588 CURVE SMOOTH",
"306 588 LINE",
"330 699 LINE",
"153 699 LINE",
"5 0 LINE"
);
},
{
closed = 1;
nodes = (
"275 439 LINE",
"378 439 LINE SMOOTH",
"442 439 OFFCURVE",
"489 425 OFFCURVE",
"473 352 CURVE SMOOTH",
"458 279 OFFCURVE",
"405 265 OFFCURVE",
"341 265 CURVE SMOOTH",
"238 265 LINE"
);
}
);
width = 636;
}
);
note = Thorn;
unicode = 00DE;
},
{
glyphname = Q;
lastChange = "2015-10-28 18:15:24 +0000";
layers = (
{
layerId = "E876E4BA-4024-4F05-97F6-A7AFE1BCFA82";
name = Bold;
paths = (
{
closed = 1;
nodes = (
"753 0 LINE",
"782 138 LINE",
"665 138 LINE",
"728 183 OFFCURVE",
"791 268 OFFCURVE",
"809 350 CURVE SMOOTH",
"855 569 OFFCURVE",
"723 714 OFFCURVE",
"512 714 CURVE SMOOTH",
"288 714 OFFCURVE",
"105 569 OFFCURVE",
"59 350 CURVE SMOOTH",
"13 134 OFFCURVE",
"143 0 OFFCURVE",
"383 0 CURVE SMOOTH"
);
},
{
closed = 1;
nodes = (
"267 151 OFFCURVE",
"214 225 OFFCURVE",
"241 349 CURVE SMOOTH",
"267 471 OFFCURVE",
"368 547 OFFCURVE",
"477 547 CURVE SMOOTH",
"603 547 OFFCURVE",
"654 471 OFFCURVE",
"628 349 CURVE SMOOTH",
"601 225 OFFCURVE",
"499 151 OFFCURVE",
"393 151 CURVE SMOOTH"
);
}
);
width = 803;
}
);
leftKerningGroup = O;
note = Q;
rightKerningGroup = O;
unicode = 0051;
},
{
glyphname = R;
lastChange = "2015-10-28 18:15:23 +0000";
layers = (
{
layerId = "E876E4BA-4024-4F05-97F6-A7AFE1BCFA82";
name = Bold;
paths = (
{
closed = 1;
nodes = (
"182 0 LINE",
"228 219 LINE",
"328 219 LINE",
"393 0 LINE",
"575 0 LINE",
"503 244 LINE",
"592 280 OFFCURVE",
"656 354 OFFCURVE",
"678 459 CURVE SMOOTH",
"708 605 OFFCURVE",
"620 699 OFFCURVE",
"467 699 CURVE SMOOTH",
"153 699 LINE",
"5 0 LINE"
);
},
{
closed = 1;
nodes = (
"298 550 LINE",
"408 550 LINE SMOOTH",
"472 550 OFFCURVE",
"512 533 OFFCURVE",
"496 459 CURVE SMOOTH",
"481 389 OFFCURVE",
"431 368 OFFCURVE",
"366 368 CURVE SMOOTH",
"260 368 LINE"
);
}
);
width = 646;
}
);
note = R;
rightKerningGroup = R;
unicode = 0052;
},
{
glyphname = Racute;
lastChange = "2015-10-28 18:15:24 +0000";
layers = (
{
layerId = "E876E4BA-4024-4F05-97F6-A7AFE1BCFA82";
name = Bold;
paths = (
{
closed = 1;
nodes = (
"182 0 LINE",
"228 219 LINE",
"328 219 LINE",
"393 0 LINE",
"575 0 LINE",
"503 244 LINE",
"592 280 OFFCURVE",
"656 354 OFFCURVE",
"678 459 CURVE SMOOTH",
"708 605 OFFCURVE",
"620 699 OFFCURVE",
"467 699 CURVE SMOOTH",
"153 699 LINE",
"5 0 LINE"
);
},
{
closed = 1;
nodes = (
"298 550 LINE",
"408 550 LINE SMOOTH",
"472 550 OFFCURVE",
"512 533 OFFCURVE",
"496 459 CURVE SMOOTH",
"481 389 OFFCURVE",
"431 368 OFFCURVE",
"366 368 CURVE SMOOTH",
"260 368 LINE"
);
},
{
closed = 1;
nodes = (
"460 742 LINE",
"589 920 LINE",
"404 920 LINE",
"297 742 LINE"
);
}
);
width = 646;
}
);
note = Racute;
rightKerningGroup = R;
unicode = 0154;
},
{
glyphname = Rcaron;
lastChange = "2015-10-28 18:15:24 +0000";
layers = (
{
layerId = "E876E4BA-4024-4F05-97F6-A7AFE1BCFA82";
name = Bold;
paths = (
{
closed = 1;
nodes = (
"182 0 LINE",
"228 219 LINE",
"328 219 LINE",
"393 0 LINE",
"575 0 LINE",
"503 244 LINE",
"592 280 OFFCURVE",
"656 354 OFFCURVE",
"678 459 CURVE SMOOTH",
"708 605 OFFCURVE",
"620 699 OFFCURVE",
"467 699 CURVE SMOOTH",
"153 699 LINE",
"5 0 LINE"
);
},
{
closed = 1;
nodes = (
"298 550 LINE",
"408 550 LINE SMOOTH",
"472 550 OFFCURVE",
"512 533 OFFCURVE",
"496 459 CURVE SMOOTH",
"481 389 OFFCURVE",
"431 368 OFFCURVE",
"366 368 CURVE SMOOTH",
"260 368 LINE"
);
},
{
closed = 1;
nodes = (
"492 742 LINE",
"686 923 LINE",
"507 923 LINE",
"429 838 LINE",
"387 923 LINE",
"218 923 LINE",
"335 742 LINE"
);
}
);
width = 646;
}
);
note = Rcaron;
rightKerningGroup = R;
unicode = 0158;
},
{
glyphname = Rcommaaccent;
lastChange = "2015-10-28 18:15:24 +0000";
layers = (
{
layerId = "E876E4BA-4024-4F05-97F6-A7AFE1BCFA82";
name = Bold;
paths = (
{
closed = 1;
nodes = (
"182 0 LINE",
"228 219 LINE",
"328 219 LINE",
"393 0 LINE",
"575 0 LINE",
"503 244 LINE",
"592 280 OFFCURVE",
"656 354 OFFCURVE",
"678 459 CURVE SMOOTH",
"708 605 OFFCURVE",
"620 699 OFFCURVE",
"467 699 CURVE SMOOTH",
"153 699 LINE",
"5 0 LINE"
);
},
{
closed = 1;
nodes = (
"212 -260 LINE",
"362 -49 LINE",
"180 -49 LINE",
"53 -260 LINE"
);
},
{
closed = 1;
nodes = (
"298 550 LINE",
"408 550 LINE SMOOTH",
"472 550 OFFCURVE",
"512 533 OFFCURVE",
"496 459 CURVE SMOOTH",
"481 389 OFFCURVE",
"431 368 OFFCURVE",
"366 368 CURVE SMOOTH",
"260 368 LINE"
);
}
);
width = 646;
}
);
note = Rcommaaccent;
rightKerningGroup = R;
unicode = 0156;
},
{
glyphname = Rdotbelow;
lastChange = "2015-10-28 18:15:23 +0000";
layers = (
{
layerId = "E876E4BA-4024-4F05-97F6-A7AFE1BCFA82";
name = Bold;
paths = (
{
closed = 1;
nodes = (
"182 0 LINE",
"228 219 LINE",
"328 219 LINE",
"393 0 LINE",
"575 0 LINE",
"503 244 LINE",
"592 280 OFFCURVE",
"656 354 OFFCURVE",
"678 459 CURVE SMOOTH",
"708 605 OFFCURVE",
"620 699 OFFCURVE",
"467 699 CURVE SMOOTH",
"153 699 LINE",
"5 0 LINE"
);
},
{
closed = 1;
nodes = (
"284 -200 OFFCURVE",
"324 -166 OFFCURVE",
"333 -123 CURVE SMOOTH",
"342 -80 OFFCURVE",
"316 -46 OFFCURVE",
"275 -46 CURVE SMOOTH",
"233 -46 OFFCURVE",
"189 -80 OFFCURVE",
"180 -123 CURVE SMOOTH",
"171 -166 OFFCURVE",
"200 -200 OFFCURVE",
"242 -200 CURVE SMOOTH"
);
},
{
closed = 1;
nodes = (
"298 550 LINE",
"408 550 LINE SMOOTH",
"472 550 OFFCURVE",
"512 533 OFFCURVE",
"496 459 CURVE SMOOTH",
"481 389 OFFCURVE",
"431 368 OFFCURVE",
"366 368 CURVE SMOOTH",
"260 368 LINE"
);
}
);
width = 646;
}
);
note = Rdotbelow;
rightKerningGroup = R;
unicode = 1E5A;
},
{
glyphname = Rdotbelowmacron;
lastChange = "2015-10-28 18:15:23 +0000";
layers = (
{
layerId = "E876E4BA-4024-4F05-97F6-A7AFE1BCFA82";
name = Bold;
paths = (
{
closed = 1;
nodes = (
"182 0 LINE",
"228 219 LINE",
"328 219 LINE",
"393 0 LINE",
"575 0 LINE",
"503 244 LINE",
"592 280 OFFCURVE",
"656 354 OFFCURVE",
"678 459 CURVE SMOOTH",
"708 605 OFFCURVE",
"620 699 OFFCURVE",
"467 699 CURVE SMOOTH",
"153 699 LINE",
"5 0 LINE"
);
},
{
closed = 1;
nodes = (
"267 -200 OFFCURVE",
"307 -166 OFFCURVE",
"316 -123 CURVE SMOOTH",
"325 -80 OFFCURVE",
"299 -46 OFFCURVE",
"258 -46 CURVE SMOOTH",
"216 -46 OFFCURVE",
"172 -80 OFFCURVE",
"163 -123 CURVE SMOOTH",
"154 -166 OFFCURVE",
"183 -200 OFFCURVE",
"225 -200 CURVE SMOOTH"
);
},
{
closed = 1;
nodes = (
"298 550 LINE",
"408 550 LINE SMOOTH",
"472 550 OFFCURVE",
"512 533 OFFCURVE",
"496 459 CURVE SMOOTH",
"481 389 OFFCURVE",
"431 368 OFFCURVE",
"366 368 CURVE SMOOTH",
"260 368 LINE"
);
},
{
closed = 1;
nodes = (
"578 752 LINE",
"602 865 LINE",
"258 865 LINE",
"234 752 LINE"
);
}
);
width = 646;
}
);
note = Rdotbelowmacron;
rightKerningGroup = R;
unicode = 1E5C;
},
{
glyphname = Rlinebelow;
lastChange = "2015-10-28 18:15:24 +0000";
layers = (
{
layerId = "E876E4BA-4024-4F05-97F6-A7AFE1BCFA82";
name = Bold;
paths = (
{
closed = 1;
nodes = (
"182 0 LINE",
"228 219 LINE",
"328 219 LINE",
"393 0 LINE",
"575 0 LINE",
"503 244 LINE",
"592 280 OFFCURVE",
"656 354 OFFCURVE",
"678 459 CURVE SMOOTH",
"708 605 OFFCURVE",
"620 699 OFFCURVE",
"467 699 CURVE SMOOTH",
"153 699 LINE",
"5 0 LINE"
);
},
{
closed = 1;
nodes = (
"419 -172 LINE",
"443 -59 LINE",
"99 -59 LINE",
"75 -172 LINE"
);
},
{
closed = 1;
nodes = (
"298 550 LINE",
"408 550 LINE SMOOTH",
"472 550 OFFCURVE",
"512 533 OFFCURVE",
"496 459 CURVE SMOOTH",
"481 389 OFFCURVE",
"431 368 OFFCURVE",
"366 368 CURVE SMOOTH",
"260 368 LINE"
);
}
);
width = 646;
}
);
note = Rlinebelow;
rightKerningGroup = R;
unicode = 1E5E;
},
{
glyphname = S;
lastChange = "2015-10-28 18:15:24 +0000";
layers = (
{
layerId = "E876E4BA-4024-4F05-97F6-A7AFE1BCFA82";
name = Bold;
paths = (
{
closed = 1;
nodes = (
"425 -15 OFFCURVE",
"518 65 OFFCURVE",
"544 191 CURVE SMOOTH",
"566 299 OFFCURVE",
"528 351 OFFCURVE",
"404 407 CURVE SMOOTH",
"322 442 OFFCURVE",
"279 461 OFFCURVE",
"288 503 CURVE SMOOTH",
"297 542 OFFCURVE",
"344 563 OFFCURVE",
"406 563 CURVE SMOOTH",
"464 563 OFFCURVE",
"521 548 OFFCURVE",
"573 517 CURVE",
"606 672 LINE",
"552 701 OFFCURVE",
"491 714 OFFCURVE",
"405 714 CURVE SMOOTH",
"236 714 OFFCURVE",
"122 630 OFFCURVE",
"96 508 CURVE SMOOTH",
"75 409 OFFCURVE",
"119 348 OFFCURVE",
"236 294 CURVE SMOOTH",
"322 255 OFFCURVE",
"358 237 OFFCURVE",
"349 193 CURVE SMOOTH",
"341 156 OFFCURVE",
"303 135 OFFCURVE",
"237 135 CURVE SMOOTH",
"169 135 OFFCURVE",
"91 153 OFFCURVE",
"25 191 CURVE",
"-9 32 LINE",
"41 3 OFFCURVE",
"132 -15 OFFCURVE",
"219 -15 CURVE SMOOTH"
);
}
);
width = 569;
}
);
leftKerningGroup = S;
note = S;
rightKerningGroup = S;
unicode = 0053;
},
{
glyphname = Sacute;
lastChange = "2015-10-28 18:15:24 +0000";
layers = (
{
layerId = "E876E4BA-4024-4F05-97F6-A7AFE1BCFA82";
name = Bold;
paths = (
{
closed = 1;
nodes = (
"425 -15 OFFCURVE",
"518 65 OFFCURVE",
"544 191 CURVE SMOOTH",
"566 299 OFFCURVE",
"528 351 OFFCURVE",
"404 407 CURVE SMOOTH",
"322 442 OFFCURVE",
"279 461 OFFCURVE",
"288 503 CURVE SMOOTH",
"297 542 OFFCURVE",
"344 563 OFFCURVE",
"406 563 CURVE SMOOTH",
"464 563 OFFCURVE",
"521 548 OFFCURVE",
"573 517 CURVE",
"606 672 LINE",
"552 701 OFFCURVE",
"491 714 OFFCURVE",
"405 714 CURVE SMOOTH",
"236 714 OFFCURVE",
"122 630 OFFCURVE",
"96 508 CURVE SMOOTH",
"75 409 OFFCURVE",
"119 348 OFFCURVE",
"236 294 CURVE SMOOTH",
"322 255 OFFCURVE",
"358 237 OFFCURVE",
"349 193 CURVE SMOOTH",
"341 156 OFFCURVE",
"303 135 OFFCURVE",
"237 135 CURVE SMOOTH",
"169 135 OFFCURVE",
"91 153 OFFCURVE",
"25 191 CURVE",
"-9 32 LINE",
"41 3 OFFCURVE",
"132 -15 OFFCURVE",
"219 -15 CURVE SMOOTH"
);
},
{
closed = 1;
nodes = (
"465 742 LINE",
"594 920 LINE",
"409 920 LINE",
"302 742 LINE"
);
}
);
width = 569;
}
);
leftKerningGroup = S;
note = Sacute;
rightKerningGroup = S;
unicode = 015A;
},
{
glyphname = Scaron;
lastChange = "2015-10-28 18:15:24 +0000";
layers = (
{
layerId = "E876E4BA-4024-4F05-97F6-A7AFE1BCFA82";
name = Bold;
paths = (
{
closed = 1;
nodes = (
"425 -15 OFFCURVE",
"518 65 OFFCURVE",
"544 191 CURVE SMOOTH",
"566 299 OFFCURVE",
"528 351 OFFCURVE",
"404 407 CURVE SMOOTH",
"322 442 OFFCURVE",
"279 461 OFFCURVE",
"288 503 CURVE SMOOTH",
"297 542 OFFCURVE",
"344 563 OFFCURVE",
"406 563 CURVE SMOOTH",
"464 563 OFFCURVE",
"521 548 OFFCURVE",
"573 517 CURVE",
"606 672 LINE",
"552 701 OFFCURVE",
"491 714 OFFCURVE",
"405 714 CURVE SMOOTH",
"236 714 OFFCURVE",
"122 630 OFFCURVE",
"96 508 CURVE SMOOTH",
"75 409 OFFCURVE",
"119 348 OFFCURVE",
"236 294 CURVE SMOOTH",
"322 255 OFFCURVE",
"358 237 OFFCURVE",
"349 193 CURVE SMOOTH",
"341 156 OFFCURVE",
"303 135 OFFCURVE",
"237 135 CURVE SMOOTH",
"169 135 OFFCURVE",
"91 153 OFFCURVE",
"25 191 CURVE",
"-9 32 LINE",
"41 3 OFFCURVE",
"132 -15 OFFCURVE",
"219 -15 CURVE SMOOTH"
);
},
{
closed = 1;
nodes = (
"470 742 LINE",
"664 923 LINE",
"485 923 LINE",
"407 838 LINE",
"365 923 LINE",
"196 923 LINE",
"313 742 LINE"
);
}
);
width = 569;
}
);
leftKerningGroup = S;
note = Scaron;
rightKerningGroup = S;
unicode = 0160;
},
{
glyphname = Scedilla;
lastChange = "2015-10-28 18:15:24 +0000";
layers = (
{
layerId = "E876E4BA-4024-4F05-97F6-A7AFE1BCFA82";
name = Bold;
paths = (
{
closed = 1;
nodes = (
"425 -15 OFFCURVE",
"518 65 OFFCURVE",
"544 191 CURVE SMOOTH",
"566 299 OFFCURVE",
"528 351 OFFCURVE",
"404 407 CURVE SMOOTH",
"322 442 OFFCURVE",
"279 461 OFFCURVE",
"288 503 CURVE SMOOTH",
"297 542 OFFCURVE",
"344 563 OFFCURVE",
"406 563 CURVE SMOOTH",
"464 563 OFFCURVE",
"521 548 OFFCURVE",
"573 517 CURVE",
"606 672 LINE",
"552 701 OFFCURVE",
"491 714 OFFCURVE",
"405 714 CURVE SMOOTH",
"236 714 OFFCURVE",
"122 630 OFFCURVE",
"96 508 CURVE SMOOTH",
"75 409 OFFCURVE",
"119 348 OFFCURVE",
"236 294 CURVE SMOOTH",
"322 255 OFFCURVE",
"358 237 OFFCURVE",
"349 193 CURVE SMOOTH",
"341 156 OFFCURVE",
"303 135 OFFCURVE",
"237 135 CURVE SMOOTH",
"169 135 OFFCURVE",
"91 153 OFFCURVE",
"25 191 CURVE",
"-9 32 LINE",
"41 3 OFFCURVE",
"132 -15 OFFCURVE",
"219 -15 CURVE SMOOTH"
);
},
{
closed = 1;
nodes = (
"271 -248 OFFCURVE",
"344 -215 OFFCURVE",
"358 -141 CURVE SMOOTH",
"367 -92 OFFCURVE",
"339 -56 OFFCURVE",
"289 -46 CURVE",
"317 0 LINE",
"162 0 LINE",
"110 -89 LINE",
"185 -89 OFFCURVE",
"204 -105 OFFCURVE",
"199 -129 CURVE SMOOTH",
"195 -150 OFFCURVE",
"175 -163 OFFCURVE",
"142 -163 CURVE SMOOTH",
"119 -163 OFFCURVE",
"97 -157 OFFCURVE",
"84 -149 CURVE",
"66 -234 LINE",
"85 -242 OFFCURVE",
"130 -248 OFFCURVE",
"176 -248 CURVE SMOOTH"
);
}
);
width = 569;
}
);
leftKerningGroup = S;
note = Scedilla;
rightKerningGroup = S;
unicode = 015E;
},
{
glyphname = Scircumflex;
lastChange = "2015-10-28 18:15:24 +0000";
layers = (
{
layerId = "E876E4BA-4024-4F05-97F6-A7AFE1BCFA82";
name = Bold;
paths = (
{
closed = 1;
nodes = (
"425 -15 OFFCURVE",
"518 65 OFFCURVE",
"544 191 CURVE SMOOTH",
"566 299 OFFCURVE",
"528 351 OFFCURVE",
"404 407 CURVE SMOOTH",
"322 442 OFFCURVE",
"279 461 OFFCURVE",
"288 503 CURVE SMOOTH",
"297 542 OFFCURVE",
"344 563 OFFCURVE",
"406 563 CURVE SMOOTH",
"464 563 OFFCURVE",
"521 548 OFFCURVE",
"573 517 CURVE",
"606 672 LINE",
"552 701 OFFCURVE",
"491 714 OFFCURVE",
"405 714 CURVE SMOOTH",
"236 714 OFFCURVE",
"122 630 OFFCURVE",
"96 508 CURVE SMOOTH",
"75 409 OFFCURVE",
"119 348 OFFCURVE",
"236 294 CURVE SMOOTH",
"322 255 OFFCURVE",
"358 237 OFFCURVE",
"349 193 CURVE SMOOTH",
"341 156 OFFCURVE",
"303 135 OFFCURVE",
"237 135 CURVE SMOOTH",
"169 135 OFFCURVE",
"91 153 OFFCURVE",
"25 191 CURVE",
"-9 32 LINE",
"41 3 OFFCURVE",
"132 -15 OFFCURVE",
"219 -15 CURVE SMOOTH"
);
},
{
closed = 1;
nodes = (
"333 742 LINE",
"411 827 LINE",
"453 742 LINE",
"622 742 LINE",
"504 923 LINE",
"347 923 LINE",
"154 742 LINE"
);
}
);
width = 569;
}
);
leftKerningGroup = S;
note = Scircumflex;
rightKerningGroup = S;
unicode = 015C;
},
{
glyphname = Scommaaccent;
lastChange = "2015-10-28 18:15:24 +0000";
layers = (
{
layerId = "E876E4BA-4024-4F05-97F6-A7AFE1BCFA82";
name = Bold;
paths = (
{
closed = 1;
nodes = (
"425 -15 OFFCURVE",
"518 65 OFFCURVE",
"544 191 CURVE SMOOTH",
"566 299 OFFCURVE",
"528 351 OFFCURVE",
"404 407 CURVE SMOOTH",
"322 442 OFFCURVE",
"279 461 OFFCURVE",
"288 503 CURVE SMOOTH",
"297 542 OFFCURVE",
"344 563 OFFCURVE",
"406 563 CURVE SMOOTH",
"464 563 OFFCURVE",
"521 548 OFFCURVE",
"573 517 CURVE",
"606 672 LINE",
"552 701 OFFCURVE",
"491 714 OFFCURVE",
"405 714 CURVE SMOOTH",
"236 714 OFFCURVE",
"122 630 OFFCURVE",
"96 508 CURVE SMOOTH",
"75 409 OFFCURVE",
"119 348 OFFCURVE",
"236 294 CURVE SMOOTH",
"322 255 OFFCURVE",
"358 237 OFFCURVE",
"349 193 CURVE SMOOTH",
"341 156 OFFCURVE",
"303 135 OFFCURVE",
"237 135 CURVE SMOOTH",
"169 135 OFFCURVE",
"91 153 OFFCURVE",
"25 191 CURVE",
"-9 32 LINE",
"41 3 OFFCURVE",
"132 -15 OFFCURVE",
"219 -15 CURVE SMOOTH"
);
},
{
closed = 1;
nodes = (
"185 -259 LINE",
"333 -49 LINE",
"153 -49 LINE",
"25 -259 LINE"
);
}
);
width = 569;
}
);
leftKerningGroup = S;
note = Scommaaccent;
rightKerningGroup = S;
unicode = 0218;
},
{
glyphname = Sdotaccent;
lastChange = "2015-10-28 18:15:23 +0000";
layers = (
{
layerId = "E876E4BA-4024-4F05-97F6-A7AFE1BCFA82";
name = Bold;
paths = (
{
closed = 1;
nodes = (
"425 -15 OFFCURVE",
"518 65 OFFCURVE",
"544 191 CURVE SMOOTH",
"566 299 OFFCURVE",
"528 351 OFFCURVE",
"404 407 CURVE SMOOTH",
"322 442 OFFCURVE",
"279 461 OFFCURVE",
"288 503 CURVE SMOOTH",
"297 542 OFFCURVE",
"344 563 OFFCURVE",
"406 563 CURVE SMOOTH",
"464 563 OFFCURVE",
"521 548 OFFCURVE",
"573 517 CURVE",
"606 672 LINE",
"552 701 OFFCURVE",
"491 714 OFFCURVE",
"405 714 CURVE SMOOTH",
"236 714 OFFCURVE",
"122 630 OFFCURVE",
"96 508 CURVE SMOOTH",
"75 409 OFFCURVE",
"119 348 OFFCURVE",
"236 294 CURVE SMOOTH",
"322 255 OFFCURVE",
"358 237 OFFCURVE",
"349 193 CURVE SMOOTH",
"341 156 OFFCURVE",
"303 135 OFFCURVE",
"237 135 CURVE SMOOTH",
"169 135 OFFCURVE",
"91 153 OFFCURVE",
"25 191 CURVE",
"-9 32 LINE",
"41 3 OFFCURVE",
"132 -15 OFFCURVE",
"219 -15 CURVE SMOOTH"
);
},
{
closed = 1;
nodes = (
"441 752 OFFCURVE",
"482 785 OFFCURVE",
"491 828 CURVE SMOOTH",
"500 871 OFFCURVE",
"473 906 OFFCURVE",
"431 906 CURVE SMOOTH",
"389 906 OFFCURVE",
"346 871 OFFCURVE",
"337 828 CURVE SMOOTH",
"328 785 OFFCURVE",
"357 752 OFFCURVE",
"399 752 CURVE SMOOTH"
);
}
);
width = 569;
}
);
leftKerningGroup = S;
note = Sdotaccent;
rightKerningGroup = S;
unicode = 1E60;
},
{
glyphname = Sdotbelow;
lastChange = "2015-10-28 18:15:24 +0000";
layers = (
{
layerId = "E876E4BA-4024-4F05-97F6-A7AFE1BCFA82";
name = Bold;
paths = (
{
closed = 1;
nodes = (
"425 -15 OFFCURVE",
"518 65 OFFCURVE",
"544 191 CURVE SMOOTH",
"566 299 OFFCURVE",
"528 351 OFFCURVE",
"404 407 CURVE SMOOTH",
"322 442 OFFCURVE",
"279 461 OFFCURVE",
"288 503 CURVE SMOOTH",
"297 542 OFFCURVE",
"344 563 OFFCURVE",
"406 563 CURVE SMOOTH",
"464 563 OFFCURVE",
"521 548 OFFCURVE",
"573 517 CURVE",
"606 672 LINE",
"552 701 OFFCURVE",
"491 714 OFFCURVE",
"405 714 CURVE SMOOTH",
"236 714 OFFCURVE",
"122 630 OFFCURVE",
"96 508 CURVE SMOOTH",
"75 409 OFFCURVE",
"119 348 OFFCURVE",
"236 294 CURVE SMOOTH",
"322 255 OFFCURVE",
"358 237 OFFCURVE",
"349 193 CURVE SMOOTH",
"341 156 OFFCURVE",
"303 135 OFFCURVE",
"237 135 CURVE SMOOTH",
"169 135 OFFCURVE",
"91 153 OFFCURVE",
"25 191 CURVE",
"-9 32 LINE",
"41 3 OFFCURVE",
"132 -15 OFFCURVE",
"219 -15 CURVE SMOOTH"
);
},
{
closed = 1;
nodes = (
"246 -200 OFFCURVE",
"286 -166 OFFCURVE",
"295 -123 CURVE SMOOTH",
"304 -80 OFFCURVE",
"278 -46 OFFCURVE",
"237 -46 CURVE SMOOTH",
"195 -46 OFFCURVE",
"151 -80 OFFCURVE",
"142 -123 CURVE SMOOTH",
"133 -166 OFFCURVE",
"162 -200 OFFCURVE",
"204 -200 CURVE SMOOTH"
);
}
);
width = 569;
}
);
leftKerningGroup = S;
note = Sdotbelow;
rightKerningGroup = S;
unicode = 1E62;
},
{
glyphname = Germandbls;
lastChange = "2015-10-28 18:15:24 +0000";
layers = (
{
layerId = "E876E4BA-4024-4F05-97F6-A7AFE1BCFA82";
name = Bold;
paths = (
{
closed = 1;
nodes = (
"499 -15 OFFCURVE",
"601 66 OFFCURVE",
"628 196 CURVE SMOOTH",
"649 294 OFFCURVE",
"620 359 OFFCURVE",
"526 385 CURVE",
"648 493 LINE",
"656 600 OFFCURVE",
"588 714 OFFCURVE",
"421 714 CURVE SMOOTH",
"226 714 OFFCURVE",
"130 616 OFFCURVE",
"96 454 CURVE SMOOTH",
"0 0 LINE",
"176 0 LINE",
"276 472 LINE SMOOTH",
"289 536 OFFCURVE",
"330 570 OFFCURVE",
"391 570 CURVE SMOOTH",
"451 570 OFFCURVE",
"460 541 OFFCURVE",
"459 504 CURVE",
"324 385 LINE",
"305 295 LINE",
"363 295 LINE SMOOTH",
"436 295 OFFCURVE",
"465 272 OFFCURVE",
"453 212 CURVE SMOOTH",
"441 156 OFFCURVE",
"409 129 OFFCURVE",
"333 129 CURVE SMOOTH",
"302 129 OFFCURVE",
"274 135 OFFCURVE",
"255 149 CURVE",
"224 3 LINE",
"252 -10 OFFCURVE",
"301 -15 OFFCURVE",
"346 -15 CURVE SMOOTH"
);
}
);
width = 652;
}
);
note = uni1E9E;
unicode = 1E9E;
},
{
glyphname = Schwa;
lastChange = "2015-10-28 18:15:24 +0000";
layers = (
{
layerId = "E876E4BA-4024-4F05-97F6-A7AFE1BCFA82";
name = Bold;
paths = (
{
closed = 1;
nodes = (
"641 -15 OFFCURVE",
"785 130 OFFCURVE",
"830 352 CURVE SMOOTH",
"875 575 OFFCURVE",
"727 714 OFFCURVE",
"483 714 CURVE SMOOTH",
"371 714 OFFCURVE",
"261 693 OFFCURVE",
"187 665 CURVE",
"156 520 LINE",
"230 547 OFFCURVE",
"332 563 OFFCURVE",
"419 563 CURVE SMOOTH",
"575 563 OFFCURVE",
"628 522 OFFCURVE",
"628 416 CURVE",
"73 416 LINE",
"57 339 LINE SMOOTH",
"14 140 OFFCURVE",
"128 -15 OFFCURVE",
"363 -15 CURVE SMOOTH"
);
},
{
closed = 1;
nodes = (
"260 134 OFFCURVE",
"231 197 OFFCURVE",
"241 282 CURVE",
"600 282 LINE",
"573 197 OFFCURVE",
"506 134 OFFCURVE",
"391 134 CURVE SMOOTH"
);
}
);
width = 821;
}
);
note = uni018F;
unicode = 018F;
},
{
glyphname = T;
lastChange = "2015-10-28 18:15:23 +0000";
layers = (
{
layerId = "E876E4BA-4024-4F05-97F6-A7AFE1BCFA82";
name = Bold;
paths = (
{
closed = 1;
nodes = (
"344 0 LINE",
"460 550 LINE",
"658 550 LINE",
"690 699 LINE",
"118 699 LINE",
"86 550 LINE",
"283 550 LINE",
"167 0 LINE"
);
}
);
width = 592;
}
);
leftKerningGroup = T;
note = T;
rightKerningGroup = T;
unicode = 0054;
},
{
glyphname = Tbar;
lastChange = "2015-10-28 18:15:24 +0000";
layers = (
{
layerId = "E876E4BA-4024-4F05-97F6-A7AFE1BCFA82";
name = Bold;
paths = (
{
closed = 1;
nodes = (
"348 0 LINE",
"401 253 LINE",
"509 253 LINE",
"541 401 LINE",
"433 401 LINE",
"463 543 LINE",
"657 543 LINE",
"690 699 LINE",
"118 699 LINE",
"85 543 LINE",
"278 543 LINE",
"248 401 LINE",
"143 401 LINE",
"111 253 LINE",
"216 253 LINE",
"163 0 LINE"
);
}
);
width = 592;
}
);
leftKerningGroup = T;
note = Tbar;
rightKerningGroup = T;
unicode = 0166;
},
{
glyphname = Tcaron;
lastChange = "2015-10-28 18:15:24 +0000";
layers = (
{
layerId = "E876E4BA-4024-4F05-97F6-A7AFE1BCFA82";
name = Bold;
paths = (
{
closed = 1;
nodes = (
"344 0 LINE",
"460 550 LINE",
"658 550 LINE",
"690 699 LINE",
"118 699 LINE",
"86 550 LINE",
"283 550 LINE",
"167 0 LINE"
);
},
{
closed = 1;
nodes = (
"472 742 LINE",
"666 923 LINE",
"487 923 LINE",
"409 838 LINE",
"367 923 LINE",
"198 923 LINE",
"315 742 LINE"
);
}
);
width = 592;
}
);
leftKerningGroup = T;
note = Tcaron;
rightKerningGroup = T;
unicode = 0164;
},
{
glyphname = Tcedilla;
lastChange = "2015-10-28 18:15:24 +0000";
layers = (
{
layerId = "E876E4BA-4024-4F05-97F6-A7AFE1BCFA82";
name = Bold;
paths = (
{
closed = 1;
nodes = (
"289 -248 OFFCURVE",
"362 -215 OFFCURVE",
"376 -141 CURVE SMOOTH",
"385 -92 OFFCURVE",
"357 -56 OFFCURVE",
"307 -46 CURVE",
"335 0 LINE",
"344 0 LINE",
"460 550 LINE",
"658 550 LINE",
"690 699 LINE",
"118 699 LINE",
"86 550 LINE",
"283 550 LINE",
"167 0 LINE",
"180 0 LINE",
"128 -89 LINE",
"203 -89 OFFCURVE",
"222 -105 OFFCURVE",
"217 -129 CURVE SMOOTH",
"213 -150 OFFCURVE",
"193 -163 OFFCURVE",
"160 -163 CURVE SMOOTH",
"137 -163 OFFCURVE",
"115 -157 OFFCURVE",
"102 -149 CURVE",
"84 -234 LINE",
"103 -242 OFFCURVE",
"148 -248 OFFCURVE",
"194 -248 CURVE SMOOTH"
);
}
);
width = 592;
}
);
leftKerningGroup = T;
note = Tcedilla;
rightKerningGroup = T;
unicode = 0162;
},
{
glyphname = Tcommaaccent;
lastChange = "2015-10-28 18:15:24 +0000";
layers = (
{
layerId = "E876E4BA-4024-4F05-97F6-A7AFE1BCFA82";
name = Bold;
paths = (
{
closed = 1;
nodes = (
"344 0 LINE",
"460 550 LINE",
"658 550 LINE",
"690 699 LINE",
"118 699 LINE",
"86 550 LINE",
"283 550 LINE",
"167 0 LINE"
);
},
{
closed = 1;
nodes = (
"182 -260 LINE",
"332 -49 LINE",
"150 -49 LINE",
"23 -260 LINE"
);
}
);
width = 592;
}
);
leftKerningGroup = T;
note = Tcommaaccent;
rightKerningGroup = T;
unicode = 021A;
},
{
glyphname = Tdotbelow;
lastChange = "2015-10-28 18:15:23 +0000";
layers = (
{
layerId = "E876E4BA-4024-4F05-97F6-A7AFE1BCFA82";
name = Bold;
paths = (
{
closed = 1;
nodes = (
"344 0 LINE",
"460 550 LINE",
"658 550 LINE",
"690 699 LINE",
"118 699 LINE",
"86 550 LINE",
"283 550 LINE",
"167 0 LINE"
);
},
{
closed = 1;
nodes = (
"257 -200 OFFCURVE",
"297 -166 OFFCURVE",
"306 -123 CURVE SMOOTH",
"315 -80 OFFCURVE",
"289 -46 OFFCURVE",
"248 -46 CURVE SMOOTH",
"206 -46 OFFCURVE",
"162 -80 OFFCURVE",
"153 -123 CURVE SMOOTH",
"144 -166 OFFCURVE",
"173 -200 OFFCURVE",
"215 -200 CURVE SMOOTH"
);
}
);
width = 592;
}
);
leftKerningGroup = T;
note = Tdotbelow;
rightKerningGroup = T;
unicode = 1E6C;
},
{
glyphname = Tlinebelow;
lastChange = "2015-10-28 18:15:24 +0000";
layers = (
{
layerId = "E876E4BA-4024-4F05-97F6-A7AFE1BCFA82";
name = Bold;
paths = (
{
closed = 1;
nodes = (
"344 0 LINE",
"460 550 LINE",
"658 550 LINE",
"690 699 LINE",
"118 699 LINE",
"86 550 LINE",
"283 550 LINE",
"167 0 LINE"
);
},
{
closed = 1;
nodes = (
"392 -172 LINE",
"416 -59 LINE",
"72 -59 LINE",
"48 -172 LINE"
);
}
);
width = 592;
}
);
leftKerningGroup = T;
note = Tlinebelow;
rightKerningGroup = T;
unicode = 1E6E;
},
{
glyphname = U;
lastChange = "2015-10-28 18:15:24 +0000";
layers = (
{
layerId = "E876E4BA-4024-4F05-97F6-A7AFE1BCFA82";
name = Bold;
paths = (
{
closed = 1;
nodes = (
"553 -15 OFFCURVE",
"659 116 OFFCURVE",
"697 293 CURVE SMOOTH",
"783 699 LINE",
"606 699 LINE",
"519 291 LINE SMOOTH",
"499 196 OFFCURVE",
"446 149 OFFCURVE",
"349 149 CURVE SMOOTH",
"238 149 OFFCURVE",
"218 196 OFFCURVE",
"238 291 CURVE SMOOTH",
"325 699 LINE",
"148 699 LINE",
"62 293 LINE SMOOTH",
"24 116 OFFCURVE",
"112 -15 OFFCURVE",
"314 -15 CURVE SMOOTH"
);
}
);
width = 715;
}
);
leftKerningGroup = U;
note = U;
rightKerningGroup = U;
unicode = 0055;
},
{
glyphname = Uacute;
lastChange = "2015-10-28 18:15:23 +0000";
layers = (
{
layerId = "E876E4BA-4024-4F05-97F6-A7AFE1BCFA82";
name = Bold;
paths = (
{
closed = 1;
nodes = (
"553 -15 OFFCURVE",
"659 116 OFFCURVE",
"697 293 CURVE SMOOTH",
"783 699 LINE",
"606 699 LINE",
"519 291 LINE SMOOTH",
"499 196 OFFCURVE",
"446 149 OFFCURVE",
"349 149 CURVE SMOOTH",
"238 149 OFFCURVE",
"218 196 OFFCURVE",
"238 291 CURVE SMOOTH",
"325 699 LINE",
"148 699 LINE",
"62 293 LINE SMOOTH",
"24 116 OFFCURVE",
"112 -15 OFFCURVE",
"314 -15 CURVE SMOOTH"
);
},
{
closed = 1;
nodes = (
"543 742 LINE",
"672 920 LINE",
"487 920 LINE",
"380 742 LINE"
);
}
);
width = 715;
}
);
leftKerningGroup = U;
note = Uacute;
rightKerningGroup = U;
unicode = 00DA;
},
{
glyphname = Ubreve;
lastChange = "2015-10-28 18:15:24 +0000";
layers = (
{
layerId = "E876E4BA-4024-4F05-97F6-A7AFE1BCFA82";
name = Bold;
paths = (
{
closed = 1;
nodes = (
"553 -15 OFFCURVE",
"659 116 OFFCURVE",
"697 293 CURVE SMOOTH",
"783 699 LINE",
"606 699 LINE",
"519 291 LINE SMOOTH",
"499 196 OFFCURVE",
"446 149 OFFCURVE",
"349 149 CURVE SMOOTH",
"238 149 OFFCURVE",
"218 196 OFFCURVE",
"238 291 CURVE SMOOTH",
"325 699 LINE",
"148 699 LINE",
"62 293 LINE SMOOTH",
"24 116 OFFCURVE",
"112 -15 OFFCURVE",
"314 -15 CURVE SMOOTH"
);
},
{
closed = 1;
nodes = (
"571 742 OFFCURVE",
"651 810 OFFCURVE",
"674 915 CURVE",
"538 915 LINE",
"529 874 OFFCURVE",
"505 853 OFFCURVE",
"472 853 CURVE SMOOTH",
"438 853 OFFCURVE",
"425 874 OFFCURVE",
"434 915 CURVE",
"309 915 LINE",
"286 810 OFFCURVE",
"337 742 OFFCURVE",
"454 742 CURVE SMOOTH"
);
}
);
width = 715;
}
);
leftKerningGroup = U;
note = Ubreve;
rightKerningGroup = U;
unicode = 016C;
},
{
glyphname = Ucaron;
lastChange = "2015-10-28 18:15:24 +0000";
layers = (
{
layerId = "E876E4BA-4024-4F05-97F6-A7AFE1BCFA82";
name = Bold;
paths = (
{
closed = 1;
nodes = (
"553 -15 OFFCURVE",
"659 116 OFFCURVE",
"697 293 CURVE SMOOTH",
"783 699 LINE",
"606 699 LINE",
"519 291 LINE SMOOTH",
"499 196 OFFCURVE",
"446 149 OFFCURVE",
"349 149 CURVE SMOOTH",
"238 149 OFFCURVE",
"218 196 OFFCURVE",
"238 291 CURVE SMOOTH",
"325 699 LINE",
"148 699 LINE",
"62 293 LINE SMOOTH",
"24 116 OFFCURVE",
"112 -15 OFFCURVE",
"314 -15 CURVE SMOOTH"
);
},
{
closed = 1;
nodes = (
"533 742 LINE",
"727 923 LINE",
"548 923 LINE",
"470 838 LINE",
"428 923 LINE",
"259 923 LINE",
"376 742 LINE"
);
}
);
width = 715;
}
);
leftKerningGroup = U;
note = Ucaron;
rightKerningGroup = U;
unicode = 01D3;
},
{
glyphname = Ucircumflex;
lastChange = "2015-10-28 18:15:24 +0000";
layers = (
{
layerId = "E876E4BA-4024-4F05-97F6-A7AFE1BCFA82";
name = Bold;
paths = (
{
closed = 1;
nodes = (
"553 -15 OFFCURVE",
"659 116 OFFCURVE",
"697 293 CURVE SMOOTH",
"783 699 LINE",
"606 699 LINE",
"519 291 LINE SMOOTH",
"499 196 OFFCURVE",
"446 149 OFFCURVE",
"349 149 CURVE SMOOTH",
"238 149 OFFCURVE",
"218 196 OFFCURVE",
"238 291 CURVE SMOOTH",
"325 699 LINE",
"148 699 LINE",
"62 293 LINE SMOOTH",
"24 116 OFFCURVE",
"112 -15 OFFCURVE",
"314 -15 CURVE SMOOTH"
);
},
{
closed = 1;
nodes = (
"400 742 LINE",
"478 827 LINE",
"520 742 LINE",
"689 742 LINE",
"571 923 LINE",
"414 923 LINE",
"221 742 LINE"
);
}
);
width = 715;
}
);
leftKerningGroup = U;
note = Ucircumflex;
rightKerningGroup = U;
unicode = 00DB;
},
{
glyphname = Udieresis;
lastChange = "2015-10-28 18:15:24 +0000";
layers = (
{
layerId = "E876E4BA-4024-4F05-97F6-A7AFE1BCFA82";
name = Bold;
paths = (
{
closed = 1;
nodes = (
"553 -15 OFFCURVE",
"659 116 OFFCURVE",
"697 293 CURVE SMOOTH",
"783 699 LINE",
"606 699 LINE",
"519 291 LINE SMOOTH",
"499 196 OFFCURVE",
"446 149 OFFCURVE",
"349 149 CURVE SMOOTH",
"238 149 OFFCURVE",
"218 196 OFFCURVE",
"238 291 CURVE SMOOTH",
"325 699 LINE",
"148 699 LINE",
"62 293 LINE SMOOTH",
"24 116 OFFCURVE",
"112 -15 OFFCURVE",
"314 -15 CURVE SMOOTH"
);
},
{
closed = 1;
nodes = (
"380 747 OFFCURVE",
"421 780 OFFCURVE",
"430 823 CURVE SMOOTH",
"439 866 OFFCURVE",
"412 901 OFFCURVE",
"370 901 CURVE SMOOTH",
"329 901 OFFCURVE",
"286 866 OFFCURVE",
"277 823 CURVE SMOOTH",
"268 780 OFFCURVE",
"297 747 OFFCURVE",
"338 747 CURVE SMOOTH"
);
},
{
closed = 1;
nodes = (
"615 747 OFFCURVE",
"657 780 OFFCURVE",
"666 823 CURVE SMOOTH",
"675 866 OFFCURVE",
"647 901 OFFCURVE",
"606 901 CURVE SMOOTH",
"564 901 OFFCURVE",
"521 866 OFFCURVE",
"512 823 CURVE SMOOTH",
"503 780 OFFCURVE",
"532 747 OFFCURVE",
"574 747 CURVE SMOOTH"
);
}
);
width = 715;
}
);
leftKerningGroup = U;
note = Udieresis;
rightKerningGroup = U;
unicode = 00DC;
},
{
glyphname = Udieresisacute;
lastChange = "2015-10-28 18:15:24 +0000";
layers = (
{
layerId = "E876E4BA-4024-4F05-97F6-A7AFE1BCFA82";
name = Bold;
paths = (
{
closed = 1;
nodes = (
"553 -15 OFFCURVE",
"659 116 OFFCURVE",
"697 293 CURVE SMOOTH",
"783 699 LINE",
"606 699 LINE",
"519 291 LINE SMOOTH",
"499 196 OFFCURVE",
"446 149 OFFCURVE",
"349 149 CURVE SMOOTH",
"238 149 OFFCURVE",
"218 196 OFFCURVE",
"238 291 CURVE SMOOTH",
"325 699 LINE",
"148 699 LINE",
"62 293 LINE SMOOTH",
"24 116 OFFCURVE",
"112 -15 OFFCURVE",
"314 -15 CURVE SMOOTH"
);
},
{
closed = 1;
nodes = (
"405 752 OFFCURVE",
"446 785 OFFCURVE",
"455 828 CURVE SMOOTH",
"464 871 OFFCURVE",
"437 906 OFFCURVE",
"395 906 CURVE SMOOTH",
"353 906 OFFCURVE",
"310 871 OFFCURVE",
"301 828 CURVE SMOOTH",
"292 785 OFFCURVE",
"321 752 OFFCURVE",
"363 752 CURVE SMOOTH"
);
},
{
closed = 1;
nodes = (
"639 752 OFFCURVE",
"681 785 OFFCURVE",
"690 828 CURVE SMOOTH",
"699 871 OFFCURVE",
"671 906 OFFCURVE",
"630 906 CURVE SMOOTH",
"588 906 OFFCURVE",
"545 871 OFFCURVE",
"536 828 CURVE SMOOTH",
"527 785 OFFCURVE",
"556 752 OFFCURVE",
"598 752 CURVE SMOOTH"
);
},
{
closed = 1;
nodes = (
"579 920 LINE",
"676 1047 LINE",
"532 1047 LINE",
"456 920 LINE"
);
}
);
width = 715;
}
);
leftKerningGroup = U;
note = Udieresisacute;
rightKerningGroup = U;
unicode = 01D7;
},
{
glyphname = Udieresiscaron;
lastChange = "2015-10-28 18:15:24 +0000";
layers = (
{
layerId = "E876E4BA-4024-4F05-97F6-A7AFE1BCFA82";
name = Bold;
paths = (
{
closed = 1;
nodes = (
"553 -15 OFFCURVE",
"659 116 OFFCURVE",
"697 293 CURVE SMOOTH",
"783 699 LINE",
"606 699 LINE",
"519 291 LINE SMOOTH",
"499 196 OFFCURVE",
"446 149 OFFCURVE",
"349 149 CURVE SMOOTH",
"238 149 OFFCURVE",
"218 196 OFFCURVE",
"238 291 CURVE SMOOTH",
"325 699 LINE",
"148 699 LINE",
"62 293 LINE SMOOTH",
"24 116 OFFCURVE",
"112 -15 OFFCURVE",
"314 -15 CURVE SMOOTH"
);
},
{
closed = 1;
nodes = (
"400 752 OFFCURVE",
"443 785 OFFCURVE",
"452 828 CURVE SMOOTH",
"461 871 OFFCURVE",
"432 906 OFFCURVE",
"390 906 CURVE SMOOTH",
"349 906 OFFCURVE",
"307 871 OFFCURVE",
"298 828 CURVE SMOOTH",
"289 785 OFFCURVE",
"317 752 OFFCURVE",
"358 752 CURVE SMOOTH"
);
},
{
closed = 1;
nodes = (
"635 752 OFFCURVE",
"678 785 OFFCURVE",
"687 828 CURVE SMOOTH",
"696 871 OFFCURVE",
"667 906 OFFCURVE",
"625 906 CURVE SMOOTH",
"583 906 OFFCURVE",
"542 871 OFFCURVE",
"533 828 CURVE SMOOTH",
"524 785 OFFCURVE",
"551 752 OFFCURVE",
"593 752 CURVE SMOOTH"
);
},
{
closed = 1;
nodes = (
"558 899 LINE",
"710 1028 LINE",
"582 1028 LINE",
"523 973 LINE",
"487 1028 LINE",
"359 1028 LINE",
"457 899 LINE"
);
}
);
width = 715;
}
);
leftKerningGroup = U;
note = Udieresiscaron;
rightKerningGroup = U;
unicode = 01D9;
},
{
glyphname = Udieresisgrave;
lastChange = "2015-10-28 18:15:24 +0000";
layers = (
{
layerId = "E876E4BA-4024-4F05-97F6-A7AFE1BCFA82";
name = Bold;
paths = (
{
closed = 1;
nodes = (
"553 -15 OFFCURVE",
"659 116 OFFCURVE",
"697 293 CURVE SMOOTH",
"783 699 LINE",
"606 699 LINE",
"519 291 LINE SMOOTH",
"499 196 OFFCURVE",
"446 149 OFFCURVE",
"349 149 CURVE SMOOTH",
"238 149 OFFCURVE",
"218 196 OFFCURVE",
"238 291 CURVE SMOOTH",
"325 699 LINE",
"148 699 LINE",
"62 293 LINE SMOOTH",
"24 116 OFFCURVE",
"112 -15 OFFCURVE",
"314 -15 CURVE SMOOTH"
);
},
{
closed = 1;
nodes = (
"404 752 OFFCURVE",
"447 785 OFFCURVE",
"456 828 CURVE SMOOTH",
"465 871 OFFCURVE",
"436 906 OFFCURVE",
"394 906 CURVE SMOOTH",
"353 906 OFFCURVE",
"311 871 OFFCURVE",
"302 828 CURVE SMOOTH",
"293 785 OFFCURVE",
"321 752 OFFCURVE",
"362 752 CURVE SMOOTH"
);
},
{
closed = 1;
nodes = (
"639 752 OFFCURVE",
"682 785 OFFCURVE",
"691 828 CURVE SMOOTH",
"700 871 OFFCURVE",
"671 906 OFFCURVE",
"629 906 CURVE SMOOTH",
"587 906 OFFCURVE",
"546 871 OFFCURVE",
"537 828 CURVE SMOOTH",
"528 785 OFFCURVE",
"555 752 OFFCURVE",
"597 752 CURVE SMOOTH"
);
},
{
closed = 1;
nodes = (
"574 920 LINE",
"551 1047 LINE",
"408 1047 LINE",
"451 920 LINE"
);
}
);
width = 715;
}
);
leftKerningGroup = U;
note = Udieresisgrave;
rightKerningGroup = U;
unicode = 01DB;
},
{
glyphname = Udieresismacron;
lastChange = "2015-10-28 18:15:23 +0000";
layers = (
{
layerId = "E876E4BA-4024-4F05-97F6-A7AFE1BCFA82";
name = Bold;
paths = (
{
closed = 1;
nodes = (
"553 -15 OFFCURVE",
"659 116 OFFCURVE",
"697 293 CURVE SMOOTH",
"783 699 LINE",
"606 699 LINE",
"519 291 LINE SMOOTH",
"499 196 OFFCURVE",
"446 149 OFFCURVE",
"349 149 CURVE SMOOTH",
"238 149 OFFCURVE",
"218 196 OFFCURVE",
"238 291 CURVE SMOOTH",
"325 699 LINE",
"148 699 LINE",
"62 293 LINE SMOOTH",
"24 116 OFFCURVE",
"112 -15 OFFCURVE",
"314 -15 CURVE SMOOTH"
);
},
{
closed = 1;
nodes = (
"381 752 OFFCURVE",
"422 785 OFFCURVE",
"431 828 CURVE SMOOTH",
"440 871 OFFCURVE",
"413 906 OFFCURVE",
"371 906 CURVE SMOOTH",
"330 906 OFFCURVE",
"287 871 OFFCURVE",
"278 828 CURVE SMOOTH",
"269 785 OFFCURVE",
"298 752 OFFCURVE",
"339 752 CURVE SMOOTH"
);
},
{
closed = 1;
nodes = (
"616 752 OFFCURVE",
"658 785 OFFCURVE",
"667 828 CURVE SMOOTH",
"676 871 OFFCURVE",
"648 906 OFFCURVE",
"607 906 CURVE SMOOTH",
"565 906 OFFCURVE",
"522 871 OFFCURVE",
"513 828 CURVE SMOOTH",
"504 785 OFFCURVE",
"533 752 OFFCURVE",
"575 752 CURVE SMOOTH"
);
},
{
closed = 1;
nodes = (
"669 939 LINE",
"693 1052 LINE",
"349 1052 LINE",
"325 939 LINE"
);
}
);
width = 715;
}
);
leftKerningGroup = U;
note = Udieresismacron;
rightKerningGroup = U;
unicode = 01D5;
},
{
glyphname = Udotbelow;
lastChange = "2015-10-28 18:15:24 +0000";
layers = (
{
layerId = "E876E4BA-4024-4F05-97F6-A7AFE1BCFA82";
name = Bold;
paths = (
{
closed = 1;
nodes = (
"553 -15 OFFCURVE",
"659 116 OFFCURVE",
"697 293 CURVE SMOOTH",
"783 699 LINE",
"606 699 LINE",
"519 291 LINE SMOOTH",
"499 196 OFFCURVE",
"446 149 OFFCURVE",
"349 149 CURVE SMOOTH",
"238 149 OFFCURVE",
"218 196 OFFCURVE",
"238 291 CURVE SMOOTH",
"325 699 LINE",
"148 699 LINE",
"62 293 LINE SMOOTH",
"24 116 OFFCURVE",
"112 -15 OFFCURVE",
"314 -15 CURVE SMOOTH"
);
},
{
closed = 1;
nodes = (
"318 -200 OFFCURVE",
"358 -166 OFFCURVE",
"367 -123 CURVE SMOOTH",
"376 -80 OFFCURVE",
"350 -46 OFFCURVE",
"309 -46 CURVE SMOOTH",
"267 -46 OFFCURVE",
"223 -80 OFFCURVE",
"214 -123 CURVE SMOOTH",
"205 -166 OFFCURVE",
"234 -200 OFFCURVE",
"276 -200 CURVE SMOOTH"
);
}
);
width = 715;
}
);
leftKerningGroup = U;
note = Udotbelow;
rightKerningGroup = U;
unicode = 1EE4;
},
{
glyphname = Ugrave;
lastChange = "2015-10-28 18:15:24 +0000";
layers = (
{
layerId = "E876E4BA-4024-4F05-97F6-A7AFE1BCFA82";
name = Bold;
paths = (
{
closed = 1;
nodes = (
"553 -15 OFFCURVE",
"659 116 OFFCURVE",
"697 293 CURVE SMOOTH",
"783 699 LINE",
"606 699 LINE",
"519 291 LINE SMOOTH",
"499 196 OFFCURVE",
"446 149 OFFCURVE",
"349 149 CURVE SMOOTH",
"238 149 OFFCURVE",
"218 196 OFFCURVE",
"238 291 CURVE SMOOTH",
"325 699 LINE",
"148 699 LINE",
"62 293 LINE SMOOTH",
"24 116 OFFCURVE",
"112 -15 OFFCURVE",
"314 -15 CURVE SMOOTH"
);
},
{
closed = 1;
nodes = (
"557 742 LINE",
"526 920 LINE",
"341 920 LINE",
"394 742 LINE"
);
}
);
width = 715;
}
);
leftKerningGroup = U;
note = Ugrave;
rightKerningGroup = U;
unicode = 00D9;
},
{
glyphname = Uhookabove;
lastChange = "2015-10-28 18:15:24 +0000";
layers = (
{
layerId = "E876E4BA-4024-4F05-97F6-A7AFE1BCFA82";
name = Bold;
paths = (
{
closed = 1;
nodes = (
"553 -15 OFFCURVE",
"659 116 OFFCURVE",
"697 293 CURVE SMOOTH",
"783 699 LINE",
"606 699 LINE",
"519 291 LINE SMOOTH",
"499 196 OFFCURVE",
"446 149 OFFCURVE",
"349 149 CURVE SMOOTH",
"238 149 OFFCURVE",
"218 196 OFFCURVE",
"238 291 CURVE SMOOTH",
"325 699 LINE",
"148 699 LINE",
"62 293 LINE SMOOTH",
"24 116 OFFCURVE",
"112 -15 OFFCURVE",
"314 -15 CURVE SMOOTH"
);
},
{
closed = 1;
nodes = (
"536 742 LINE",
"541 767 LINE",
"600 781 OFFCURVE",
"641 821 OFFCURVE",
"651 869 CURVE SMOOTH",
"664 932 OFFCURVE",
"621 975 OFFCURVE",
"515 975 CURVE SMOOTH",
"475 975 OFFCURVE",
"423 968 OFFCURVE",
"392 959 CURVE",
"374 875 LINE",
"388 881 OFFCURVE",
"417 885 OFFCURVE",
"433 885 CURVE SMOOTH",
"475 885 OFFCURVE",
"490 873 OFFCURVE",
"485 852 CURVE",
"479 821 OFFCURVE",
"445 812 OFFCURVE",
"397 812 CURVE",
"382 742 LINE"
);
}
);
width = 715;
}
);
leftKerningGroup = U;
note = Uhookabove;
rightKerningGroup = U;
unicode = 1EE6;
},
{
glyphname = Uhorn;
lastChange = "2015-10-28 18:15:23 +0000";
layers = (
{
layerId = "E876E4BA-4024-4F05-97F6-A7AFE1BCFA82";
name = Bold;
paths = (
{
closed = 1;
nodes = (
"553 -15 OFFCURVE",
"659 116 OFFCURVE",
"697 293 CURVE SMOOTH",
"742 506 LINE",
"905 506 OFFCURVE",
"987 591 OFFCURVE",
"1011 702 CURVE SMOOTH",
"1020 747 LINE",
"872 747 LINE",
"865 713 LINE SMOOTH",
"853 656 OFFCURVE",
"833 632 OFFCURVE",
"769 632 CURVE",
"783 699 LINE",
"606 699 LINE",
"519 291 LINE SMOOTH",
"499 196 OFFCURVE",
"446 149 OFFCURVE",
"349 149 CURVE SMOOTH",
"238 149 OFFCURVE",
"218 196 OFFCURVE",
"238 291 CURVE SMOOTH",
"325 699 LINE",
"148 699 LINE",
"62 293 LINE SMOOTH",
"24 116 OFFCURVE",
"112 -15 OFFCURVE",
"314 -15 CURVE SMOOTH"
);
}
);
width = 907;
}
);
leftKerningGroup = U;
note = Uhorn;
rightKerningGroup = U;
unicode = 01AF;
},
{
glyphname = Uhornacute;
lastChange = "2015-10-28 18:15:24 +0000";
layers = (
{
layerId = "E876E4BA-4024-4F05-97F6-A7AFE1BCFA82";
name = Bold;
paths = (
{
closed = 1;
nodes = (
"553 -15 OFFCURVE",
"659 116 OFFCURVE",
"697 293 CURVE SMOOTH",
"742 506 LINE",
"905 506 OFFCURVE",
"987 591 OFFCURVE",
"1011 702 CURVE SMOOTH",
"1020 747 LINE",
"872 747 LINE",
"865 713 LINE SMOOTH",
"853 656 OFFCURVE",
"833 632 OFFCURVE",
"769 632 CURVE",
"783 699 LINE",
"606 699 LINE",
"519 291 LINE SMOOTH",
"499 196 OFFCURVE",
"446 149 OFFCURVE",
"349 149 CURVE SMOOTH",
"238 149 OFFCURVE",
"218 196 OFFCURVE",
"238 291 CURVE SMOOTH",
"325 699 LINE",
"148 699 LINE",
"62 293 LINE SMOOTH",
"24 116 OFFCURVE",
"112 -15 OFFCURVE",
"314 -15 CURVE SMOOTH"
);
},
{
closed = 1;
nodes = (
"540 742 LINE",
"669 920 LINE",
"484 920 LINE",
"377 742 LINE"
);
}
);
width = 907;
}
);
leftKerningGroup = U;
note = Uhornacute;
rightKerningGroup = U;
unicode = 1EE8;
},
{
glyphname = Uhorndotbelow;
lastChange = "2015-10-28 18:15:24 +0000";
layers = (
{
layerId = "E876E4BA-4024-4F05-97F6-A7AFE1BCFA82";
name = Bold;
paths = (
{
closed = 1;
nodes = (
"553 -15 OFFCURVE",
"659 116 OFFCURVE",
"697 293 CURVE SMOOTH",
"742 506 LINE",
"905 506 OFFCURVE",
"987 591 OFFCURVE",
"1011 702 CURVE SMOOTH",
"1020 747 LINE",
"872 747 LINE",
"865 713 LINE SMOOTH",
"853 656 OFFCURVE",
"833 632 OFFCURVE",
"769 632 CURVE",
"783 699 LINE",
"606 699 LINE",
"519 291 LINE SMOOTH",
"499 196 OFFCURVE",
"446 149 OFFCURVE",
"349 149 CURVE SMOOTH",
"238 149 OFFCURVE",
"218 196 OFFCURVE",
"238 291 CURVE SMOOTH",
"325 699 LINE",
"148 699 LINE",
"62 293 LINE SMOOTH",
"24 116 OFFCURVE",
"112 -15 OFFCURVE",
"314 -15 CURVE SMOOTH"
);
},
{
closed = 1;
nodes = (
"330 -200 OFFCURVE",
"370 -166 OFFCURVE",
"379 -123 CURVE SMOOTH",
"388 -80 OFFCURVE",
"362 -46 OFFCURVE",
"321 -46 CURVE SMOOTH",
"279 -46 OFFCURVE",
"235 -80 OFFCURVE",
"226 -123 CURVE SMOOTH",
"217 -166 OFFCURVE",
"246 -200 OFFCURVE",
"288 -200 CURVE SMOOTH"
);
}
);
width = 907;
}
);
leftKerningGroup = U;
note = Uhorndotbelow;
rightKerningGroup = U;
unicode = 1EF0;
},
{
glyphname = Uhorngrave;
lastChange = "2015-10-28 18:15:24 +0000";
layers = (
{
layerId = "E876E4BA-4024-4F05-97F6-A7AFE1BCFA82";
name = Bold;
paths = (
{
closed = 1;
nodes = (
"553 -15 OFFCURVE",
"659 116 OFFCURVE",
"697 293 CURVE SMOOTH",
"742 506 LINE",
"905 506 OFFCURVE",
"987 591 OFFCURVE",
"1011 702 CURVE SMOOTH",
"1020 747 LINE",
"872 747 LINE",
"865 713 LINE SMOOTH",
"853 656 OFFCURVE",
"833 632 OFFCURVE",
"769 632 CURVE",
"783 699 LINE",
"606 699 LINE",
"519 291 LINE SMOOTH",
"499 196 OFFCURVE",
"446 149 OFFCURVE",
"349 149 CURVE SMOOTH",
"238 149 OFFCURVE",
"218 196 OFFCURVE",
"238 291 CURVE SMOOTH",
"325 699 LINE",
"148 699 LINE",
"62 293 LINE SMOOTH",
"24 116 OFFCURVE",
"112 -15 OFFCURVE",
"314 -15 CURVE SMOOTH"
);
},
{
closed = 1;
nodes = (
"554 742 LINE",
"523 920 LINE",
"338 920 LINE",
"391 742 LINE"
);
}
);
width = 907;
}
);
leftKerningGroup = U;
note = Uhorngrave;
rightKerningGroup = U;
unicode = 1EEA;
},
{
glyphname = Uhornhookabove;
lastChange = "2015-10-28 18:15:24 +0000";
layers = (
{
layerId = "E876E4BA-4024-4F05-97F6-A7AFE1BCFA82";
name = Bold;
paths = (
{
closed = 1;
nodes = (
"553 -15 OFFCURVE",
"659 116 OFFCURVE",
"697 293 CURVE SMOOTH",
"742 506 LINE",
"905 506 OFFCURVE",
"987 591 OFFCURVE",
"1011 702 CURVE SMOOTH",
"1020 747 LINE",
"872 747 LINE",
"865 713 LINE SMOOTH",
"853 656 OFFCURVE",
"833 632 OFFCURVE",
"769 632 CURVE",
"783 699 LINE",
"606 699 LINE",
"519 291 LINE SMOOTH",
"499 196 OFFCURVE",
"446 149 OFFCURVE",
"349 149 CURVE SMOOTH",
"238 149 OFFCURVE",
"218 196 OFFCURVE",
"238 291 CURVE SMOOTH",
"325 699 LINE",
"148 699 LINE",
"62 293 LINE SMOOTH",
"24 116 OFFCURVE",
"112 -15 OFFCURVE",
"314 -15 CURVE SMOOTH"
);
},
{
closed = 1;
nodes = (
"536 742 LINE",
"541 767 LINE",
"600 781 OFFCURVE",
"641 821 OFFCURVE",
"651 869 CURVE SMOOTH",
"664 932 OFFCURVE",
"621 975 OFFCURVE",
"515 975 CURVE SMOOTH",
"475 975 OFFCURVE",
"423 968 OFFCURVE",
"392 959 CURVE",
"374 875 LINE",
"388 881 OFFCURVE",
"417 885 OFFCURVE",
"433 885 CURVE SMOOTH",
"475 885 OFFCURVE",
"490 873 OFFCURVE",
"485 852 CURVE",
"479 821 OFFCURVE",
"445 812 OFFCURVE",
"397 812 CURVE",
"382 742 LINE"
);
}
);
width = 907;
}
);
leftKerningGroup = U;
note = Uhornhookabove;
rightKerningGroup = U;
unicode = 1EEC;
},
{
glyphname = Uhorntilde;
lastChange = "2015-10-28 18:15:24 +0000";
layers = (
{
layerId = "E876E4BA-4024-4F05-97F6-A7AFE1BCFA82";
name = Bold;
paths = (
{
closed = 1;
nodes = (
"553 -15 OFFCURVE",
"659 116 OFFCURVE",
"697 293 CURVE SMOOTH",
"742 506 LINE",
"905 506 OFFCURVE",
"987 591 OFFCURVE",
"1011 702 CURVE SMOOTH",
"1020 747 LINE",
"872 747 LINE",
"865 713 LINE SMOOTH",
"853 656 OFFCURVE",
"833 632 OFFCURVE",
"769 632 CURVE",
"783 699 LINE",
"606 699 LINE",
"519 291 LINE SMOOTH",
"499 196 OFFCURVE",
"446 149 OFFCURVE",
"349 149 CURVE SMOOTH",
"238 149 OFFCURVE",
"218 196 OFFCURVE",
"238 291 CURVE SMOOTH",
"325 699 LINE",
"148 699 LINE",
"62 293 LINE SMOOTH",
"24 116 OFFCURVE",
"112 -15 OFFCURVE",
"314 -15 CURVE SMOOTH"
);
},
{
closed = 1;
nodes = (
"309 779 OFFCURVE",
"347 793 OFFCURVE",
"386 793 CURVE SMOOTH",
"450 793 OFFCURVE",
"500 743 OFFCURVE",
"573 743 CURVE SMOOTH",
"617 743 OFFCURVE",
"655 754 OFFCURVE",
"685 784 CURVE",
"712 912 LINE",
"675 876 OFFCURVE",
"638 862 OFFCURVE",
"598 862 CURVE SMOOTH",
"533 862 OFFCURVE",
"479 912 OFFCURVE",
"411 912 CURVE SMOOTH",
"368 912 OFFCURVE",
"329 900 OFFCURVE",
"298 870 CURVE",
"270 742 LINE"
);
}
);
width = 907;
}
);
leftKerningGroup = U;
note = Uhorntilde;
rightKerningGroup = U;
unicode = 1EEE;
},
{
glyphname = Uhungarumlaut;
lastChange = "2015-10-28 18:15:24 +0000";
layers = (
{
layerId = "E876E4BA-4024-4F05-97F6-A7AFE1BCFA82";
name = Bold;
paths = (
{
closed = 1;
nodes = (
"553 -15 OFFCURVE",
"659 116 OFFCURVE",
"697 293 CURVE SMOOTH",
"783 699 LINE",
"606 699 LINE",
"519 291 LINE SMOOTH",
"499 196 OFFCURVE",
"446 149 OFFCURVE",
"349 149 CURVE SMOOTH",
"238 149 OFFCURVE",
"218 196 OFFCURVE",
"238 291 CURVE SMOOTH",
"325 699 LINE",
"148 699 LINE",
"62 293 LINE SMOOTH",
"24 116 OFFCURVE",
"112 -15 OFFCURVE",
"314 -15 CURVE SMOOTH"
);
},
{
closed = 1;
nodes = (
"405 742 LINE",
"533 919 LINE",
"364 919 LINE",
"258 742 LINE"
);
},
{
closed = 1;
nodes = (
"657 742 LINE",
"784 919 LINE",
"615 919 LINE",
"509 742 LINE"
);
}
);
width = 715;
}
);
leftKerningGroup = U;
note = Uhungarumlaut;
rightKerningGroup = U;
unicode = 0170;
},
{
glyphname = Umacron;
lastChange = "2015-10-28 18:15:24 +0000";
layers = (
{
layerId = "E876E4BA-4024-4F05-97F6-A7AFE1BCFA82";
name = Bold;
paths = (
{
closed = 1;
nodes = (
"553 -15 OFFCURVE",
"659 116 OFFCURVE",
"697 293 CURVE SMOOTH",
"783 699 LINE",
"606 699 LINE",
"519 291 LINE SMOOTH",
"499 196 OFFCURVE",
"446 149 OFFCURVE",
"349 149 CURVE SMOOTH",
"238 149 OFFCURVE",
"218 196 OFFCURVE",
"238 291 CURVE SMOOTH",
"325 699 LINE",
"148 699 LINE",
"62 293 LINE SMOOTH",
"24 116 OFFCURVE",
"112 -15 OFFCURVE",
"314 -15 CURVE SMOOTH"
);
},
{
closed = 1;
nodes = (
"629 752 LINE",
"653 865 LINE",
"309 865 LINE",
"285 752 LINE"
);
}
);
width = 715;
}
);
leftKerningGroup = U;
note = Umacron;
rightKerningGroup = U;
unicode = 016A;
},
{
glyphname = Uogonek;
lastChange = "2015-10-28 18:15:24 +0000";
layers = (
{
layerId = "E876E4BA-4024-4F05-97F6-A7AFE1BCFA82";
name = Bold;
paths = (
{
closed = 1;
nodes = (
"316 -216 OFFCURVE",
"355 -210 OFFCURVE",
"383 -201 CURVE",
"403 -105 LINE",
"386 -113 OFFCURVE",
"369 -117 OFFCURVE",
"353 -117 CURVE SMOOTH",
"332 -117 OFFCURVE",
"321 -104 OFFCURVE",
"326 -84 CURVE",
"331 -57 OFFCURVE",
"357 -33 OFFCURVE",
"408 -7 CURVE",
"582 23 OFFCURVE",
"664 141 OFFCURVE",
"697 293 CURVE SMOOTH",
"783 699 LINE",
"606 699 LINE",
"519 291 LINE SMOOTH",
"499 196 OFFCURVE",
"446 149 OFFCURVE",
"349 149 CURVE SMOOTH",
"238 149 OFFCURVE",
"218 196 OFFCURVE",
"238 291 CURVE SMOOTH",
"325 699 LINE",
"148 699 LINE",
"62 293 LINE SMOOTH",
"28 137 OFFCURVE",
"93 17 OFFCURVE",
"246 -9 CURVE",
"207 -35 OFFCURVE",
"176 -72 OFFCURVE",
"167 -119 CURVE SMOOTH",
"153 -187 OFFCURVE",
"205 -216 OFFCURVE",
"278 -216 CURVE SMOOTH"
);
}
);
width = 715;
}
);
leftKerningGroup = U;
note = Uogonek;
rightKerningGroup = U;
unicode = 0172;
},
{
glyphname = Uring;
lastChange = "2015-10-28 18:15:23 +0000";
layers = (
{
layerId = "E876E4BA-4024-4F05-97F6-A7AFE1BCFA82";
name = Bold;
paths = (
{
closed = 1;
nodes = (
"553 -15 OFFCURVE",
"659 116 OFFCURVE",
"697 293 CURVE SMOOTH",
"783 699 LINE",
"606 699 LINE",
"519 291 LINE SMOOTH",
"499 196 OFFCURVE",
"446 149 OFFCURVE",
"349 149 CURVE SMOOTH",
"238 149 OFFCURVE",
"218 196 OFFCURVE",
"238 291 CURVE SMOOTH",
"325 699 LINE",
"148 699 LINE",
"62 293 LINE SMOOTH",
"24 116 OFFCURVE",
"112 -15 OFFCURVE",
"314 -15 CURVE SMOOTH"
);
},
{
closed = 1;
nodes = (
"531 742 OFFCURVE",
"608 803 OFFCURVE",
"625 881 CURVE SMOOTH",
"641 959 OFFCURVE",
"591 1021 OFFCURVE",
"513 1021 CURVE SMOOTH",
"435 1021 OFFCURVE",
"358 959 OFFCURVE",
"342 881 CURVE SMOOTH",
"326 803 OFFCURVE",
"375 742 OFFCURVE",
"453 742 CURVE SMOOTH"
);
},
{
closed = 1;
nodes = (
"442 835 OFFCURVE",
"432 856 OFFCURVE",
"437 881 CURVE SMOOTH",
"442 907 OFFCURVE",
"468 927 OFFCURVE",
"493 927 CURVE SMOOTH",
"524 927 OFFCURVE",
"534 907 OFFCURVE",
"529 881 CURVE SMOOTH",
"524 856 OFFCURVE",
"499 835 OFFCURVE",
"473 835 CURVE SMOOTH"
);
}
);
width = 715;
}
);
leftKerningGroup = U;
note = Uring;
rightKerningGroup = U;
unicode = 016E;
},
{
glyphname = Utilde;
lastChange = "2015-10-28 18:15:24 +0000";
layers = (
{
layerId = "E876E4BA-4024-4F05-97F6-A7AFE1BCFA82";
name = Bold;
paths = (
{
closed = 1;
nodes = (
"553 -15 OFFCURVE",
"659 116 OFFCURVE",
"697 293 CURVE SMOOTH",
"783 699 LINE",
"606 699 LINE",
"519 291 LINE SMOOTH",
"499 196 OFFCURVE",
"446 149 OFFCURVE",
"349 149 CURVE SMOOTH",
"238 149 OFFCURVE",
"218 196 OFFCURVE",
"238 291 CURVE SMOOTH",
"325 699 LINE",
"148 699 LINE",
"62 293 LINE SMOOTH",
"24 116 OFFCURVE",
"112 -15 OFFCURVE",
"314 -15 CURVE SMOOTH"
);
},
{
closed = 1;
nodes = (
"290 779 OFFCURVE",
"328 793 OFFCURVE",
"367 793 CURVE SMOOTH",
"431 793 OFFCURVE",
"481 743 OFFCURVE",
"554 743 CURVE SMOOTH",
"598 743 OFFCURVE",
"636 754 OFFCURVE",
"666 784 CURVE",
"693 912 LINE",
"656 876 OFFCURVE",
"619 862 OFFCURVE",
"579 862 CURVE SMOOTH",
"514 862 OFFCURVE",
"460 912 OFFCURVE",
"392 912 CURVE SMOOTH",
"349 912 OFFCURVE",
"310 900 OFFCURVE",
"279 870 CURVE",
"251 742 LINE"
);
}
);
width = 715;
}
);
leftKerningGroup = U;
note = Utilde;
rightKerningGroup = U;
unicode = 0168;
},
{
glyphname = V;
lastChange = "2015-10-28 18:15:24 +0000";
layers = (
{
layerId = "E876E4BA-4024-4F05-97F6-A7AFE1BCFA82";
name = Bold;
paths = (
{
closed = 1;
nodes = (
"439 0 LINE",
"866 699 LINE",
"672 699 LINE",
"395 234 LINE",
"316 699 LINE",
"133 699 LINE",
"265 0 LINE"
);
}
);
width = 783;
}
);
note = V;
unicode = 0056;
},
{
glyphname = W;
lastChange = "2015-10-28 18:15:24 +0000";
layers = (
{
layerId = "E876E4BA-4024-4F05-97F6-A7AFE1BCFA82";
name = Bold;
paths = (
{
closed = 1;
nodes = (
"348 0 LINE",
"548 406 LINE",
"577 0 LINE",
"734 0 LINE",
"1075 699 LINE",
"893 699 LINE",
"689 284 LINE",
"671 699 LINE",
"545 699 LINE",
"344 285 LINE",
"315 699 LINE",
"133 699 LINE",
"178 0 LINE"
);
}
);
width = 992;
}
);
leftKerningGroup = W;
note = W;
rightKerningGroup = W;
unicode = 0057;
},
{
glyphname = Wacute;
lastChange = "2015-10-28 18:15:24 +0000";
layers = (
{
layerId = "E876E4BA-4024-4F05-97F6-A7AFE1BCFA82";
name = Bold;
paths = (
{
closed = 1;
nodes = (
"348 0 LINE",
"548 406 LINE",
"577 0 LINE",
"734 0 LINE",
"1075 699 LINE",
"893 699 LINE",
"689 284 LINE",
"671 699 LINE",
"545 699 LINE",
"344 285 LINE",
"315 699 LINE",
"133 699 LINE",
"178 0 LINE"
);
},
{
closed = 1;
nodes = (
"683 742 LINE",
"812 920 LINE",
"627 920 LINE",
"520 742 LINE"
);
}
);
width = 992;
}
);
leftKerningGroup = W;
note = Wacute;
rightKerningGroup = W;
unicode = 1E82;
},
{
glyphname = Wcircumflex;
lastChange = "2015-10-28 18:15:23 +0000";
layers = (
{
layerId = "E876E4BA-4024-4F05-97F6-A7AFE1BCFA82";
name = Bold;
paths = (
{
closed = 1;
nodes = (
"348 0 LINE",
"548 406 LINE",
"577 0 LINE",
"734 0 LINE",
"1075 699 LINE",
"893 699 LINE",
"689 284 LINE",
"671 699 LINE",
"545 699 LINE",
"344 285 LINE",
"315 699 LINE",
"133 699 LINE",
"178 0 LINE"
);
},
{
closed = 1;
nodes = (
"539 742 LINE",
"617 827 LINE",
"659 742 LINE",
"828 742 LINE",
"710 923 LINE",
"553 923 LINE",
"360 742 LINE"
);
}
);
width = 992;
}
);
leftKerningGroup = W;
note = Wcircumflex;
rightKerningGroup = W;
unicode = 0174;
},
{
glyphname = Wdieresis;
lastChange = "2015-10-28 18:15:24 +0000";
layers = (
{
layerId = "E876E4BA-4024-4F05-97F6-A7AFE1BCFA82";
name = Bold;
paths = (
{
closed = 1;
nodes = (
"348 0 LINE",
"548 406 LINE",
"577 0 LINE",
"734 0 LINE",
"1075 699 LINE",
"893 699 LINE",
"689 284 LINE",
"671 699 LINE",
"545 699 LINE",
"344 285 LINE",
"315 699 LINE",
"133 699 LINE",
"178 0 LINE"
);
},
{
closed = 1;
nodes = (
"520 752 OFFCURVE",
"561 785 OFFCURVE",
"570 828 CURVE SMOOTH",
"579 871 OFFCURVE",
"552 906 OFFCURVE",
"510 906 CURVE SMOOTH",
"469 906 OFFCURVE",
"426 871 OFFCURVE",
"417 828 CURVE SMOOTH",
"408 785 OFFCURVE",
"437 752 OFFCURVE",
"478 752 CURVE SMOOTH"
);
},
{
closed = 1;
nodes = (
"755 752 OFFCURVE",
"797 785 OFFCURVE",
"806 828 CURVE SMOOTH",
"815 871 OFFCURVE",
"787 906 OFFCURVE",
"746 906 CURVE SMOOTH",
"704 906 OFFCURVE",
"661 871 OFFCURVE",
"652 828 CURVE SMOOTH",
"643 785 OFFCURVE",
"672 752 OFFCURVE",
"714 752 CURVE SMOOTH"
);
}
);
width = 992;
}
);
leftKerningGroup = W;
note = Wdieresis;
rightKerningGroup = W;
unicode = 1E84;
},
{
glyphname = Wgrave;
lastChange = "2015-10-28 18:15:24 +0000";
layers = (
{
layerId = "E876E4BA-4024-4F05-97F6-A7AFE1BCFA82";
name = Bold;
paths = (
{
closed = 1;
nodes = (
"348 0 LINE",
"548 406 LINE",
"577 0 LINE",
"734 0 LINE",
"1075 699 LINE",
"893 699 LINE",
"689 284 LINE",
"671 699 LINE",
"545 699 LINE",
"344 285 LINE",
"315 699 LINE",
"133 699 LINE",
"178 0 LINE"
);
},
{
closed = 1;
nodes = (
"679 742 LINE",
"648 920 LINE",
"463 920 LINE",
"516 742 LINE"
);
}
);
width = 992;
}
);
leftKerningGroup = W;
note = Wgrave;
rightKerningGroup = W;
unicode = 1E80;
},
{
glyphname = X;
lastChange = "2015-10-28 18:15:24 +0000";
layers = (
{
layerId = "E876E4BA-4024-4F05-97F6-A7AFE1BCFA82";
name = Bold;
paths = (
{
closed = 1;
nodes = (
"188 0 LINE",
"384 209 LINE",
"491 0 LINE",
"694 0 LINE",
"515 350 LINE",
"842 699 LINE",
"639 699 LINE",
"444 490 LINE",
"337 699 LINE",
"134 699 LINE",
"312 350 LINE",
"-15 0 LINE"
);
}
);
width = 759;
}
);
note = X;
unicode = 0058;
},
{
glyphname = Y;
lastChange = "2015-10-28 18:15:23 +0000";
layers = (
{
layerId = "E876E4BA-4024-4F05-97F6-A7AFE1BCFA82";
name = Bold;
paths = (
{
closed = 1;
nodes = (
"420 0 LINE",
"476 266 LINE",
"833 699 LINE",
"639 699 LINE",
"416 428 LINE",
"316 699 LINE",
"133 699 LINE",
"299 266 LINE",
"243 0 LINE"
);
}
);
width = 750;
}
);
leftKerningGroup = Y;
note = Y;
rightKerningGroup = Y;
unicode = 0059;
},
{
glyphname = Yacute;
lastChange = "2015-10-28 18:15:23 +0000";
layers = (
{
layerId = "E876E4BA-4024-4F05-97F6-A7AFE1BCFA82";
name = Bold;
paths = (
{
closed = 1;
nodes = (
"420 0 LINE",
"476 266 LINE",
"833 699 LINE",
"639 699 LINE",
"416 428 LINE",
"316 699 LINE",
"133 699 LINE",
"299 266 LINE",
"243 0 LINE"
);
},
{
closed = 1;
nodes = (
"540 742 LINE",
"669 920 LINE",
"484 920 LINE",
"377 742 LINE"
);
}
);
width = 750;
}
);
leftKerningGroup = Y;
note = Yacute;
rightKerningGroup = Y;
unicode = 00DD;
},
{
glyphname = Ycircumflex;
lastChange = "2015-10-28 18:15:24 +0000";
layers = (
{
layerId = "E876E4BA-4024-4F05-97F6-A7AFE1BCFA82";
name = Bold;
paths = (
{
closed = 1;
nodes = (
"420 0 LINE",
"476 266 LINE",
"833 699 LINE",
"639 699 LINE",
"416 428 LINE",
"316 699 LINE",
"133 699 LINE",
"299 266 LINE",
"243 0 LINE"
);
},
{
closed = 1;
nodes = (
"415 742 LINE",
"493 827 LINE",
"535 742 LINE",
"704 742 LINE",
"586 923 LINE",
"429 923 LINE",
"236 742 LINE"
);
}
);
width = 750;
}
);
leftKerningGroup = Y;
note = Ycircumflex;
rightKerningGroup = Y;
unicode = 0176;
},
{
glyphname = Ydieresis;
lastChange = "2015-10-28 18:15:24 +0000";
layers = (
{
layerId = "E876E4BA-4024-4F05-97F6-A7AFE1BCFA82";
name = Bold;
paths = (
{
closed = 1;
nodes = (
"420 0 LINE",
"476 266 LINE",
"833 699 LINE",
"639 699 LINE",
"416 428 LINE",
"316 699 LINE",
"133 699 LINE",
"299 266 LINE",
"243 0 LINE"
);
},
{
closed = 1;
nodes = (
"396 752 OFFCURVE",
"437 785 OFFCURVE",
"446 828 CURVE SMOOTH",
"455 871 OFFCURVE",
"428 906 OFFCURVE",
"386 906 CURVE SMOOTH",
"345 906 OFFCURVE",
"302 871 OFFCURVE",
"293 828 CURVE SMOOTH",
"284 785 OFFCURVE",
"313 752 OFFCURVE",
"354 752 CURVE SMOOTH"
);
},
{
closed = 1;
nodes = (
"631 752 OFFCURVE",
"673 785 OFFCURVE",
"682 828 CURVE SMOOTH",
"691 871 OFFCURVE",
"663 906 OFFCURVE",
"622 906 CURVE SMOOTH",
"580 906 OFFCURVE",
"537 871 OFFCURVE",
"528 828 CURVE SMOOTH",
"519 785 OFFCURVE",
"548 752 OFFCURVE",
"590 752 CURVE SMOOTH"
);
}
);
width = 750;
}
);
leftKerningGroup = Y;
note = Ydieresis;
rightKerningGroup = Y;
unicode = 0178;
},
{
glyphname = Ydotaccent;
lastChange = "2015-10-28 18:15:24 +0000";
layers = (
{
layerId = "E876E4BA-4024-4F05-97F6-A7AFE1BCFA82";
name = Bold;
paths = (
{
closed = 1;
nodes = (
"420 0 LINE",
"476 266 LINE",
"833 699 LINE",
"639 699 LINE",
"416 428 LINE",
"316 699 LINE",
"133 699 LINE",
"299 266 LINE",
"243 0 LINE"
);
},
{
closed = 1;
nodes = (
"514 752 OFFCURVE",
"555 785 OFFCURVE",
"564 828 CURVE SMOOTH",
"573 871 OFFCURVE",
"546 906 OFFCURVE",
"504 906 CURVE SMOOTH",
"462 906 OFFCURVE",
"419 871 OFFCURVE",
"410 828 CURVE SMOOTH",
"401 785 OFFCURVE",
"430 752 OFFCURVE",
"472 752 CURVE SMOOTH"
);
}
);
width = 750;
}
);
leftKerningGroup = Y;
note = Ydotaccent;
rightKerningGroup = Y;
unicode = 1E8E;
},
{
glyphname = Ydotbelow;
lastChange = "2015-10-28 18:15:24 +0000";
layers = (
{
layerId = "E876E4BA-4024-4F05-97F6-A7AFE1BCFA82";
name = Bold;
paths = (
{
closed = 1;
nodes = (
"420 0 LINE",
"476 266 LINE",
"833 699 LINE",
"639 699 LINE",
"416 428 LINE",
"316 699 LINE",
"133 699 LINE",
"299 266 LINE",
"243 0 LINE"
);
},
{
closed = 1;
nodes = (
"334 -200 OFFCURVE",
"374 -166 OFFCURVE",
"383 -123 CURVE SMOOTH",
"392 -80 OFFCURVE",
"366 -46 OFFCURVE",
"325 -46 CURVE SMOOTH",
"283 -46 OFFCURVE",
"239 -80 OFFCURVE",
"230 -123 CURVE SMOOTH",
"221 -166 OFFCURVE",
"250 -200 OFFCURVE",
"292 -200 CURVE SMOOTH"
);
}
);
width = 750;
}
);
leftKerningGroup = Y;
note = Ydotbelow;
rightKerningGroup = Y;
unicode = 1EF4;
},
{
glyphname = Ygrave;
lastChange = "2015-10-28 18:15:24 +0000";
layers = (
{
layerId = "E876E4BA-4024-4F05-97F6-A7AFE1BCFA82";
name = Bold;
paths = (
{
closed = 1;
nodes = (
"420 0 LINE",
"476 266 LINE",
"833 699 LINE",
"639 699 LINE",
"416 428 LINE",
"316 699 LINE",
"133 699 LINE",
"299 266 LINE",
"243 0 LINE"
);
},
{
closed = 1;
nodes = (
"569 742 LINE",
"538 920 LINE",
"353 920 LINE",
"406 742 LINE"
);
}
);
width = 750;
}
);
leftKerningGroup = Y;
note = Ygrave;
rightKerningGroup = Y;
unicode = 1EF2;
},
{
glyphname = Yhookabove;
lastChange = "2015-10-28 18:15:24 +0000";
layers = (
{
layerId = "E876E4BA-4024-4F05-97F6-A7AFE1BCFA82";
name = Bold;
paths = (
{
closed = 1;
nodes = (
"420 0 LINE",
"476 266 LINE",
"833 699 LINE",
"639 699 LINE",
"416 428 LINE",
"316 699 LINE",
"133 699 LINE",
"299 266 LINE",
"243 0 LINE"
);
},
{
closed = 1;
nodes = (
"556 742 LINE",
"561 767 LINE",
"620 781 OFFCURVE",
"661 821 OFFCURVE",
"671 869 CURVE SMOOTH",
"684 932 OFFCURVE",
"641 975 OFFCURVE",
"535 975 CURVE SMOOTH",
"495 975 OFFCURVE",
"443 968 OFFCURVE",
"412 959 CURVE",
"394 875 LINE",
"408 881 OFFCURVE",
"437 885 OFFCURVE",
"453 885 CURVE SMOOTH",
"495 885 OFFCURVE",
"510 873 OFFCURVE",
"505 852 CURVE",
"499 821 OFFCURVE",
"465 812 OFFCURVE",
"417 812 CURVE",
"402 742 LINE"
);
}
);
width = 750;
}
);
leftKerningGroup = Y;
note = Yhookabove;
rightKerningGroup = Y;
unicode = 1EF6;
},
{
glyphname = Ytilde;
lastChange = "2015-10-28 18:15:24 +0000";
layers = (
{
layerId = "E876E4BA-4024-4F05-97F6-A7AFE1BCFA82";
name = Bold;
paths = (
{
closed = 1;
nodes = (
"420 0 LINE",
"476 266 LINE",
"833 699 LINE",
"639 699 LINE",
"416 428 LINE",
"316 699 LINE",
"133 699 LINE",
"299 266 LINE",
"243 0 LINE"
);
},
{
closed = 1;
nodes = (
"305 779 OFFCURVE",
"343 793 OFFCURVE",
"382 793 CURVE SMOOTH",
"446 793 OFFCURVE",
"496 743 OFFCURVE",
"569 743 CURVE SMOOTH",
"613 743 OFFCURVE",
"651 754 OFFCURVE",
"681 784 CURVE",
"708 912 LINE",
"671 876 OFFCURVE",
"634 862 OFFCURVE",
"594 862 CURVE SMOOTH",
"529 862 OFFCURVE",
"475 912 OFFCURVE",
"407 912 CURVE SMOOTH",
"364 912 OFFCURVE",
"325 900 OFFCURVE",
"294 870 CURVE",
"266 742 LINE"
);
}
);
width = 750;
}
);
leftKerningGroup = Y;
note = Ytilde;
rightKerningGroup = Y;
unicode = 1EF8;
},
{
glyphname = Z;
lastChange = "2015-10-28 18:15:23 +0000";
layers = (
{
layerId = "E876E4BA-4024-4F05-97F6-A7AFE1BCFA82";
name = Bold;
paths = (
{
closed = 1;
nodes = (
"546 0 LINE",
"577 149 LINE",
"239 149 LINE",
"646 578 LINE",
"672 699 LINE",
"141 699 LINE",
"109 550 LINE",
"419 550 LINE",
"10 120 LINE",
"-15 0 LINE"
);
}
);
width = 611;
}
);
leftKerningGroup = Z;
note = Z;
rightKerningGroup = Z;
unicode = 005A;
},
{
glyphname = Zacute;
lastChange = "2015-10-28 18:15:23 +0000";
layers = (
{
layerId = "E876E4BA-4024-4F05-97F6-A7AFE1BCFA82";
name = Bold;
paths = (
{
closed = 1;
nodes = (
"546 0 LINE",
"577 149 LINE",
"239 149 LINE",
"646 578 LINE",
"672 699 LINE",
"141 699 LINE",
"109 550 LINE",
"419 550 LINE",
"10 120 LINE",
"-15 0 LINE"
);
},
{
closed = 1;
nodes = (
"469 742 LINE",
"598 920 LINE",
"413 920 LINE",
"306 742 LINE"
);
}
);
width = 611;
}
);
leftKerningGroup = Z;
note = Zacute;
rightKerningGroup = Z;
unicode = 0179;
},
{
glyphname = Zcaron;
lastChange = "2015-10-28 18:15:23 +0000";
layers = (
{
layerId = "E876E4BA-4024-4F05-97F6-A7AFE1BCFA82";
name = Bold;
paths = (
{
closed = 1;
nodes = (
"546 0 LINE",
"577 149 LINE",
"239 149 LINE",
"646 578 LINE",
"672 699 LINE",
"141 699 LINE",
"109 550 LINE",
"419 550 LINE",
"10 120 LINE",
"-15 0 LINE"
);
},
{
closed = 1;
nodes = (
"487 742 LINE",
"681 923 LINE",
"502 923 LINE",
"424 838 LINE",
"382 923 LINE",
"213 923 LINE",
"330 742 LINE"
);
}
);
width = 611;
}
);
leftKerningGroup = Z;
note = Zcaron;
rightKerningGroup = Z;
unicode = 017D;
},
{
glyphname = Zdotaccent;
lastChange = "2015-10-28 18:15:24 +0000";
layers = (
{
layerId = "E876E4BA-4024-4F05-97F6-A7AFE1BCFA82";
name = Bold;
paths = (
{
closed = 1;
nodes = (
"546 0 LINE",
"577 149 LINE",
"239 149 LINE",
"646 578 LINE",
"672 699 LINE",
"141 699 LINE",
"109 550 LINE",
"419 550 LINE",
"10 120 LINE",
"-15 0 LINE"
);
},
{
closed = 1;
nodes = (
"449 752 OFFCURVE",
"490 785 OFFCURVE",
"499 828 CURVE SMOOTH",
"508 871 OFFCURVE",
"481 906 OFFCURVE",
"439 906 CURVE SMOOTH",
"397 906 OFFCURVE",
"354 871 OFFCURVE",
"345 828 CURVE SMOOTH",
"336 785 OFFCURVE",
"365 752 OFFCURVE",
"407 752 CURVE SMOOTH"
);
}
);
width = 611;
}
);
leftKerningGroup = Z;
note = Zdotaccent;
rightKerningGroup = Z;
unicode = 017B;
},
{
glyphname = Zdotbelow;
lastChange = "2015-10-28 18:15:24 +0000";
layers = (
{
layerId = "E876E4BA-4024-4F05-97F6-A7AFE1BCFA82";
name = Bold;
paths = (
{
closed = 1;
nodes = (
"546 0 LINE",
"577 149 LINE",
"239 149 LINE",
"646 578 LINE",
"672 699 LINE",
"141 699 LINE",
"109 550 LINE",
"419 550 LINE",
"10 120 LINE",
"-15 0 LINE"
);
},
{
closed = 1;
nodes = (
"271 -200 OFFCURVE",
"311 -166 OFFCURVE",
"320 -123 CURVE SMOOTH",
"329 -80 OFFCURVE",
"303 -46 OFFCURVE",
"262 -46 CURVE SMOOTH",
"220 -46 OFFCURVE",
"176 -80 OFFCURVE",
"167 -123 CURVE SMOOTH",
"158 -166 OFFCURVE",
"187 -200 OFFCURVE",
"229 -200 CURVE SMOOTH"
);
}
);
width = 611;
}
);
leftKerningGroup = Z;
note = Zdotbelow;
rightKerningGroup = Z;
unicode = 1E92;
},
{
glyphname = a;
lastChange = "2015-10-28 18:15:24 +0000";
layers = (
{
layerId = "E876E4BA-4024-4F05-97F6-A7AFE1BCFA82";
name = Bold;
paths = (
{
closed = 1;
nodes = (
"306 -15 OFFCURVE",
"367 6 OFFCURVE",
"421 48 CURVE",
"411 0 LINE",
"581 0 LINE",
"683 480 LINE",
"507 480 LINE",
"498 441 LINE",
"466 475 OFFCURVE",
"413 495 OFFCURVE",
"346 495 CURVE SMOOTH",
"193 495 OFFCURVE",
"69 391 OFFCURVE",
"36 239 CURVE SMOOTH",
"4 85 OFFCURVE",
"91 -15 OFFCURVE",
"237 -15 CURVE SMOOTH"
);
},
{
closed = 1;
nodes = (
"227 121 OFFCURVE",
"202 165 OFFCURVE",
"217 239 CURVE SMOOTH",
"233 313 OFFCURVE",
"292 358 OFFCURVE",
"363 358 CURVE SMOOTH",
"417 358 OFFCURVE",
"456 328 OFFCURVE",
"464 282 CURVE",
"446 197 LINE",
"418 151 OFFCURVE",
"366 121 OFFCURVE",
"312 121 CURVE SMOOTH"
);
}
);
width = 661;
}
);
leftKerningGroup = a;
note = a;
rightKerningGroup = a;
unicode = 0061;
},
{
glyphname = aacute;
lastChange = "2015-10-28 18:15:23 +0000";
layers = (
{
layerId = "E876E4BA-4024-4F05-97F6-A7AFE1BCFA82";
name = Bold;
paths = (
{
closed = 1;
nodes = (
"306 -15 OFFCURVE",
"367 6 OFFCURVE",
"421 48 CURVE",
"411 0 LINE",
"581 0 LINE",
"683 480 LINE",
"507 480 LINE",
"498 441 LINE",
"466 475 OFFCURVE",
"413 495 OFFCURVE",
"346 495 CURVE SMOOTH",
"193 495 OFFCURVE",
"69 391 OFFCURVE",
"36 239 CURVE SMOOTH",
"4 85 OFFCURVE",
"91 -15 OFFCURVE",
"237 -15 CURVE SMOOTH"
);
},
{
closed = 1;
nodes = (
"227 121 OFFCURVE",
"202 165 OFFCURVE",
"217 239 CURVE SMOOTH",
"233 313 OFFCURVE",
"292 358 OFFCURVE",
"363 358 CURVE SMOOTH",
"417 358 OFFCURVE",
"456 328 OFFCURVE",
"464 282 CURVE",
"446 197 LINE",
"418 151 OFFCURVE",
"366 121 OFFCURVE",
"312 121 CURVE SMOOTH"
);
},
{
closed = 1;
nodes = (
"501 518 LINE",
"630 696 LINE",
"445 696 LINE",
"338 518 LINE"
);
}
);
width = 661;
}
);
leftKerningGroup = a;
note = aacute;
rightKerningGroup = a;
unicode = 00E1;
},
{
glyphname = abreve;
lastChange = "2015-10-28 18:15:24 +0000";
layers = (
{
layerId = "E876E4BA-4024-4F05-97F6-A7AFE1BCFA82";
name = Bold;
paths = (
{
closed = 1;
nodes = (
"306 -15 OFFCURVE",
"367 6 OFFCURVE",
"421 48 CURVE",
"411 0 LINE",
"581 0 LINE",
"683 480 LINE",
"507 480 LINE",
"498 441 LINE",
"466 475 OFFCURVE",
"413 495 OFFCURVE",
"346 495 CURVE SMOOTH",
"193 495 OFFCURVE",
"69 391 OFFCURVE",
"36 239 CURVE SMOOTH",
"4 85 OFFCURVE",
"91 -15 OFFCURVE",
"237 -15 CURVE SMOOTH"
);
},
{
closed = 1;
nodes = (
"227 121 OFFCURVE",
"202 165 OFFCURVE",
"217 239 CURVE SMOOTH",
"233 313 OFFCURVE",
"292 358 OFFCURVE",
"363 358 CURVE SMOOTH",
"417 358 OFFCURVE",
"456 328 OFFCURVE",
"464 282 CURVE",
"446 197 LINE",
"418 151 OFFCURVE",
"366 121 OFFCURVE",
"312 121 CURVE SMOOTH"
);
},
{
closed = 1;
nodes = (
"564 525 OFFCURVE",
"644 593 OFFCURVE",
"667 698 CURVE",
"531 698 LINE",
"522 657 OFFCURVE",
"498 636 OFFCURVE",
"465 636 CURVE SMOOTH",
"431 636 OFFCURVE",
"418 657 OFFCURVE",
"427 698 CURVE",
"302 698 LINE",
"279 593 OFFCURVE",
"330 525 OFFCURVE",
"447 525 CURVE SMOOTH"
);
}
);
width = 661;
}
);
leftKerningGroup = a;
note = abreve;
rightKerningGroup = a;
unicode = 0103;
},
{
glyphname = abreveacute;
lastChange = "2015-10-28 18:15:24 +0000";
layers = (
{
layerId = "E876E4BA-4024-4F05-97F6-A7AFE1BCFA82";
name = Bold;
paths = (
{
closed = 1;
nodes = (
"306 -15 OFFCURVE",
"367 6 OFFCURVE",
"421 48 CURVE",
"411 0 LINE",
"581 0 LINE",
"683 480 LINE",
"507 480 LINE",
"498 441 LINE",
"466 475 OFFCURVE",
"413 495 OFFCURVE",
"346 495 CURVE SMOOTH",
"193 495 OFFCURVE",
"69 391 OFFCURVE",
"36 239 CURVE SMOOTH",
"4 85 OFFCURVE",
"91 -15 OFFCURVE",
"237 -15 CURVE SMOOTH"
);
},
{
closed = 1;
nodes = (
"227 121 OFFCURVE",
"202 165 OFFCURVE",
"217 239 CURVE SMOOTH",
"233 313 OFFCURVE",
"292 358 OFFCURVE",
"363 358 CURVE SMOOTH",
"417 358 OFFCURVE",
"456 328 OFFCURVE",
"464 282 CURVE",
"446 197 LINE",
"418 151 OFFCURVE",
"366 121 OFFCURVE",
"312 121 CURVE SMOOTH"
);
},
{
closed = 1;
nodes = (
"563 525 OFFCURVE",
"643 581 OFFCURVE",
"663 675 CURVE",
"548 675 LINE",
"540 637 OFFCURVE",
"517 621 OFFCURVE",
"479 621 CURVE SMOOTH",
"441 621 OFFCURVE",
"425 637 OFFCURVE",
"433 675 CURVE",
"318 675 LINE",
"298 581 OFFCURVE",
"355 525 OFFCURVE",
"459 525 CURVE SMOOTH"
);
},
{
closed = 1;
nodes = (
"558 697 LINE",
"654 824 LINE",
"511 824 LINE",
"434 697 LINE"
);
}
);
width = 661;
}
);
leftKerningGroup = a;
note = abreveacute;
rightKerningGroup = a;
unicode = 1EAF;
},
{
glyphname = abrevedotbelow;
lastChange = "2015-10-28 18:15:24 +0000";
layers = (
{
layerId = "E876E4BA-4024-4F05-97F6-A7AFE1BCFA82";
name = Bold;
paths = (
{
closed = 1;
nodes = (
"306 -15 OFFCURVE",
"367 6 OFFCURVE",
"421 48 CURVE",
"411 0 LINE",
"581 0 LINE",
"683 480 LINE",
"507 480 LINE",
"498 441 LINE",
"466 475 OFFCURVE",
"413 495 OFFCURVE",
"346 495 CURVE SMOOTH",
"193 495 OFFCURVE",
"69 391 OFFCURVE",
"36 239 CURVE SMOOTH",
"4 85 OFFCURVE",
"91 -15 OFFCURVE",
"237 -15 CURVE SMOOTH"
);
},
{
closed = 1;
nodes = (
"340 -200 OFFCURVE",
"380 -166 OFFCURVE",
"389 -123 CURVE SMOOTH",
"398 -80 OFFCURVE",
"372 -46 OFFCURVE",
"331 -46 CURVE SMOOTH",
"289 -46 OFFCURVE",
"245 -80 OFFCURVE",
"236 -123 CURVE SMOOTH",
"227 -166 OFFCURVE",
"256 -200 OFFCURVE",
"298 -200 CURVE SMOOTH"
);
},
{
closed = 1;
nodes = (
"227 121 OFFCURVE",
"202 165 OFFCURVE",
"217 239 CURVE SMOOTH",
"233 313 OFFCURVE",
"292 358 OFFCURVE",
"363 358 CURVE SMOOTH",
"417 358 OFFCURVE",
"456 328 OFFCURVE",
"464 282 CURVE",
"446 197 LINE",
"418 151 OFFCURVE",
"366 121 OFFCURVE",
"312 121 CURVE SMOOTH"
);
},
{
closed = 1;
nodes = (
"547 525 OFFCURVE",
"627 593 OFFCURVE",
"650 698 CURVE",
"514 698 LINE",
"505 657 OFFCURVE",
"481 636 OFFCURVE",
"448 636 CURVE SMOOTH",
"414 636 OFFCURVE",
"401 657 OFFCURVE",
"410 698 CURVE",
"285 698 LINE",
"262 593 OFFCURVE",
"313 525 OFFCURVE",
"430 525 CURVE SMOOTH"
);
}
);
width = 661;
}
);
leftKerningGroup = a;
note = abrevedotbelow;
rightKerningGroup = a;
unicode = 1EB7;
},
{
glyphname = abrevegrave;
lastChange = "2015-10-28 18:15:23 +0000";
layers = (
{
layerId = "E876E4BA-4024-4F05-97F6-A7AFE1BCFA82";
name = Bold;
paths = (
{
closed = 1;
nodes = (
"306 -15 OFFCURVE",
"367 6 OFFCURVE",
"421 48 CURVE",
"411 0 LINE",
"581 0 LINE",
"683 480 LINE",
"507 480 LINE",
"498 441 LINE",
"466 475 OFFCURVE",
"413 495 OFFCURVE",
"346 495 CURVE SMOOTH",
"193 495 OFFCURVE",
"69 391 OFFCURVE",
"36 239 CURVE SMOOTH",
"4 85 OFFCURVE",
"91 -15 OFFCURVE",
"237 -15 CURVE SMOOTH"
);
},
{
closed = 1;
nodes = (
"227 121 OFFCURVE",
"202 165 OFFCURVE",
"217 239 CURVE SMOOTH",
"233 313 OFFCURVE",
"292 358 OFFCURVE",
"363 358 CURVE SMOOTH",
"417 358 OFFCURVE",
"456 328 OFFCURVE",
"464 282 CURVE",
"446 197 LINE",
"418 151 OFFCURVE",
"366 121 OFFCURVE",
"312 121 CURVE SMOOTH"
);
},
{
closed = 1;
nodes = (
"564 523 OFFCURVE",
"644 579 OFFCURVE",
"664 673 CURVE",
"550 673 LINE",
"542 635 OFFCURVE",
"518 619 OFFCURVE",
"480 619 CURVE SMOOTH",
"442 619 OFFCURVE",
"427 635 OFFCURVE",
"435 673 CURVE",
"319 673 LINE",
"299 579 OFFCURVE",
"356 523 OFFCURVE",
"460 523 CURVE SMOOTH"
);
},
{
closed = 1;
nodes = (
"557 695 LINE",
"534 822 LINE",
"390 822 LINE",
"433 695 LINE"
);
}
);
width = 661;
}
);
leftKerningGroup = a;
note = abrevegrave;
rightKerningGroup = a;
unicode = 1EB1;
},
{
glyphname = abrevehookabove;
lastChange = "2015-10-28 18:15:24 +0000";
layers = (
{
layerId = "E876E4BA-4024-4F05-97F6-A7AFE1BCFA82";
name = Bold;
paths = (
{
closed = 1;
nodes = (
"306 -15 OFFCURVE",
"367 6 OFFCURVE",
"421 48 CURVE",
"411 0 LINE",
"581 0 LINE",
"683 480 LINE",
"507 480 LINE",
"498 441 LINE",
"466 475 OFFCURVE",
"413 495 OFFCURVE",
"346 495 CURVE SMOOTH",
"193 495 OFFCURVE",
"69 391 OFFCURVE",
"36 239 CURVE SMOOTH",
"4 85 OFFCURVE",
"91 -15 OFFCURVE",
"237 -15 CURVE SMOOTH"
);
},
{
closed = 1;
nodes = (
"227 121 OFFCURVE",
"202 165 OFFCURVE",
"217 239 CURVE SMOOTH",
"233 313 OFFCURVE",
"292 358 OFFCURVE",
"363 358 CURVE SMOOTH",
"417 358 OFFCURVE",
"456 328 OFFCURVE",
"464 282 CURVE",
"446 197 LINE",
"418 151 OFFCURVE",
"366 121 OFFCURVE",
"312 121 CURVE SMOOTH"
);
},
{
closed = 1;
nodes = (
"562 523 OFFCURVE",
"642 579 OFFCURVE",
"662 673 CURVE",
"548 673 LINE",
"540 635 OFFCURVE",
"516 619 OFFCURVE",
"478 619 CURVE SMOOTH",
"440 619 OFFCURVE",
"425 635 OFFCURVE",
"433 673 CURVE",
"317 673 LINE",
"297 579 OFFCURVE",
"354 523 OFFCURVE",
"458 523 CURVE SMOOTH"
);
},
{
closed = 1;
nodes = (
"550 683 LINE",
"554 702 LINE",
"597 711 OFFCURVE",
"621 734 OFFCURVE",
"629 771 CURVE SMOOTH",
"638 815 OFFCURVE",
"609 844 OFFCURVE",
"536 844 CURVE SMOOTH",
"509 844 OFFCURVE",
"471 839 OFFCURVE",
"448 832 CURVE",
"436 773 LINE",
"444 777 OFFCURVE",
"461 780 OFFCURVE",
"473 780 CURVE SMOOTH",
"500 780 OFFCURVE",
"512 774 OFFCURVE",
"509 757 CURVE",
"504 737 OFFCURVE",
"484 731 OFFCURVE",
"452 731 CURVE",
"442 683 LINE"
);
}
);
width = 661;
}
);
leftKerningGroup = a;
note = abrevehookabove;
rightKerningGroup = a;
unicode = 1EB3;
},
{
glyphname = abrevetilde;
lastChange = "2015-10-28 18:15:23 +0000";
layers = (
{
layerId = "E876E4BA-4024-4F05-97F6-A7AFE1BCFA82";
name = Bold;
paths = (
{
closed = 1;
nodes = (
"306 -15 OFFCURVE",
"367 6 OFFCURVE",
"421 48 CURVE",
"411 0 LINE",
"581 0 LINE",
"683 480 LINE",
"507 480 LINE",
"498 441 LINE",
"466 475 OFFCURVE",
"413 495 OFFCURVE",
"346 495 CURVE SMOOTH",
"193 495 OFFCURVE",
"69 391 OFFCURVE",
"36 239 CURVE SMOOTH",
"4 85 OFFCURVE",
"91 -15 OFFCURVE",
"237 -15 CURVE SMOOTH"
);
},
{
closed = 1;
nodes = (
"227 121 OFFCURVE",
"202 165 OFFCURVE",
"217 239 CURVE SMOOTH",
"233 313 OFFCURVE",
"292 358 OFFCURVE",
"363 358 CURVE SMOOTH",
"417 358 OFFCURVE",
"456 328 OFFCURVE",
"464 282 CURVE",
"446 197 LINE",
"418 151 OFFCURVE",
"366 121 OFFCURVE",
"312 121 CURVE SMOOTH"
);
},
{
closed = 1;
nodes = (
"572 525 OFFCURVE",
"652 581 OFFCURVE",
"672 675 CURVE",
"558 675 LINE",
"550 637 OFFCURVE",
"526 621 OFFCURVE",
"488 621 CURVE SMOOTH",
"450 621 OFFCURVE",
"435 637 OFFCURVE",
"443 675 CURVE",
"327 675 LINE",
"307 581 OFFCURVE",
"364 525 OFFCURVE",
"468 525 CURVE SMOOTH"
);
},
{
closed = 1;
nodes = (
"621 705 OFFCURVE",
"651 715 OFFCURVE",
"675 738 CURVE",
"697 840 LINE",
"667 811 OFFCURVE",
"637 799 OFFCURVE",
"606 799 CURVE SMOOTH",
"555 799 OFFCURVE",
"508 841 OFFCURVE",
"455 841 CURVE SMOOTH",
"419 841 OFFCURVE",
"389 831 OFFCURVE",
"365 807 CURVE",
"343 706 LINE",
"373 735 OFFCURVE",
"403 747 OFFCURVE",
"435 747 CURVE SMOOTH",
"485 747 OFFCURVE",
"529 705 OFFCURVE",
"586 705 CURVE SMOOTH"
);
}
);
width = 661;
}
);
leftKerningGroup = a;
note = abrevetilde;
rightKerningGroup = a;
unicode = 1EB5;
},
{
glyphname = acaron;
lastChange = "2015-10-28 18:15:24 +0000";
layers = (
{
layerId = "E876E4BA-4024-4F05-97F6-A7AFE1BCFA82";
name = Bold;
paths = (
{
closed = 1;
nodes = (
"306 -15 OFFCURVE",
"367 6 OFFCURVE",
"421 48 CURVE",
"411 0 LINE",
"581 0 LINE",
"683 480 LINE",
"507 480 LINE",
"498 441 LINE",
"466 475 OFFCURVE",
"413 495 OFFCURVE",
"346 495 CURVE SMOOTH",
"193 495 OFFCURVE",
"69 391 OFFCURVE",
"36 239 CURVE SMOOTH",
"4 85 OFFCURVE",
"91 -15 OFFCURVE",
"237 -15 CURVE SMOOTH"
);
},
{
closed = 1;
nodes = (
"227 121 OFFCURVE",
"202 165 OFFCURVE",
"217 239 CURVE SMOOTH",
"233 313 OFFCURVE",
"292 358 OFFCURVE",
"363 358 CURVE SMOOTH",
"417 358 OFFCURVE",
"456 328 OFFCURVE",
"464 282 CURVE",
"446 197 LINE",
"418 151 OFFCURVE",
"366 121 OFFCURVE",
"312 121 CURVE SMOOTH"
);
},
{
closed = 1;
nodes = (
"531 525 LINE",
"725 706 LINE",
"546 706 LINE",
"468 621 LINE",
"426 706 LINE",
"257 706 LINE",
"374 525 LINE"
);
}
);
width = 676;
}
);
leftKerningGroup = a;
note = acaron;
rightKerningGroup = a;
unicode = 01CE;
},
{
glyphname = acircumflex;
lastChange = "2015-10-28 18:15:24 +0000";
layers = (
{
layerId = "E876E4BA-4024-4F05-97F6-A7AFE1BCFA82";
name = Bold;
paths = (
{
closed = 1;
nodes = (
"306 -15 OFFCURVE",
"367 6 OFFCURVE",
"421 48 CURVE",
"411 0 LINE",
"581 0 LINE",
"683 480 LINE",
"507 480 LINE",
"498 441 LINE",
"466 475 OFFCURVE",
"413 495 OFFCURVE",
"346 495 CURVE SMOOTH",
"193 495 OFFCURVE",
"69 391 OFFCURVE",
"36 239 CURVE SMOOTH",
"4 85 OFFCURVE",
"91 -15 OFFCURVE",
"237 -15 CURVE SMOOTH"
);
},
{
closed = 1;
nodes = (
"227 121 OFFCURVE",
"202 165 OFFCURVE",
"217 239 CURVE SMOOTH",
"233 313 OFFCURVE",
"292 358 OFFCURVE",
"363 358 CURVE SMOOTH",
"417 358 OFFCURVE",
"456 328 OFFCURVE",
"464 282 CURVE",
"446 197 LINE",
"418 151 OFFCURVE",
"366 121 OFFCURVE",
"312 121 CURVE SMOOTH"
);
},
{
closed = 1;
nodes = (
"384 525 LINE",
"462 610 LINE",
"504 525 LINE",
"673 525 LINE",
"555 706 LINE",
"398 706 LINE",
"205 525 LINE"
);
}
);
width = 662;
}
);
leftKerningGroup = a;
note = acircumflex;
rightKerningGroup = a;
unicode = 00E2;
},
{
glyphname = acircumflexacute;
lastChange = "2015-10-28 18:15:24 +0000";
layers = (
{
layerId = "E876E4BA-4024-4F05-97F6-A7AFE1BCFA82";
name = Bold;
paths = (
{
closed = 1;
nodes = (
"306 -15 OFFCURVE",
"367 6 OFFCURVE",
"421 48 CURVE",
"411 0 LINE",
"581 0 LINE",
"683 480 LINE",
"507 480 LINE",
"498 441 LINE",
"466 475 OFFCURVE",
"413 495 OFFCURVE",
"346 495 CURVE SMOOTH",
"193 495 OFFCURVE",
"69 391 OFFCURVE",
"36 239 CURVE SMOOTH",
"4 85 OFFCURVE",
"91 -15 OFFCURVE",
"237 -15 CURVE SMOOTH"
);
},
{
closed = 1;
nodes = (
"227 121 OFFCURVE",
"202 165 OFFCURVE",
"217 239 CURVE SMOOTH",
"233 313 OFFCURVE",
"292 358 OFFCURVE",
"363 358 CURVE SMOOTH",
"417 358 OFFCURVE",
"456 328 OFFCURVE",
"464 282 CURVE",
"446 197 LINE",
"418 151 OFFCURVE",
"366 121 OFFCURVE",
"312 121 CURVE SMOOTH"
);
},
{
closed = 1;
nodes = (
"401 525 LINE",
"474 592 LINE",
"517 525 LINE",
"672 525 LINE",
"555 682 LINE",
"431 682 LINE",
"245 525 LINE"
);
},
{
closed = 1;
nodes = (
"752 641 LINE",
"863 780 LINE",
"701 780 LINE",
"612 641 LINE"
);
}
);
width = 647;
}
);
leftKerningGroup = a;
note = acircumflexacute;
rightKerningGroup = a;
unicode = 1EA5;
},
{
glyphname = acircumflexdotbelow;
lastChange = "2015-10-28 18:15:24 +0000";
layers = (
{
layerId = "E876E4BA-4024-4F05-97F6-A7AFE1BCFA82";
name = Bold;
paths = (
{
closed = 1;
nodes = (
"306 -15 OFFCURVE",
"367 6 OFFCURVE",
"421 48 CURVE",
"411 0 LINE",
"581 0 LINE",
"683 480 LINE",
"507 480 LINE",
"498 441 LINE",
"466 475 OFFCURVE",
"413 495 OFFCURVE",
"346 495 CURVE SMOOTH",
"193 495 OFFCURVE",
"69 391 OFFCURVE",
"36 239 CURVE SMOOTH",
"4 85 OFFCURVE",
"91 -15 OFFCURVE",
"237 -15 CURVE SMOOTH"
);
},
{
closed = 1;
nodes = (
"341 -200 OFFCURVE",
"381 -166 OFFCURVE",
"390 -123 CURVE SMOOTH",
"399 -80 OFFCURVE",
"373 -46 OFFCURVE",
"332 -46 CURVE SMOOTH",
"290 -46 OFFCURVE",
"246 -80 OFFCURVE",
"237 -123 CURVE SMOOTH",
"228 -166 OFFCURVE",
"257 -200 OFFCURVE",
"299 -200 CURVE SMOOTH"
);
},
{
closed = 1;
nodes = (
"227 121 OFFCURVE",
"202 165 OFFCURVE",
"217 239 CURVE SMOOTH",
"233 313 OFFCURVE",
"292 358 OFFCURVE",
"363 358 CURVE SMOOTH",
"417 358 OFFCURVE",
"456 328 OFFCURVE",
"464 282 CURVE",
"446 197 LINE",
"418 151 OFFCURVE",
"366 121 OFFCURVE",
"312 121 CURVE SMOOTH"
);
},
{
closed = 1;
nodes = (
"371 525 LINE",
"449 610 LINE",
"491 525 LINE",
"660 525 LINE",
"542 706 LINE",
"385 706 LINE",
"192 525 LINE"
);
}
);
width = 661;
}
);
leftKerningGroup = a;
note = acircumflexdotbelow;
rightKerningGroup = a;
unicode = 1EAD;
},
{
glyphname = acircumflexgrave;
lastChange = "2015-10-28 18:15:23 +0000";
layers = (
{
layerId = "E876E4BA-4024-4F05-97F6-A7AFE1BCFA82";
name = Bold;
paths = (
{
closed = 1;
nodes = (
"306 -15 OFFCURVE",
"367 6 OFFCURVE",
"421 48 CURVE",
"411 0 LINE",
"581 0 LINE",
"683 480 LINE",
"507 480 LINE",
"498 441 LINE",
"466 475 OFFCURVE",
"413 495 OFFCURVE",
"346 495 CURVE SMOOTH",
"193 495 OFFCURVE",
"69 391 OFFCURVE",
"36 239 CURVE SMOOTH",
"4 85 OFFCURVE",
"91 -15 OFFCURVE",
"237 -15 CURVE SMOOTH"
);
},
{
closed = 1;
nodes = (
"227 121 OFFCURVE",
"202 165 OFFCURVE",
"217 239 CURVE SMOOTH",
"233 313 OFFCURVE",
"292 358 OFFCURVE",
"363 358 CURVE SMOOTH",
"417 358 OFFCURVE",
"456 328 OFFCURVE",
"464 282 CURVE",
"446 197 LINE",
"418 151 OFFCURVE",
"366 121 OFFCURVE",
"312 121 CURVE SMOOTH"
);
},
{
closed = 1;
nodes = (
"354 641 LINE",
"325 780 LINE",
"163 780 LINE",
"214 641 LINE"
);
},
{
closed = 1;
nodes = (
"400 525 LINE",
"473 592 LINE",
"516 525 LINE",
"671 525 LINE",
"553 682 LINE",
"430 682 LINE",
"244 525 LINE"
);
}
);
width = 661;
}
);
leftKerningGroup = a;
note = acircumflexgrave;
rightKerningGroup = a;
unicode = 1EA7;
},
{
glyphname = acircumflexhookabove;
lastChange = "2015-10-28 18:15:24 +0000";
layers = (
{
layerId = "E876E4BA-4024-4F05-97F6-A7AFE1BCFA82";
name = Bold;
paths = (
{
closed = 1;
nodes = (
"306 -15 OFFCURVE",
"367 6 OFFCURVE",
"421 48 CURVE",
"411 0 LINE",
"581 0 LINE",
"683 480 LINE",
"507 480 LINE",
"498 441 LINE",
"466 475 OFFCURVE",
"413 495 OFFCURVE",
"346 495 CURVE SMOOTH",
"193 495 OFFCURVE",
"69 391 OFFCURVE",
"36 239 CURVE SMOOTH",
"4 85 OFFCURVE",
"91 -15 OFFCURVE",
"237 -15 CURVE SMOOTH"
);
},
{
closed = 1;
nodes = (
"227 121 OFFCURVE",
"202 165 OFFCURVE",
"217 239 CURVE SMOOTH",
"233 313 OFFCURVE",
"292 358 OFFCURVE",
"363 358 CURVE SMOOTH",
"417 358 OFFCURVE",
"456 328 OFFCURVE",
"464 282 CURVE",
"446 197 LINE",
"418 151 OFFCURVE",
"366 121 OFFCURVE",
"312 121 CURVE SMOOTH"
);
},
{
closed = 1;
nodes = (
"393 525 LINE",
"466 592 LINE",
"509 525 LINE",
"664 525 LINE",
"547 682 LINE",
"423 682 LINE",
"237 525 LINE"
);
},
{
closed = 1;
nodes = (
"713 630 LINE",
"718 655 LINE",
"758 664 OFFCURVE",
"786 687 OFFCURVE",
"793 720 CURVE SMOOTH",
"802 764 OFFCURVE",
"771 794 OFFCURVE",
"701 794 CURVE SMOOTH",
"674 794 OFFCURVE",
"634 788 OFFCURVE",
"612 782 CURVE",
"600 723 LINE",
"609 727 OFFCURVE",
"626 730 OFFCURVE",
"638 730 CURVE SMOOTH",
"665 730 OFFCURVE",
"676 723 OFFCURVE",
"673 707 CURVE SMOOTH",
"669 687 OFFCURVE",
"649 681 OFFCURVE",
"616 681 CURVE",
"605 630 LINE"
);
}
);
width = 676;
}
);
leftKerningGroup = a;
note = acircumflexhookabove;
rightKerningGroup = a;
unicode = 1EA9;
},
{
glyphname = acircumflextilde;
lastChange = "2015-10-28 18:15:24 +0000";
layers = (
{
layerId = "E876E4BA-4024-4F05-97F6-A7AFE1BCFA82";
name = Bold;
paths = (
{
closed = 1;
nodes = (
"306 -15 OFFCURVE",
"367 6 OFFCURVE",
"421 48 CURVE",
"411 0 LINE",
"581 0 LINE",
"683 480 LINE",
"507 480 LINE",
"498 441 LINE",
"466 475 OFFCURVE",
"413 495 OFFCURVE",
"346 495 CURVE SMOOTH",
"193 495 OFFCURVE",
"69 391 OFFCURVE",
"36 239 CURVE SMOOTH",
"4 85 OFFCURVE",
"91 -15 OFFCURVE",
"237 -15 CURVE SMOOTH"
);
},
{
closed = 1;
nodes = (
"227 121 OFFCURVE",
"202 165 OFFCURVE",
"217 239 CURVE SMOOTH",
"233 313 OFFCURVE",
"292 358 OFFCURVE",
"363 358 CURVE SMOOTH",
"417 358 OFFCURVE",
"456 328 OFFCURVE",
"464 282 CURVE",
"446 197 LINE",
"418 151 OFFCURVE",
"366 121 OFFCURVE",
"312 121 CURVE SMOOTH"
);
},
{
closed = 1;
nodes = (
"398 525 LINE",
"471 592 LINE",
"514 525 LINE",
"669 525 LINE",
"552 682 LINE",
"428 682 LINE",
"242 525 LINE"
);
},
{
closed = 1;
nodes = (
"614 693 OFFCURVE",
"644 703 OFFCURVE",
"668 726 CURVE",
"690 828 LINE",
"661 799 OFFCURVE",
"630 787 OFFCURVE",
"599 787 CURVE SMOOTH",
"549 787 OFFCURVE",
"501 829 OFFCURVE",
"449 829 CURVE SMOOTH",
"413 829 OFFCURVE",
"383 819 OFFCURVE",
"359 795 CURVE",
"337 694 LINE",
"367 723 OFFCURVE",
"397 735 OFFCURVE",
"429 735 CURVE SMOOTH",
"478 735 OFFCURVE",
"523 693 OFFCURVE",
"579 693 CURVE SMOOTH"
);
}
);
width = 661;
}
);
leftKerningGroup = a;
note = acircumflextilde;
rightKerningGroup = a;
unicode = 1EAB;
},
{
glyphname = adieresis;
lastChange = "2015-10-28 18:15:24 +0000";
layers = (
{
layerId = "E876E4BA-4024-4F05-97F6-A7AFE1BCFA82";
name = Bold;
paths = (
{
closed = 1;
nodes = (
"306 -15 OFFCURVE",
"367 6 OFFCURVE",
"421 48 CURVE",
"411 0 LINE",
"581 0 LINE",
"683 480 LINE",
"507 480 LINE",
"498 441 LINE",
"466 475 OFFCURVE",
"413 495 OFFCURVE",
"346 495 CURVE SMOOTH",
"193 495 OFFCURVE",
"69 391 OFFCURVE",
"36 239 CURVE SMOOTH",
"4 85 OFFCURVE",
"91 -15 OFFCURVE",
"237 -15 CURVE SMOOTH"
);
},
{
closed = 1;
nodes = (
"227 121 OFFCURVE",
"202 165 OFFCURVE",
"217 239 CURVE SMOOTH",
"233 313 OFFCURVE",
"292 358 OFFCURVE",
"363 358 CURVE SMOOTH",
"417 358 OFFCURVE",
"456 328 OFFCURVE",
"464 282 CURVE",
"446 197 LINE",
"418 151 OFFCURVE",
"366 121 OFFCURVE",
"312 121 CURVE SMOOTH"
);
},
{
closed = 1;
nodes = (
"354 521 OFFCURVE",
"395 554 OFFCURVE",
"404 597 CURVE SMOOTH",
"413 640 OFFCURVE",
"386 675 OFFCURVE",
"344 675 CURVE SMOOTH",
"303 675 OFFCURVE",
"260 640 OFFCURVE",
"251 597 CURVE SMOOTH",
"242 554 OFFCURVE",
"271 521 OFFCURVE",
"312 521 CURVE SMOOTH"
);
},
{
closed = 1;
nodes = (
"589 521 OFFCURVE",
"631 554 OFFCURVE",
"640 597 CURVE SMOOTH",
"649 640 OFFCURVE",
"621 675 OFFCURVE",
"580 675 CURVE SMOOTH",
"538 675 OFFCURVE",
"495 640 OFFCURVE",
"486 597 CURVE SMOOTH",
"477 554 OFFCURVE",
"506 521 OFFCURVE",
"548 521 CURVE SMOOTH"
);
}
);
width = 661;
}
);
leftKerningGroup = a;
note = adieresis;
rightKerningGroup = a;
unicode = 00E4;
},
{
glyphname = adotbelow;
lastChange = "2015-10-28 18:15:24 +0000";
layers = (
{
layerId = "E876E4BA-4024-4F05-97F6-A7AFE1BCFA82";
name = Bold;
paths = (
{
closed = 1;
nodes = (
"306 -15 OFFCURVE",
"367 6 OFFCURVE",
"421 48 CURVE",
"411 0 LINE",
"581 0 LINE",
"683 480 LINE",
"507 480 LINE",
"498 441 LINE",
"466 475 OFFCURVE",
"413 495 OFFCURVE",
"346 495 CURVE SMOOTH",
"193 495 OFFCURVE",
"69 391 OFFCURVE",
"36 239 CURVE SMOOTH",
"4 85 OFFCURVE",
"91 -15 OFFCURVE",
"237 -15 CURVE SMOOTH"
);
},
{
closed = 1;
nodes = (
"343 -200 OFFCURVE",
"383 -166 OFFCURVE",
"392 -123 CURVE SMOOTH",
"401 -80 OFFCURVE",
"375 -46 OFFCURVE",
"334 -46 CURVE SMOOTH",
"292 -46 OFFCURVE",
"248 -80 OFFCURVE",
"239 -123 CURVE SMOOTH",
"230 -166 OFFCURVE",
"259 -200 OFFCURVE",
"301 -200 CURVE SMOOTH"
);
},
{
closed = 1;
nodes = (
"227 121 OFFCURVE",
"202 165 OFFCURVE",
"217 239 CURVE SMOOTH",
"233 313 OFFCURVE",
"292 358 OFFCURVE",
"363 358 CURVE SMOOTH",
"417 358 OFFCURVE",
"456 328 OFFCURVE",
"464 282 CURVE",
"446 197 LINE",
"418 151 OFFCURVE",
"366 121 OFFCURVE",
"312 121 CURVE SMOOTH"
);
}
);
width = 661;
}
);
leftKerningGroup = a;
note = adotbelow;
rightKerningGroup = a;
unicode = 1EA1;
},
{
glyphname = agrave;
lastChange = "2015-10-28 18:15:24 +0000";
layers = (
{
layerId = "E876E4BA-4024-4F05-97F6-A7AFE1BCFA82";
name = Bold;
paths = (
{
closed = 1;
nodes = (
"306 -15 OFFCURVE",
"367 6 OFFCURVE",
"421 48 CURVE",
"411 0 LINE",
"581 0 LINE",
"683 480 LINE",
"507 480 LINE",
"498 441 LINE",
"466 475 OFFCURVE",
"413 495 OFFCURVE",
"346 495 CURVE SMOOTH",
"193 495 OFFCURVE",
"69 391 OFFCURVE",
"36 239 CURVE SMOOTH",
"4 85 OFFCURVE",
"91 -15 OFFCURVE",
"237 -15 CURVE SMOOTH"
);
},
{
closed = 1;
nodes = (
"227 121 OFFCURVE",
"202 165 OFFCURVE",
"217 239 CURVE SMOOTH",
"233 313 OFFCURVE",
"292 358 OFFCURVE",
"363 358 CURVE SMOOTH",
"417 358 OFFCURVE",
"456 328 OFFCURVE",
"464 282 CURVE",
"446 197 LINE",
"418 151 OFFCURVE",
"366 121 OFFCURVE",
"312 121 CURVE SMOOTH"
);
},
{
closed = 1;
nodes = (
"542 518 LINE",
"511 696 LINE",
"326 696 LINE",
"379 518 LINE"
);
}
);
width = 661;
}
);
leftKerningGroup = a;
note = agrave;
rightKerningGroup = a;
unicode = 00E0;
},
{
glyphname = ahookabove;
lastChange = "2015-10-28 18:15:24 +0000";
layers = (
{
layerId = "E876E4BA-4024-4F05-97F6-A7AFE1BCFA82";
name = Bold;
paths = (
{
closed = 1;
nodes = (
"306 -15 OFFCURVE",
"367 6 OFFCURVE",
"421 48 CURVE",
"411 0 LINE",
"581 0 LINE",
"683 480 LINE",
"507 480 LINE",
"498 441 LINE",
"466 475 OFFCURVE",
"413 495 OFFCURVE",
"346 495 CURVE SMOOTH",
"193 495 OFFCURVE",
"69 391 OFFCURVE",
"36 239 CURVE SMOOTH",
"4 85 OFFCURVE",
"91 -15 OFFCURVE",
"237 -15 CURVE SMOOTH"
);
},
{
closed = 1;
nodes = (
"227 121 OFFCURVE",
"202 165 OFFCURVE",
"217 239 CURVE SMOOTH",
"233 313 OFFCURVE",
"292 358 OFFCURVE",
"363 358 CURVE SMOOTH",
"417 358 OFFCURVE",
"456 328 OFFCURVE",
"464 282 CURVE",
"446 197 LINE",
"418 151 OFFCURVE",
"366 121 OFFCURVE",
"312 121 CURVE SMOOTH"
);
},
{
closed = 1;
nodes = (
"516 526 LINE",
"521 551 LINE",
"580 565 OFFCURVE",
"621 605 OFFCURVE",
"631 653 CURVE SMOOTH",
"644 716 OFFCURVE",
"601 759 OFFCURVE",
"495 759 CURVE SMOOTH",
"455 759 OFFCURVE",
"403 752 OFFCURVE",
"372 743 CURVE",
"354 659 LINE",
"368 665 OFFCURVE",
"397 669 OFFCURVE",
"413 669 CURVE SMOOTH",
"455 669 OFFCURVE",
"470 657 OFFCURVE",
"465 636 CURVE",
"459 605 OFFCURVE",
"425 596 OFFCURVE",
"377 596 CURVE",
"362 526 LINE"
);
}
);
width = 661;
}
);
leftKerningGroup = a;
note = ahookabove;
rightKerningGroup = a;
unicode = 1EA3;
},
{
glyphname = "alpha-latin";
lastChange = "2015-10-28 18:15:23 +0000";
layers = (
{
layerId = "E876E4BA-4024-4F05-97F6-A7AFE1BCFA82";
name = Bold;
paths = (
{
closed = 1;
nodes = (
"306 -15 OFFCURVE",
"367 6 OFFCURVE",
"421 48 CURVE",
"411 0 LINE",
"581 0 LINE",
"683 480 LINE",
"507 480 LINE",
"498 441 LINE",
"466 475 OFFCURVE",
"413 495 OFFCURVE",
"346 495 CURVE SMOOTH",
"193 495 OFFCURVE",
"69 391 OFFCURVE",
"36 239 CURVE SMOOTH",
"4 85 OFFCURVE",
"91 -15 OFFCURVE",
"237 -15 CURVE SMOOTH"
);
},
{
closed = 1;
nodes = (
"227 121 OFFCURVE",
"202 165 OFFCURVE",
"217 239 CURVE SMOOTH",
"233 313 OFFCURVE",
"292 358 OFFCURVE",
"363 358 CURVE SMOOTH",
"417 358 OFFCURVE",
"456 328 OFFCURVE",
"464 282 CURVE",
"446 197 LINE",
"418 151 OFFCURVE",
"366 121 OFFCURVE",
"312 121 CURVE SMOOTH"
);
}
);
width = 666;
}
);
leftKerningGroup = a;
note = ascript;
rightKerningGroup = a;
unicode = 0251;
},
{
glyphname = amacron;
lastChange = "2015-10-28 18:15:24 +0000";
layers = (
{
layerId = "E876E4BA-4024-4F05-97F6-A7AFE1BCFA82";
name = Bold;
paths = (
{
closed = 1;
nodes = (
"306 -15 OFFCURVE",
"367 6 OFFCURVE",
"421 48 CURVE",
"411 0 LINE",
"581 0 LINE",
"683 480 LINE",
"507 480 LINE",
"498 441 LINE",
"466 475 OFFCURVE",
"413 495 OFFCURVE",
"346 495 CURVE SMOOTH",
"193 495 OFFCURVE",
"69 391 OFFCURVE",
"36 239 CURVE SMOOTH",
"4 85 OFFCURVE",
"91 -15 OFFCURVE",
"237 -15 CURVE SMOOTH"
);
},
{
closed = 1;
nodes = (
"227 121 OFFCURVE",
"202 165 OFFCURVE",
"217 239 CURVE SMOOTH",
"233 313 OFFCURVE",
"292 358 OFFCURVE",
"363 358 CURVE SMOOTH",
"417 358 OFFCURVE",
"456 328 OFFCURVE",
"464 282 CURVE",
"446 197 LINE",
"418 151 OFFCURVE",
"366 121 OFFCURVE",
"312 121 CURVE SMOOTH"
);
},
{
closed = 1;
nodes = (
"609 526 LINE",
"633 639 LINE",
"289 639 LINE",
"265 526 LINE"
);
}
);
width = 661;
}
);
leftKerningGroup = a;
note = amacron;
rightKerningGroup = a;
unicode = 0101;
},
{
glyphname = aogonek;
lastChange = "2015-10-28 18:15:23 +0000";
layers = (
{
layerId = "E876E4BA-4024-4F05-97F6-A7AFE1BCFA82";
name = Bold;
paths = (
{
closed = 1;
nodes = (
"474 -216 OFFCURVE",
"513 -210 OFFCURVE",
"541 -201 CURVE",
"561 -105 LINE",
"544 -113 OFFCURVE",
"527 -117 OFFCURVE",
"511 -117 CURVE SMOOTH",
"490 -117 OFFCURVE",
"479 -104 OFFCURVE",
"484 -84 CURVE",
"490 -55 OFFCURVE",
"520 -29 OFFCURVE",
"581 0 CURVE",
"683 480 LINE",
"507 480 LINE",
"498 441 LINE",
"466 475 OFFCURVE",
"413 495 OFFCURVE",
"346 495 CURVE SMOOTH",
"193 495 OFFCURVE",
"69 391 OFFCURVE",
"36 239 CURVE SMOOTH",
"4 85 OFFCURVE",
"91 -15 OFFCURVE",
"237 -15 CURVE SMOOTH",
"306 -15 OFFCURVE",
"367 6 OFFCURVE",
"421 48 CURVE",
"411 0 LINE",
"374 -25 OFFCURVE",
"336 -66 OFFCURVE",
"325 -119 CURVE SMOOTH",
"311 -187 OFFCURVE",
"363 -216 OFFCURVE",
"436 -216 CURVE SMOOTH"
);
},
{
closed = 1;
nodes = (
"227 121 OFFCURVE",
"202 165 OFFCURVE",
"217 239 CURVE SMOOTH",
"233 313 OFFCURVE",
"292 358 OFFCURVE",
"363 358 CURVE SMOOTH",
"417 358 OFFCURVE",
"456 328 OFFCURVE",
"464 282 CURVE",
"446 197 LINE",
"418 151 OFFCURVE",
"366 121 OFFCURVE",
"312 121 CURVE SMOOTH"
);
}
);
width = 671;
}
);
leftKerningGroup = a;
note = aogonek;
rightKerningGroup = a;
unicode = 0105;
},
{
glyphname = aring;
lastChange = "2015-10-28 18:15:24 +0000";
layers = (
{
layerId = "E876E4BA-4024-4F05-97F6-A7AFE1BCFA82";
name = Bold;
paths = (
{
closed = 1;
nodes = (
"306 -15 OFFCURVE",
"367 6 OFFCURVE",
"421 48 CURVE",
"411 0 LINE",
"581 0 LINE",
"683 480 LINE",
"507 480 LINE",
"498 441 LINE",
"466 475 OFFCURVE",
"413 495 OFFCURVE",
"346 495 CURVE SMOOTH",
"193 495 OFFCURVE",
"69 391 OFFCURVE",
"36 239 CURVE SMOOTH",
"4 85 OFFCURVE",
"91 -15 OFFCURVE",
"237 -15 CURVE SMOOTH"
);
},
{
closed = 1;
nodes = (
"227 121 OFFCURVE",
"202 165 OFFCURVE",
"217 239 CURVE SMOOTH",
"233 313 OFFCURVE",
"292 358 OFFCURVE",
"363 358 CURVE SMOOTH",
"417 358 OFFCURVE",
"456 328 OFFCURVE",
"464 282 CURVE",
"446 197 LINE",
"418 151 OFFCURVE",
"366 121 OFFCURVE",
"312 121 CURVE SMOOTH"
);
},
{
closed = 1;
nodes = (
"518 525 OFFCURVE",
"595 586 OFFCURVE",
"612 664 CURVE SMOOTH",
"628 742 OFFCURVE",
"578 804 OFFCURVE",
"500 804 CURVE SMOOTH",
"422 804 OFFCURVE",
"345 742 OFFCURVE",
"329 664 CURVE SMOOTH",
"313 586 OFFCURVE",
"362 525 OFFCURVE",
"440 525 CURVE SMOOTH"
);
},
{
closed = 1;
nodes = (
"429 618 OFFCURVE",
"419 639 OFFCURVE",
"424 664 CURVE SMOOTH",
"429 690 OFFCURVE",
"455 710 OFFCURVE",
"480 710 CURVE SMOOTH",
"511 710 OFFCURVE",
"521 690 OFFCURVE",
"516 664 CURVE SMOOTH",
"511 639 OFFCURVE",
"486 618 OFFCURVE",
"460 618 CURVE SMOOTH"
);
}
);
width = 661;
}
);
leftKerningGroup = a;
note = aring;
rightKerningGroup = a;
unicode = 00E5;
},
